G75*
%MOIN*%
%OFA0B0*%
%FSLAX25Y25*%
%IPPOS*%
%LPD*%
%AMOC8*
5,1,8,0,0,1.08239X$1,22.5*
%
%ADD10C,0.00700*%
%ADD11C,0.01600*%
%ADD12C,0.01200*%
%ADD13C,0.00600*%
%ADD14C,0.00500*%
%ADD15R,0.42000X0.03000*%
%ADD16R,0.07500X0.02000*%
%ADD17R,0.03000X0.02000*%
%ADD18R,0.03400X0.02400*%
%ADD19R,0.02400X0.03400*%
%ADD20C,0.00400*%
%ADD21C,0.00000*%
%ADD22C,0.00300*%
%ADD23C,0.01000*%
D10*
X0078543Y0301983D02*
X0078543Y0309890D01*
X0082496Y0309890D01*
X0083814Y0308572D01*
X0083814Y0305936D01*
X0082496Y0304619D01*
X0078543Y0304619D01*
X0081178Y0304619D02*
X0083814Y0301983D01*
X0086461Y0303301D02*
X0086461Y0305936D01*
X0087779Y0307254D01*
X0090415Y0307254D01*
X0091732Y0305936D01*
X0091732Y0304619D01*
X0086461Y0304619D01*
X0086461Y0303301D02*
X0087779Y0301983D01*
X0090415Y0301983D01*
X0094380Y0307254D02*
X0097016Y0301983D01*
X0099651Y0307254D01*
X0110218Y0308572D02*
X0111535Y0309890D01*
X0114171Y0309890D01*
X0115489Y0308572D01*
X0115489Y0307254D01*
X0110218Y0301983D01*
X0115489Y0301983D01*
X0118136Y0301983D02*
X0119454Y0301983D01*
X0119454Y0303301D01*
X0118136Y0303301D01*
X0118136Y0301983D01*
X0122096Y0303301D02*
X0123413Y0301983D01*
X0126049Y0301983D01*
X0127367Y0303301D01*
X0127367Y0304619D01*
X0126049Y0305936D01*
X0124731Y0305936D01*
X0126049Y0305936D02*
X0127367Y0307254D01*
X0127367Y0308572D01*
X0126049Y0309890D01*
X0123413Y0309890D01*
X0122096Y0308572D01*
X0130014Y0303301D02*
X0131332Y0303301D01*
X0131332Y0301983D01*
X0130014Y0301983D01*
X0130014Y0303301D01*
X0133974Y0301983D02*
X0139245Y0301983D01*
X0136609Y0301983D02*
X0136609Y0309890D01*
X0133974Y0307254D01*
D11*
X0412993Y0214133D02*
X0420793Y0214233D01*
X0420793Y0214133D01*
X0418393Y0211333D01*
X0418393Y0216733D01*
X0420793Y0214133D01*
X0412993Y0214133D01*
X0418393Y0214768D02*
X0420207Y0214768D01*
X0419966Y0213169D02*
X0418393Y0213169D01*
X0418393Y0211571D02*
X0418596Y0211571D01*
X0418731Y0216366D02*
X0418393Y0216366D01*
D12*
X0360993Y0160133D02*
X0360993Y0157633D01*
X0360993Y0155133D01*
X0358493Y0155133D02*
X0358493Y0157633D01*
X0358493Y0160133D01*
X0243893Y0219033D02*
X0243893Y0221533D01*
X0243893Y0224033D01*
X0241393Y0224033D02*
X0241393Y0221533D01*
X0241393Y0219033D01*
X0323493Y0235833D02*
X0323493Y0238333D01*
X0323493Y0240833D01*
X0325993Y0240833D02*
X0325993Y0238333D01*
X0325993Y0235833D01*
X0102093Y0117533D02*
X0102093Y0115033D01*
X0102093Y0112533D01*
X0099593Y0112533D02*
X0099593Y0115033D01*
X0099593Y0117533D01*
X0187293Y0091033D02*
X0187293Y0088533D01*
X0187293Y0086033D01*
X0189793Y0086033D02*
X0189793Y0088533D01*
X0189793Y0091033D01*
D13*
X0189793Y0088533D02*
X0194493Y0088533D01*
X0201993Y0093533D02*
X0202053Y0093531D01*
X0202114Y0093526D01*
X0202173Y0093517D01*
X0202232Y0093504D01*
X0202291Y0093488D01*
X0202348Y0093468D01*
X0202403Y0093445D01*
X0202458Y0093418D01*
X0202510Y0093389D01*
X0202561Y0093356D01*
X0202610Y0093320D01*
X0202656Y0093282D01*
X0202700Y0093240D01*
X0202742Y0093196D01*
X0202780Y0093150D01*
X0202816Y0093101D01*
X0202849Y0093050D01*
X0202878Y0092998D01*
X0202905Y0092943D01*
X0202928Y0092888D01*
X0202948Y0092831D01*
X0202964Y0092772D01*
X0202977Y0092713D01*
X0202986Y0092654D01*
X0202991Y0092593D01*
X0202993Y0092533D01*
X0202993Y0084533D01*
X0202991Y0084473D01*
X0202986Y0084412D01*
X0202977Y0084353D01*
X0202964Y0084294D01*
X0202948Y0084235D01*
X0202928Y0084178D01*
X0202905Y0084123D01*
X0202878Y0084068D01*
X0202849Y0084016D01*
X0202816Y0083965D01*
X0202780Y0083916D01*
X0202742Y0083870D01*
X0202700Y0083826D01*
X0202656Y0083784D01*
X0202610Y0083746D01*
X0202561Y0083710D01*
X0202510Y0083677D01*
X0202458Y0083648D01*
X0202403Y0083621D01*
X0202348Y0083598D01*
X0202291Y0083578D01*
X0202232Y0083562D01*
X0202173Y0083549D01*
X0202114Y0083540D01*
X0202053Y0083535D01*
X0201993Y0083533D01*
X0174993Y0083533D01*
X0174933Y0083535D01*
X0174872Y0083540D01*
X0174813Y0083549D01*
X0174754Y0083562D01*
X0174695Y0083578D01*
X0174638Y0083598D01*
X0174583Y0083621D01*
X0174528Y0083648D01*
X0174476Y0083677D01*
X0174425Y0083710D01*
X0174376Y0083746D01*
X0174330Y0083784D01*
X0174286Y0083826D01*
X0174244Y0083870D01*
X0174206Y0083916D01*
X0174170Y0083965D01*
X0174137Y0084016D01*
X0174108Y0084068D01*
X0174081Y0084123D01*
X0174058Y0084178D01*
X0174038Y0084235D01*
X0174022Y0084294D01*
X0174009Y0084353D01*
X0174000Y0084412D01*
X0173995Y0084473D01*
X0173993Y0084533D01*
X0173993Y0092533D01*
X0173995Y0092593D01*
X0174000Y0092654D01*
X0174009Y0092713D01*
X0174022Y0092772D01*
X0174038Y0092831D01*
X0174058Y0092888D01*
X0174081Y0092943D01*
X0174108Y0092998D01*
X0174137Y0093050D01*
X0174170Y0093101D01*
X0174206Y0093150D01*
X0174244Y0093196D01*
X0174286Y0093240D01*
X0174330Y0093282D01*
X0174376Y0093320D01*
X0174425Y0093356D01*
X0174476Y0093389D01*
X0174528Y0093418D01*
X0174583Y0093445D01*
X0174638Y0093468D01*
X0174695Y0093488D01*
X0174754Y0093504D01*
X0174813Y0093517D01*
X0174872Y0093526D01*
X0174933Y0093531D01*
X0174993Y0093533D01*
X0201993Y0093533D01*
X0187293Y0088533D02*
X0182493Y0088533D01*
X0115293Y0111033D02*
X0115293Y0119033D01*
X0115291Y0119093D01*
X0115286Y0119154D01*
X0115277Y0119213D01*
X0115264Y0119272D01*
X0115248Y0119331D01*
X0115228Y0119388D01*
X0115205Y0119443D01*
X0115178Y0119498D01*
X0115149Y0119550D01*
X0115116Y0119601D01*
X0115080Y0119650D01*
X0115042Y0119696D01*
X0115000Y0119740D01*
X0114956Y0119782D01*
X0114910Y0119820D01*
X0114861Y0119856D01*
X0114810Y0119889D01*
X0114758Y0119918D01*
X0114703Y0119945D01*
X0114648Y0119968D01*
X0114591Y0119988D01*
X0114532Y0120004D01*
X0114473Y0120017D01*
X0114414Y0120026D01*
X0114353Y0120031D01*
X0114293Y0120033D01*
X0087293Y0120033D01*
X0087233Y0120031D01*
X0087172Y0120026D01*
X0087113Y0120017D01*
X0087054Y0120004D01*
X0086995Y0119988D01*
X0086938Y0119968D01*
X0086883Y0119945D01*
X0086828Y0119918D01*
X0086776Y0119889D01*
X0086725Y0119856D01*
X0086676Y0119820D01*
X0086630Y0119782D01*
X0086586Y0119740D01*
X0086544Y0119696D01*
X0086506Y0119650D01*
X0086470Y0119601D01*
X0086437Y0119550D01*
X0086408Y0119498D01*
X0086381Y0119443D01*
X0086358Y0119388D01*
X0086338Y0119331D01*
X0086322Y0119272D01*
X0086309Y0119213D01*
X0086300Y0119154D01*
X0086295Y0119093D01*
X0086293Y0119033D01*
X0086293Y0111033D01*
X0086295Y0110973D01*
X0086300Y0110912D01*
X0086309Y0110853D01*
X0086322Y0110794D01*
X0086338Y0110735D01*
X0086358Y0110678D01*
X0086381Y0110623D01*
X0086408Y0110568D01*
X0086437Y0110516D01*
X0086470Y0110465D01*
X0086506Y0110416D01*
X0086544Y0110370D01*
X0086586Y0110326D01*
X0086630Y0110284D01*
X0086676Y0110246D01*
X0086725Y0110210D01*
X0086776Y0110177D01*
X0086828Y0110148D01*
X0086883Y0110121D01*
X0086938Y0110098D01*
X0086995Y0110078D01*
X0087054Y0110062D01*
X0087113Y0110049D01*
X0087172Y0110040D01*
X0087233Y0110035D01*
X0087293Y0110033D01*
X0114293Y0110033D01*
X0114353Y0110035D01*
X0114414Y0110040D01*
X0114473Y0110049D01*
X0114532Y0110062D01*
X0114591Y0110078D01*
X0114648Y0110098D01*
X0114703Y0110121D01*
X0114758Y0110148D01*
X0114810Y0110177D01*
X0114861Y0110210D01*
X0114910Y0110246D01*
X0114956Y0110284D01*
X0115000Y0110326D01*
X0115042Y0110370D01*
X0115080Y0110416D01*
X0115116Y0110465D01*
X0115149Y0110516D01*
X0115178Y0110568D01*
X0115205Y0110623D01*
X0115228Y0110678D01*
X0115248Y0110735D01*
X0115264Y0110794D01*
X0115277Y0110853D01*
X0115286Y0110912D01*
X0115291Y0110973D01*
X0115293Y0111033D01*
X0106793Y0115033D02*
X0102093Y0115033D01*
X0099593Y0115033D02*
X0094793Y0115033D01*
X0127268Y0147733D02*
X0128768Y0147733D01*
X0129268Y0148233D01*
X0146993Y0148233D01*
X0147493Y0147733D01*
X0148993Y0147733D01*
X0149053Y0147735D01*
X0149114Y0147740D01*
X0149173Y0147749D01*
X0149232Y0147762D01*
X0149291Y0147778D01*
X0149348Y0147798D01*
X0149403Y0147821D01*
X0149458Y0147848D01*
X0149510Y0147877D01*
X0149561Y0147910D01*
X0149610Y0147946D01*
X0149656Y0147984D01*
X0149700Y0148026D01*
X0149742Y0148070D01*
X0149780Y0148116D01*
X0149816Y0148165D01*
X0149849Y0148216D01*
X0149878Y0148268D01*
X0149905Y0148323D01*
X0149928Y0148378D01*
X0149948Y0148435D01*
X0149964Y0148494D01*
X0149977Y0148553D01*
X0149986Y0148612D01*
X0149991Y0148673D01*
X0149993Y0148733D01*
X0149993Y0155733D01*
X0149991Y0155793D01*
X0149986Y0155854D01*
X0149977Y0155913D01*
X0149964Y0155972D01*
X0149948Y0156031D01*
X0149928Y0156088D01*
X0149905Y0156143D01*
X0149878Y0156198D01*
X0149849Y0156250D01*
X0149816Y0156301D01*
X0149780Y0156350D01*
X0149742Y0156396D01*
X0149700Y0156440D01*
X0149656Y0156482D01*
X0149610Y0156520D01*
X0149561Y0156556D01*
X0149510Y0156589D01*
X0149458Y0156618D01*
X0149403Y0156645D01*
X0149348Y0156668D01*
X0149291Y0156688D01*
X0149232Y0156704D01*
X0149173Y0156717D01*
X0149114Y0156726D01*
X0149053Y0156731D01*
X0148993Y0156733D01*
X0147493Y0156733D01*
X0146993Y0156233D01*
X0129268Y0156233D01*
X0128768Y0156733D01*
X0127268Y0156733D01*
X0127208Y0156731D01*
X0127147Y0156726D01*
X0127088Y0156717D01*
X0127029Y0156704D01*
X0126970Y0156688D01*
X0126913Y0156668D01*
X0126858Y0156645D01*
X0126803Y0156618D01*
X0126751Y0156589D01*
X0126700Y0156556D01*
X0126651Y0156520D01*
X0126605Y0156482D01*
X0126561Y0156440D01*
X0126519Y0156396D01*
X0126481Y0156350D01*
X0126445Y0156301D01*
X0126412Y0156250D01*
X0126383Y0156198D01*
X0126356Y0156143D01*
X0126333Y0156088D01*
X0126313Y0156031D01*
X0126297Y0155972D01*
X0126284Y0155913D01*
X0126275Y0155854D01*
X0126270Y0155793D01*
X0126268Y0155733D01*
X0126268Y0148733D01*
X0126270Y0148673D01*
X0126275Y0148612D01*
X0126284Y0148553D01*
X0126297Y0148494D01*
X0126313Y0148435D01*
X0126333Y0148378D01*
X0126356Y0148323D01*
X0126383Y0148268D01*
X0126412Y0148216D01*
X0126445Y0148165D01*
X0126481Y0148116D01*
X0126519Y0148070D01*
X0126561Y0148026D01*
X0126605Y0147984D01*
X0126651Y0147946D01*
X0126700Y0147910D01*
X0126751Y0147877D01*
X0126803Y0147848D01*
X0126858Y0147821D01*
X0126913Y0147798D01*
X0126970Y0147778D01*
X0127029Y0147762D01*
X0127088Y0147749D01*
X0127147Y0147740D01*
X0127208Y0147735D01*
X0127268Y0147733D01*
X0117393Y0190433D02*
X0110393Y0190433D01*
X0110333Y0190435D01*
X0110272Y0190440D01*
X0110213Y0190449D01*
X0110154Y0190462D01*
X0110095Y0190478D01*
X0110038Y0190498D01*
X0109983Y0190521D01*
X0109928Y0190548D01*
X0109876Y0190577D01*
X0109825Y0190610D01*
X0109776Y0190646D01*
X0109730Y0190684D01*
X0109686Y0190726D01*
X0109644Y0190770D01*
X0109606Y0190816D01*
X0109570Y0190865D01*
X0109537Y0190916D01*
X0109508Y0190968D01*
X0109481Y0191023D01*
X0109458Y0191078D01*
X0109438Y0191135D01*
X0109422Y0191194D01*
X0109409Y0191253D01*
X0109400Y0191312D01*
X0109395Y0191373D01*
X0109393Y0191433D01*
X0109393Y0192933D01*
X0109893Y0193433D01*
X0109893Y0211158D01*
X0109393Y0211658D01*
X0109393Y0213158D01*
X0109395Y0213218D01*
X0109400Y0213279D01*
X0109409Y0213338D01*
X0109422Y0213397D01*
X0109438Y0213456D01*
X0109458Y0213513D01*
X0109481Y0213568D01*
X0109508Y0213623D01*
X0109537Y0213675D01*
X0109570Y0213726D01*
X0109606Y0213775D01*
X0109644Y0213821D01*
X0109686Y0213865D01*
X0109730Y0213907D01*
X0109776Y0213945D01*
X0109825Y0213981D01*
X0109876Y0214014D01*
X0109928Y0214043D01*
X0109983Y0214070D01*
X0110038Y0214093D01*
X0110095Y0214113D01*
X0110154Y0214129D01*
X0110213Y0214142D01*
X0110272Y0214151D01*
X0110333Y0214156D01*
X0110393Y0214158D01*
X0117393Y0214158D01*
X0117453Y0214156D01*
X0117514Y0214151D01*
X0117573Y0214142D01*
X0117632Y0214129D01*
X0117691Y0214113D01*
X0117748Y0214093D01*
X0117803Y0214070D01*
X0117858Y0214043D01*
X0117910Y0214014D01*
X0117961Y0213981D01*
X0118010Y0213945D01*
X0118056Y0213907D01*
X0118100Y0213865D01*
X0118142Y0213821D01*
X0118180Y0213775D01*
X0118216Y0213726D01*
X0118249Y0213675D01*
X0118278Y0213623D01*
X0118305Y0213568D01*
X0118328Y0213513D01*
X0118348Y0213456D01*
X0118364Y0213397D01*
X0118377Y0213338D01*
X0118386Y0213279D01*
X0118391Y0213218D01*
X0118393Y0213158D01*
X0118393Y0211658D01*
X0117893Y0211158D01*
X0117893Y0193433D01*
X0118393Y0192933D01*
X0118393Y0191433D01*
X0118391Y0191373D01*
X0118386Y0191312D01*
X0118377Y0191253D01*
X0118364Y0191194D01*
X0118348Y0191135D01*
X0118328Y0191078D01*
X0118305Y0191023D01*
X0118278Y0190968D01*
X0118249Y0190916D01*
X0118216Y0190865D01*
X0118180Y0190816D01*
X0118142Y0190770D01*
X0118100Y0190726D01*
X0118056Y0190684D01*
X0118010Y0190646D01*
X0117961Y0190610D01*
X0117910Y0190577D01*
X0117858Y0190548D01*
X0117803Y0190521D01*
X0117748Y0190498D01*
X0117691Y0190478D01*
X0117632Y0190462D01*
X0117573Y0190449D01*
X0117514Y0190440D01*
X0117453Y0190435D01*
X0117393Y0190433D01*
X0197793Y0175833D02*
X0220793Y0175833D01*
X0220793Y0135833D01*
X0213293Y0135833D01*
X0213291Y0135959D01*
X0213285Y0136084D01*
X0213275Y0136209D01*
X0213261Y0136334D01*
X0213244Y0136459D01*
X0213222Y0136583D01*
X0213197Y0136706D01*
X0213167Y0136828D01*
X0213134Y0136949D01*
X0213097Y0137069D01*
X0213057Y0137188D01*
X0213012Y0137305D01*
X0212964Y0137422D01*
X0212912Y0137536D01*
X0212857Y0137649D01*
X0212798Y0137760D01*
X0212736Y0137869D01*
X0212670Y0137976D01*
X0212601Y0138081D01*
X0212529Y0138184D01*
X0212454Y0138285D01*
X0212375Y0138383D01*
X0212293Y0138478D01*
X0212209Y0138571D01*
X0212121Y0138661D01*
X0212031Y0138749D01*
X0211938Y0138833D01*
X0211843Y0138915D01*
X0211745Y0138994D01*
X0211644Y0139069D01*
X0211541Y0139141D01*
X0211436Y0139210D01*
X0211329Y0139276D01*
X0211220Y0139338D01*
X0211109Y0139397D01*
X0210996Y0139452D01*
X0210882Y0139504D01*
X0210765Y0139552D01*
X0210648Y0139597D01*
X0210529Y0139637D01*
X0210409Y0139674D01*
X0210288Y0139707D01*
X0210166Y0139737D01*
X0210043Y0139762D01*
X0209919Y0139784D01*
X0209794Y0139801D01*
X0209669Y0139815D01*
X0209544Y0139825D01*
X0209419Y0139831D01*
X0209293Y0139833D01*
X0209167Y0139831D01*
X0209042Y0139825D01*
X0208917Y0139815D01*
X0208792Y0139801D01*
X0208667Y0139784D01*
X0208543Y0139762D01*
X0208420Y0139737D01*
X0208298Y0139707D01*
X0208177Y0139674D01*
X0208057Y0139637D01*
X0207938Y0139597D01*
X0207821Y0139552D01*
X0207704Y0139504D01*
X0207590Y0139452D01*
X0207477Y0139397D01*
X0207366Y0139338D01*
X0207257Y0139276D01*
X0207150Y0139210D01*
X0207045Y0139141D01*
X0206942Y0139069D01*
X0206841Y0138994D01*
X0206743Y0138915D01*
X0206648Y0138833D01*
X0206555Y0138749D01*
X0206465Y0138661D01*
X0206377Y0138571D01*
X0206293Y0138478D01*
X0206211Y0138383D01*
X0206132Y0138285D01*
X0206057Y0138184D01*
X0205985Y0138081D01*
X0205916Y0137976D01*
X0205850Y0137869D01*
X0205788Y0137760D01*
X0205729Y0137649D01*
X0205674Y0137536D01*
X0205622Y0137422D01*
X0205574Y0137305D01*
X0205529Y0137188D01*
X0205489Y0137069D01*
X0205452Y0136949D01*
X0205419Y0136828D01*
X0205389Y0136706D01*
X0205364Y0136583D01*
X0205342Y0136459D01*
X0205325Y0136334D01*
X0205311Y0136209D01*
X0205301Y0136084D01*
X0205295Y0135959D01*
X0205293Y0135833D01*
X0197793Y0135833D01*
X0197793Y0175833D01*
X0236893Y0179133D02*
X0342893Y0179133D01*
X0342893Y0207133D01*
X0236893Y0207133D01*
X0236893Y0194333D01*
X0236893Y0191933D01*
X0236893Y0179133D01*
X0242893Y0179133D02*
X0242893Y0176133D01*
X0246893Y0176133D01*
X0246893Y0179133D01*
X0242893Y0179133D01*
X0252893Y0179133D02*
X0252893Y0176133D01*
X0256893Y0176133D01*
X0256893Y0179133D01*
X0252893Y0179133D01*
X0262893Y0179133D02*
X0262893Y0176133D01*
X0266893Y0176133D01*
X0266893Y0179133D01*
X0262893Y0179133D01*
X0272893Y0179133D02*
X0272893Y0176133D01*
X0276893Y0176133D01*
X0276893Y0179133D01*
X0272893Y0179133D01*
X0282893Y0179133D02*
X0282893Y0176133D01*
X0286893Y0176133D01*
X0286893Y0179133D01*
X0282893Y0179133D01*
X0292893Y0179133D02*
X0292893Y0176133D01*
X0296893Y0176133D01*
X0296893Y0179133D01*
X0292893Y0179133D01*
X0302893Y0179133D02*
X0302893Y0176133D01*
X0306893Y0176133D01*
X0306893Y0179133D01*
X0302893Y0179133D01*
X0312893Y0179133D02*
X0312893Y0176133D01*
X0316893Y0176133D01*
X0316893Y0179133D01*
X0312893Y0179133D01*
X0322893Y0179133D02*
X0322893Y0176133D01*
X0326893Y0176233D01*
X0326893Y0179133D01*
X0322893Y0179133D01*
X0332893Y0179133D02*
X0332993Y0176233D01*
X0336893Y0176233D01*
X0336893Y0179133D01*
X0332893Y0179133D01*
X0346193Y0162633D02*
X0373193Y0162633D01*
X0373253Y0162631D01*
X0373314Y0162626D01*
X0373373Y0162617D01*
X0373432Y0162604D01*
X0373491Y0162588D01*
X0373548Y0162568D01*
X0373603Y0162545D01*
X0373658Y0162518D01*
X0373710Y0162489D01*
X0373761Y0162456D01*
X0373810Y0162420D01*
X0373856Y0162382D01*
X0373900Y0162340D01*
X0373942Y0162296D01*
X0373980Y0162250D01*
X0374016Y0162201D01*
X0374049Y0162150D01*
X0374078Y0162098D01*
X0374105Y0162043D01*
X0374128Y0161988D01*
X0374148Y0161931D01*
X0374164Y0161872D01*
X0374177Y0161813D01*
X0374186Y0161754D01*
X0374191Y0161693D01*
X0374193Y0161633D01*
X0374193Y0153633D01*
X0374191Y0153573D01*
X0374186Y0153512D01*
X0374177Y0153453D01*
X0374164Y0153394D01*
X0374148Y0153335D01*
X0374128Y0153278D01*
X0374105Y0153223D01*
X0374078Y0153168D01*
X0374049Y0153116D01*
X0374016Y0153065D01*
X0373980Y0153016D01*
X0373942Y0152970D01*
X0373900Y0152926D01*
X0373856Y0152884D01*
X0373810Y0152846D01*
X0373761Y0152810D01*
X0373710Y0152777D01*
X0373658Y0152748D01*
X0373603Y0152721D01*
X0373548Y0152698D01*
X0373491Y0152678D01*
X0373432Y0152662D01*
X0373373Y0152649D01*
X0373314Y0152640D01*
X0373253Y0152635D01*
X0373193Y0152633D01*
X0346193Y0152633D01*
X0346133Y0152635D01*
X0346072Y0152640D01*
X0346013Y0152649D01*
X0345954Y0152662D01*
X0345895Y0152678D01*
X0345838Y0152698D01*
X0345783Y0152721D01*
X0345728Y0152748D01*
X0345676Y0152777D01*
X0345625Y0152810D01*
X0345576Y0152846D01*
X0345530Y0152884D01*
X0345486Y0152926D01*
X0345444Y0152970D01*
X0345406Y0153016D01*
X0345370Y0153065D01*
X0345337Y0153116D01*
X0345308Y0153168D01*
X0345281Y0153223D01*
X0345258Y0153278D01*
X0345238Y0153335D01*
X0345222Y0153394D01*
X0345209Y0153453D01*
X0345200Y0153512D01*
X0345195Y0153573D01*
X0345193Y0153633D01*
X0345193Y0161633D01*
X0345195Y0161693D01*
X0345200Y0161754D01*
X0345209Y0161813D01*
X0345222Y0161872D01*
X0345238Y0161931D01*
X0345258Y0161988D01*
X0345281Y0162043D01*
X0345308Y0162098D01*
X0345337Y0162150D01*
X0345370Y0162201D01*
X0345406Y0162250D01*
X0345444Y0162296D01*
X0345486Y0162340D01*
X0345530Y0162382D01*
X0345576Y0162420D01*
X0345625Y0162456D01*
X0345676Y0162489D01*
X0345728Y0162518D01*
X0345783Y0162545D01*
X0345838Y0162568D01*
X0345895Y0162588D01*
X0345954Y0162604D01*
X0346013Y0162617D01*
X0346072Y0162626D01*
X0346133Y0162631D01*
X0346193Y0162633D01*
X0353693Y0157633D02*
X0358493Y0157633D01*
X0360993Y0157633D02*
X0365693Y0157633D01*
X0410893Y0131433D02*
X0410895Y0131574D01*
X0410901Y0131715D01*
X0410911Y0131855D01*
X0410925Y0131995D01*
X0410943Y0132135D01*
X0410964Y0132274D01*
X0410990Y0132413D01*
X0411019Y0132551D01*
X0411053Y0132687D01*
X0411090Y0132823D01*
X0411131Y0132958D01*
X0411176Y0133092D01*
X0411225Y0133224D01*
X0411277Y0133355D01*
X0411333Y0133484D01*
X0411393Y0133611D01*
X0411456Y0133737D01*
X0411522Y0133861D01*
X0411593Y0133984D01*
X0411666Y0134104D01*
X0411743Y0134222D01*
X0411823Y0134338D01*
X0411907Y0134451D01*
X0411993Y0134562D01*
X0412083Y0134671D01*
X0412176Y0134777D01*
X0412271Y0134880D01*
X0412370Y0134981D01*
X0412471Y0135079D01*
X0412575Y0135174D01*
X0412682Y0135266D01*
X0412791Y0135355D01*
X0412903Y0135440D01*
X0413017Y0135523D01*
X0413133Y0135603D01*
X0413252Y0135679D01*
X0413373Y0135751D01*
X0413495Y0135821D01*
X0413620Y0135886D01*
X0413746Y0135949D01*
X0413874Y0136007D01*
X0414004Y0136062D01*
X0414135Y0136114D01*
X0414268Y0136161D01*
X0414402Y0136205D01*
X0414537Y0136246D01*
X0414673Y0136282D01*
X0414810Y0136314D01*
X0414948Y0136343D01*
X0415086Y0136368D01*
X0415226Y0136388D01*
X0415366Y0136405D01*
X0415506Y0136418D01*
X0415647Y0136427D01*
X0415787Y0136432D01*
X0415928Y0136433D01*
X0416069Y0136430D01*
X0416210Y0136423D01*
X0416350Y0136412D01*
X0416490Y0136397D01*
X0416630Y0136378D01*
X0416769Y0136356D01*
X0416907Y0136329D01*
X0417045Y0136299D01*
X0417181Y0136264D01*
X0417317Y0136226D01*
X0417451Y0136184D01*
X0417585Y0136138D01*
X0417717Y0136089D01*
X0417847Y0136035D01*
X0417976Y0135978D01*
X0418103Y0135918D01*
X0418229Y0135854D01*
X0418352Y0135786D01*
X0418474Y0135715D01*
X0418594Y0135641D01*
X0418711Y0135563D01*
X0418826Y0135482D01*
X0418939Y0135398D01*
X0419050Y0135311D01*
X0419158Y0135220D01*
X0419263Y0135127D01*
X0419366Y0135030D01*
X0419466Y0134931D01*
X0419563Y0134829D01*
X0419657Y0134724D01*
X0419748Y0134617D01*
X0419836Y0134507D01*
X0419921Y0134395D01*
X0420003Y0134280D01*
X0420082Y0134163D01*
X0420157Y0134044D01*
X0420229Y0133923D01*
X0420297Y0133800D01*
X0420362Y0133675D01*
X0420424Y0133548D01*
X0420481Y0133419D01*
X0420536Y0133289D01*
X0420586Y0133158D01*
X0420633Y0133025D01*
X0420676Y0132891D01*
X0420715Y0132755D01*
X0420750Y0132619D01*
X0420782Y0132482D01*
X0420809Y0132344D01*
X0420833Y0132205D01*
X0420853Y0132065D01*
X0420869Y0131925D01*
X0420881Y0131785D01*
X0420889Y0131644D01*
X0420893Y0131503D01*
X0420893Y0131363D01*
X0420889Y0131222D01*
X0420881Y0131081D01*
X0420869Y0130941D01*
X0420853Y0130801D01*
X0420833Y0130661D01*
X0420809Y0130522D01*
X0420782Y0130384D01*
X0420750Y0130247D01*
X0420715Y0130111D01*
X0420676Y0129975D01*
X0420633Y0129841D01*
X0420586Y0129708D01*
X0420536Y0129577D01*
X0420481Y0129447D01*
X0420424Y0129318D01*
X0420362Y0129191D01*
X0420297Y0129066D01*
X0420229Y0128943D01*
X0420157Y0128822D01*
X0420082Y0128703D01*
X0420003Y0128586D01*
X0419921Y0128471D01*
X0419836Y0128359D01*
X0419748Y0128249D01*
X0419657Y0128142D01*
X0419563Y0128037D01*
X0419466Y0127935D01*
X0419366Y0127836D01*
X0419263Y0127739D01*
X0419158Y0127646D01*
X0419050Y0127555D01*
X0418939Y0127468D01*
X0418826Y0127384D01*
X0418711Y0127303D01*
X0418594Y0127225D01*
X0418474Y0127151D01*
X0418352Y0127080D01*
X0418229Y0127012D01*
X0418103Y0126948D01*
X0417976Y0126888D01*
X0417847Y0126831D01*
X0417717Y0126777D01*
X0417585Y0126728D01*
X0417451Y0126682D01*
X0417317Y0126640D01*
X0417181Y0126602D01*
X0417045Y0126567D01*
X0416907Y0126537D01*
X0416769Y0126510D01*
X0416630Y0126488D01*
X0416490Y0126469D01*
X0416350Y0126454D01*
X0416210Y0126443D01*
X0416069Y0126436D01*
X0415928Y0126433D01*
X0415787Y0126434D01*
X0415647Y0126439D01*
X0415506Y0126448D01*
X0415366Y0126461D01*
X0415226Y0126478D01*
X0415086Y0126498D01*
X0414948Y0126523D01*
X0414810Y0126552D01*
X0414673Y0126584D01*
X0414537Y0126620D01*
X0414402Y0126661D01*
X0414268Y0126705D01*
X0414135Y0126752D01*
X0414004Y0126804D01*
X0413874Y0126859D01*
X0413746Y0126917D01*
X0413620Y0126980D01*
X0413495Y0127045D01*
X0413373Y0127115D01*
X0413252Y0127187D01*
X0413133Y0127263D01*
X0413017Y0127343D01*
X0412903Y0127426D01*
X0412791Y0127511D01*
X0412682Y0127600D01*
X0412575Y0127692D01*
X0412471Y0127787D01*
X0412370Y0127885D01*
X0412271Y0127986D01*
X0412176Y0128089D01*
X0412083Y0128195D01*
X0411993Y0128304D01*
X0411907Y0128415D01*
X0411823Y0128528D01*
X0411743Y0128644D01*
X0411666Y0128762D01*
X0411593Y0128882D01*
X0411522Y0129005D01*
X0411456Y0129129D01*
X0411393Y0129255D01*
X0411333Y0129382D01*
X0411277Y0129511D01*
X0411225Y0129642D01*
X0411176Y0129774D01*
X0411131Y0129908D01*
X0411090Y0130043D01*
X0411053Y0130179D01*
X0411019Y0130315D01*
X0410990Y0130453D01*
X0410964Y0130592D01*
X0410943Y0130731D01*
X0410925Y0130871D01*
X0410911Y0131011D01*
X0410901Y0131151D01*
X0410895Y0131292D01*
X0410893Y0131433D01*
X0388393Y0131433D02*
X0388401Y0132108D01*
X0388426Y0132782D01*
X0388468Y0133456D01*
X0388525Y0134128D01*
X0388600Y0134799D01*
X0388691Y0135468D01*
X0388798Y0136134D01*
X0388921Y0136798D01*
X0389061Y0137458D01*
X0389217Y0138115D01*
X0389389Y0138768D01*
X0389577Y0139416D01*
X0389781Y0140059D01*
X0390001Y0140697D01*
X0390236Y0141330D01*
X0390486Y0141957D01*
X0390752Y0142577D01*
X0391033Y0143191D01*
X0391329Y0143797D01*
X0391640Y0144396D01*
X0391966Y0144988D01*
X0392305Y0145571D01*
X0392660Y0146145D01*
X0393028Y0146711D01*
X0393409Y0147268D01*
X0393805Y0147815D01*
X0394213Y0148352D01*
X0394635Y0148879D01*
X0395070Y0149395D01*
X0395517Y0149901D01*
X0395976Y0150395D01*
X0396448Y0150878D01*
X0396931Y0151350D01*
X0397425Y0151809D01*
X0397931Y0152256D01*
X0398447Y0152691D01*
X0398974Y0153113D01*
X0399511Y0153521D01*
X0400058Y0153917D01*
X0400615Y0154298D01*
X0401181Y0154666D01*
X0401755Y0155021D01*
X0402338Y0155360D01*
X0402930Y0155686D01*
X0403529Y0155997D01*
X0404135Y0156293D01*
X0404749Y0156574D01*
X0405369Y0156840D01*
X0405996Y0157090D01*
X0406629Y0157325D01*
X0407267Y0157545D01*
X0407910Y0157749D01*
X0408558Y0157937D01*
X0409211Y0158109D01*
X0409868Y0158265D01*
X0410528Y0158405D01*
X0411192Y0158528D01*
X0411858Y0158635D01*
X0412527Y0158726D01*
X0413198Y0158801D01*
X0413870Y0158858D01*
X0414544Y0158900D01*
X0415218Y0158925D01*
X0415893Y0158933D01*
X0416568Y0158925D01*
X0417242Y0158900D01*
X0417916Y0158858D01*
X0418588Y0158801D01*
X0419259Y0158726D01*
X0419928Y0158635D01*
X0420594Y0158528D01*
X0421258Y0158405D01*
X0421918Y0158265D01*
X0422575Y0158109D01*
X0423228Y0157937D01*
X0423876Y0157749D01*
X0424519Y0157545D01*
X0425157Y0157325D01*
X0425790Y0157090D01*
X0426417Y0156840D01*
X0427037Y0156574D01*
X0427651Y0156293D01*
X0428257Y0155997D01*
X0428856Y0155686D01*
X0429448Y0155360D01*
X0430031Y0155021D01*
X0430605Y0154666D01*
X0431171Y0154298D01*
X0431728Y0153917D01*
X0432275Y0153521D01*
X0432812Y0153113D01*
X0433339Y0152691D01*
X0433855Y0152256D01*
X0434361Y0151809D01*
X0434855Y0151350D01*
X0435338Y0150878D01*
X0435810Y0150395D01*
X0436269Y0149901D01*
X0436716Y0149395D01*
X0437151Y0148879D01*
X0437573Y0148352D01*
X0437981Y0147815D01*
X0438377Y0147268D01*
X0438758Y0146711D01*
X0439126Y0146145D01*
X0439481Y0145571D01*
X0439820Y0144988D01*
X0440146Y0144396D01*
X0440457Y0143797D01*
X0440753Y0143191D01*
X0441034Y0142577D01*
X0441300Y0141957D01*
X0441550Y0141330D01*
X0441785Y0140697D01*
X0442005Y0140059D01*
X0442209Y0139416D01*
X0442397Y0138768D01*
X0442569Y0138115D01*
X0442725Y0137458D01*
X0442865Y0136798D01*
X0442988Y0136134D01*
X0443095Y0135468D01*
X0443186Y0134799D01*
X0443261Y0134128D01*
X0443318Y0133456D01*
X0443360Y0132782D01*
X0443385Y0132108D01*
X0443393Y0131433D01*
X0443385Y0130758D01*
X0443360Y0130084D01*
X0443318Y0129410D01*
X0443261Y0128738D01*
X0443186Y0128067D01*
X0443095Y0127398D01*
X0442988Y0126732D01*
X0442865Y0126068D01*
X0442725Y0125408D01*
X0442569Y0124751D01*
X0442397Y0124098D01*
X0442209Y0123450D01*
X0442005Y0122807D01*
X0441785Y0122169D01*
X0441550Y0121536D01*
X0441300Y0120909D01*
X0441034Y0120289D01*
X0440753Y0119675D01*
X0440457Y0119069D01*
X0440146Y0118470D01*
X0439820Y0117878D01*
X0439481Y0117295D01*
X0439126Y0116721D01*
X0438758Y0116155D01*
X0438377Y0115598D01*
X0437981Y0115051D01*
X0437573Y0114514D01*
X0437151Y0113987D01*
X0436716Y0113471D01*
X0436269Y0112965D01*
X0435810Y0112471D01*
X0435338Y0111988D01*
X0434855Y0111516D01*
X0434361Y0111057D01*
X0433855Y0110610D01*
X0433339Y0110175D01*
X0432812Y0109753D01*
X0432275Y0109345D01*
X0431728Y0108949D01*
X0431171Y0108568D01*
X0430605Y0108200D01*
X0430031Y0107845D01*
X0429448Y0107506D01*
X0428856Y0107180D01*
X0428257Y0106869D01*
X0427651Y0106573D01*
X0427037Y0106292D01*
X0426417Y0106026D01*
X0425790Y0105776D01*
X0425157Y0105541D01*
X0424519Y0105321D01*
X0423876Y0105117D01*
X0423228Y0104929D01*
X0422575Y0104757D01*
X0421918Y0104601D01*
X0421258Y0104461D01*
X0420594Y0104338D01*
X0419928Y0104231D01*
X0419259Y0104140D01*
X0418588Y0104065D01*
X0417916Y0104008D01*
X0417242Y0103966D01*
X0416568Y0103941D01*
X0415893Y0103933D01*
X0415218Y0103941D01*
X0414544Y0103966D01*
X0413870Y0104008D01*
X0413198Y0104065D01*
X0412527Y0104140D01*
X0411858Y0104231D01*
X0411192Y0104338D01*
X0410528Y0104461D01*
X0409868Y0104601D01*
X0409211Y0104757D01*
X0408558Y0104929D01*
X0407910Y0105117D01*
X0407267Y0105321D01*
X0406629Y0105541D01*
X0405996Y0105776D01*
X0405369Y0106026D01*
X0404749Y0106292D01*
X0404135Y0106573D01*
X0403529Y0106869D01*
X0402930Y0107180D01*
X0402338Y0107506D01*
X0401755Y0107845D01*
X0401181Y0108200D01*
X0400615Y0108568D01*
X0400058Y0108949D01*
X0399511Y0109345D01*
X0398974Y0109753D01*
X0398447Y0110175D01*
X0397931Y0110610D01*
X0397425Y0111057D01*
X0396931Y0111516D01*
X0396448Y0111988D01*
X0395976Y0112471D01*
X0395517Y0112965D01*
X0395070Y0113471D01*
X0394635Y0113987D01*
X0394213Y0114514D01*
X0393805Y0115051D01*
X0393409Y0115598D01*
X0393028Y0116155D01*
X0392660Y0116721D01*
X0392305Y0117295D01*
X0391966Y0117878D01*
X0391640Y0118470D01*
X0391329Y0119069D01*
X0391033Y0119675D01*
X0390752Y0120289D01*
X0390486Y0120909D01*
X0390236Y0121536D01*
X0390001Y0122169D01*
X0389781Y0122807D01*
X0389577Y0123450D01*
X0389389Y0124098D01*
X0389217Y0124751D01*
X0389061Y0125408D01*
X0388921Y0126068D01*
X0388798Y0126732D01*
X0388691Y0127398D01*
X0388600Y0128067D01*
X0388525Y0128738D01*
X0388468Y0129410D01*
X0388426Y0130084D01*
X0388401Y0130758D01*
X0388393Y0131433D01*
X0395893Y0119433D02*
X0395895Y0119574D01*
X0395901Y0119715D01*
X0395911Y0119855D01*
X0395925Y0119995D01*
X0395943Y0120135D01*
X0395964Y0120274D01*
X0395990Y0120413D01*
X0396019Y0120551D01*
X0396053Y0120687D01*
X0396090Y0120823D01*
X0396131Y0120958D01*
X0396176Y0121092D01*
X0396225Y0121224D01*
X0396277Y0121355D01*
X0396333Y0121484D01*
X0396393Y0121611D01*
X0396456Y0121737D01*
X0396522Y0121861D01*
X0396593Y0121984D01*
X0396666Y0122104D01*
X0396743Y0122222D01*
X0396823Y0122338D01*
X0396907Y0122451D01*
X0396993Y0122562D01*
X0397083Y0122671D01*
X0397176Y0122777D01*
X0397271Y0122880D01*
X0397370Y0122981D01*
X0397471Y0123079D01*
X0397575Y0123174D01*
X0397682Y0123266D01*
X0397791Y0123355D01*
X0397903Y0123440D01*
X0398017Y0123523D01*
X0398133Y0123603D01*
X0398252Y0123679D01*
X0398373Y0123751D01*
X0398495Y0123821D01*
X0398620Y0123886D01*
X0398746Y0123949D01*
X0398874Y0124007D01*
X0399004Y0124062D01*
X0399135Y0124114D01*
X0399268Y0124161D01*
X0399402Y0124205D01*
X0399537Y0124246D01*
X0399673Y0124282D01*
X0399810Y0124314D01*
X0399948Y0124343D01*
X0400086Y0124368D01*
X0400226Y0124388D01*
X0400366Y0124405D01*
X0400506Y0124418D01*
X0400647Y0124427D01*
X0400787Y0124432D01*
X0400928Y0124433D01*
X0401069Y0124430D01*
X0401210Y0124423D01*
X0401350Y0124412D01*
X0401490Y0124397D01*
X0401630Y0124378D01*
X0401769Y0124356D01*
X0401907Y0124329D01*
X0402045Y0124299D01*
X0402181Y0124264D01*
X0402317Y0124226D01*
X0402451Y0124184D01*
X0402585Y0124138D01*
X0402717Y0124089D01*
X0402847Y0124035D01*
X0402976Y0123978D01*
X0403103Y0123918D01*
X0403229Y0123854D01*
X0403352Y0123786D01*
X0403474Y0123715D01*
X0403594Y0123641D01*
X0403711Y0123563D01*
X0403826Y0123482D01*
X0403939Y0123398D01*
X0404050Y0123311D01*
X0404158Y0123220D01*
X0404263Y0123127D01*
X0404366Y0123030D01*
X0404466Y0122931D01*
X0404563Y0122829D01*
X0404657Y0122724D01*
X0404748Y0122617D01*
X0404836Y0122507D01*
X0404921Y0122395D01*
X0405003Y0122280D01*
X0405082Y0122163D01*
X0405157Y0122044D01*
X0405229Y0121923D01*
X0405297Y0121800D01*
X0405362Y0121675D01*
X0405424Y0121548D01*
X0405481Y0121419D01*
X0405536Y0121289D01*
X0405586Y0121158D01*
X0405633Y0121025D01*
X0405676Y0120891D01*
X0405715Y0120755D01*
X0405750Y0120619D01*
X0405782Y0120482D01*
X0405809Y0120344D01*
X0405833Y0120205D01*
X0405853Y0120065D01*
X0405869Y0119925D01*
X0405881Y0119785D01*
X0405889Y0119644D01*
X0405893Y0119503D01*
X0405893Y0119363D01*
X0405889Y0119222D01*
X0405881Y0119081D01*
X0405869Y0118941D01*
X0405853Y0118801D01*
X0405833Y0118661D01*
X0405809Y0118522D01*
X0405782Y0118384D01*
X0405750Y0118247D01*
X0405715Y0118111D01*
X0405676Y0117975D01*
X0405633Y0117841D01*
X0405586Y0117708D01*
X0405536Y0117577D01*
X0405481Y0117447D01*
X0405424Y0117318D01*
X0405362Y0117191D01*
X0405297Y0117066D01*
X0405229Y0116943D01*
X0405157Y0116822D01*
X0405082Y0116703D01*
X0405003Y0116586D01*
X0404921Y0116471D01*
X0404836Y0116359D01*
X0404748Y0116249D01*
X0404657Y0116142D01*
X0404563Y0116037D01*
X0404466Y0115935D01*
X0404366Y0115836D01*
X0404263Y0115739D01*
X0404158Y0115646D01*
X0404050Y0115555D01*
X0403939Y0115468D01*
X0403826Y0115384D01*
X0403711Y0115303D01*
X0403594Y0115225D01*
X0403474Y0115151D01*
X0403352Y0115080D01*
X0403229Y0115012D01*
X0403103Y0114948D01*
X0402976Y0114888D01*
X0402847Y0114831D01*
X0402717Y0114777D01*
X0402585Y0114728D01*
X0402451Y0114682D01*
X0402317Y0114640D01*
X0402181Y0114602D01*
X0402045Y0114567D01*
X0401907Y0114537D01*
X0401769Y0114510D01*
X0401630Y0114488D01*
X0401490Y0114469D01*
X0401350Y0114454D01*
X0401210Y0114443D01*
X0401069Y0114436D01*
X0400928Y0114433D01*
X0400787Y0114434D01*
X0400647Y0114439D01*
X0400506Y0114448D01*
X0400366Y0114461D01*
X0400226Y0114478D01*
X0400086Y0114498D01*
X0399948Y0114523D01*
X0399810Y0114552D01*
X0399673Y0114584D01*
X0399537Y0114620D01*
X0399402Y0114661D01*
X0399268Y0114705D01*
X0399135Y0114752D01*
X0399004Y0114804D01*
X0398874Y0114859D01*
X0398746Y0114917D01*
X0398620Y0114980D01*
X0398495Y0115045D01*
X0398373Y0115115D01*
X0398252Y0115187D01*
X0398133Y0115263D01*
X0398017Y0115343D01*
X0397903Y0115426D01*
X0397791Y0115511D01*
X0397682Y0115600D01*
X0397575Y0115692D01*
X0397471Y0115787D01*
X0397370Y0115885D01*
X0397271Y0115986D01*
X0397176Y0116089D01*
X0397083Y0116195D01*
X0396993Y0116304D01*
X0396907Y0116415D01*
X0396823Y0116528D01*
X0396743Y0116644D01*
X0396666Y0116762D01*
X0396593Y0116882D01*
X0396522Y0117005D01*
X0396456Y0117129D01*
X0396393Y0117255D01*
X0396333Y0117382D01*
X0396277Y0117511D01*
X0396225Y0117642D01*
X0396176Y0117774D01*
X0396131Y0117908D01*
X0396090Y0118043D01*
X0396053Y0118179D01*
X0396019Y0118315D01*
X0395990Y0118453D01*
X0395964Y0118592D01*
X0395943Y0118731D01*
X0395925Y0118871D01*
X0395911Y0119011D01*
X0395901Y0119151D01*
X0395895Y0119292D01*
X0395893Y0119433D01*
X0285406Y0150569D02*
X0280456Y0145619D01*
X0280412Y0145577D01*
X0280366Y0145539D01*
X0280317Y0145503D01*
X0280266Y0145470D01*
X0280214Y0145441D01*
X0280159Y0145414D01*
X0280104Y0145391D01*
X0280047Y0145371D01*
X0279988Y0145355D01*
X0279929Y0145342D01*
X0279870Y0145333D01*
X0279809Y0145328D01*
X0279749Y0145326D01*
X0279689Y0145328D01*
X0279628Y0145333D01*
X0279569Y0145342D01*
X0279510Y0145355D01*
X0279451Y0145371D01*
X0279394Y0145391D01*
X0279339Y0145414D01*
X0279284Y0145441D01*
X0279232Y0145470D01*
X0279181Y0145503D01*
X0279132Y0145539D01*
X0279086Y0145577D01*
X0279042Y0145619D01*
X0277982Y0146680D01*
X0277982Y0147387D01*
X0265448Y0159921D01*
X0264741Y0159921D01*
X0263680Y0160981D01*
X0263638Y0161025D01*
X0263600Y0161071D01*
X0263564Y0161120D01*
X0263531Y0161171D01*
X0263502Y0161223D01*
X0263475Y0161278D01*
X0263452Y0161333D01*
X0263432Y0161390D01*
X0263416Y0161449D01*
X0263403Y0161508D01*
X0263394Y0161567D01*
X0263389Y0161628D01*
X0263387Y0161688D01*
X0263389Y0161748D01*
X0263394Y0161809D01*
X0263403Y0161868D01*
X0263416Y0161927D01*
X0263432Y0161986D01*
X0263452Y0162043D01*
X0263475Y0162098D01*
X0263502Y0162153D01*
X0263531Y0162205D01*
X0263564Y0162256D01*
X0263600Y0162305D01*
X0263638Y0162351D01*
X0263680Y0162395D01*
X0268630Y0167345D01*
X0268674Y0167387D01*
X0268720Y0167425D01*
X0268769Y0167461D01*
X0268820Y0167494D01*
X0268872Y0167523D01*
X0268927Y0167550D01*
X0268982Y0167573D01*
X0269039Y0167593D01*
X0269098Y0167609D01*
X0269157Y0167622D01*
X0269216Y0167631D01*
X0269277Y0167636D01*
X0269337Y0167638D01*
X0269397Y0167636D01*
X0269458Y0167631D01*
X0269517Y0167622D01*
X0269576Y0167609D01*
X0269635Y0167593D01*
X0269692Y0167573D01*
X0269747Y0167550D01*
X0269802Y0167523D01*
X0269854Y0167494D01*
X0269905Y0167461D01*
X0269954Y0167425D01*
X0270000Y0167387D01*
X0270044Y0167345D01*
X0271105Y0166285D01*
X0271105Y0165577D01*
X0283638Y0153044D01*
X0284346Y0153044D01*
X0285406Y0151983D01*
X0285448Y0151939D01*
X0285486Y0151893D01*
X0285522Y0151844D01*
X0285555Y0151793D01*
X0285584Y0151741D01*
X0285611Y0151686D01*
X0285634Y0151631D01*
X0285654Y0151574D01*
X0285670Y0151515D01*
X0285683Y0151456D01*
X0285692Y0151397D01*
X0285697Y0151336D01*
X0285699Y0151276D01*
X0285697Y0151216D01*
X0285692Y0151155D01*
X0285683Y0151096D01*
X0285670Y0151037D01*
X0285654Y0150978D01*
X0285634Y0150921D01*
X0285611Y0150866D01*
X0285584Y0150811D01*
X0285555Y0150759D01*
X0285522Y0150708D01*
X0285486Y0150659D01*
X0285448Y0150613D01*
X0285406Y0150569D01*
X0274893Y0134133D02*
X0267893Y0134133D01*
X0267833Y0134131D01*
X0267772Y0134126D01*
X0267713Y0134117D01*
X0267654Y0134104D01*
X0267595Y0134088D01*
X0267538Y0134068D01*
X0267483Y0134045D01*
X0267428Y0134018D01*
X0267376Y0133989D01*
X0267325Y0133956D01*
X0267276Y0133920D01*
X0267230Y0133882D01*
X0267186Y0133840D01*
X0267144Y0133796D01*
X0267106Y0133750D01*
X0267070Y0133701D01*
X0267037Y0133650D01*
X0267008Y0133598D01*
X0266981Y0133543D01*
X0266958Y0133488D01*
X0266938Y0133431D01*
X0266922Y0133372D01*
X0266909Y0133313D01*
X0266900Y0133254D01*
X0266895Y0133193D01*
X0266893Y0133133D01*
X0266893Y0131633D01*
X0267393Y0131133D01*
X0267393Y0113408D01*
X0266893Y0112908D01*
X0266893Y0111408D01*
X0266895Y0111348D01*
X0266900Y0111287D01*
X0266909Y0111228D01*
X0266922Y0111169D01*
X0266938Y0111110D01*
X0266958Y0111053D01*
X0266981Y0110998D01*
X0267008Y0110943D01*
X0267037Y0110891D01*
X0267070Y0110840D01*
X0267106Y0110791D01*
X0267144Y0110745D01*
X0267186Y0110701D01*
X0267230Y0110659D01*
X0267276Y0110621D01*
X0267325Y0110585D01*
X0267376Y0110552D01*
X0267428Y0110523D01*
X0267483Y0110496D01*
X0267538Y0110473D01*
X0267595Y0110453D01*
X0267654Y0110437D01*
X0267713Y0110424D01*
X0267772Y0110415D01*
X0267833Y0110410D01*
X0267893Y0110408D01*
X0274893Y0110408D01*
X0274953Y0110410D01*
X0275014Y0110415D01*
X0275073Y0110424D01*
X0275132Y0110437D01*
X0275191Y0110453D01*
X0275248Y0110473D01*
X0275303Y0110496D01*
X0275358Y0110523D01*
X0275410Y0110552D01*
X0275461Y0110585D01*
X0275510Y0110621D01*
X0275556Y0110659D01*
X0275600Y0110701D01*
X0275642Y0110745D01*
X0275680Y0110791D01*
X0275716Y0110840D01*
X0275749Y0110891D01*
X0275778Y0110943D01*
X0275805Y0110998D01*
X0275828Y0111053D01*
X0275848Y0111110D01*
X0275864Y0111169D01*
X0275877Y0111228D01*
X0275886Y0111287D01*
X0275891Y0111348D01*
X0275893Y0111408D01*
X0275893Y0112908D01*
X0275393Y0113408D01*
X0275393Y0131133D01*
X0275893Y0131633D01*
X0275893Y0133133D01*
X0275891Y0133193D01*
X0275886Y0133254D01*
X0275877Y0133313D01*
X0275864Y0133372D01*
X0275848Y0133431D01*
X0275828Y0133488D01*
X0275805Y0133543D01*
X0275778Y0133598D01*
X0275749Y0133650D01*
X0275716Y0133701D01*
X0275680Y0133750D01*
X0275642Y0133796D01*
X0275600Y0133840D01*
X0275556Y0133882D01*
X0275510Y0133920D01*
X0275461Y0133956D01*
X0275410Y0133989D01*
X0275358Y0134018D01*
X0275303Y0134045D01*
X0275248Y0134068D01*
X0275191Y0134088D01*
X0275132Y0134104D01*
X0275073Y0134117D01*
X0275014Y0134126D01*
X0274953Y0134131D01*
X0274893Y0134133D01*
X0272893Y0207133D02*
X0276893Y0207133D01*
X0276893Y0210033D01*
X0272893Y0210033D01*
X0272893Y0207133D01*
X0266893Y0207133D02*
X0266893Y0210033D01*
X0262893Y0210033D01*
X0262893Y0207133D01*
X0266893Y0207133D01*
X0256893Y0207133D02*
X0256893Y0210033D01*
X0252893Y0210033D01*
X0252893Y0207133D01*
X0256893Y0207133D01*
X0246893Y0207133D02*
X0246893Y0210033D01*
X0242893Y0210033D01*
X0242893Y0207133D01*
X0246893Y0207133D01*
X0256093Y0216533D02*
X0229093Y0216533D01*
X0229033Y0216535D01*
X0228972Y0216540D01*
X0228913Y0216549D01*
X0228854Y0216562D01*
X0228795Y0216578D01*
X0228738Y0216598D01*
X0228683Y0216621D01*
X0228628Y0216648D01*
X0228576Y0216677D01*
X0228525Y0216710D01*
X0228476Y0216746D01*
X0228430Y0216784D01*
X0228386Y0216826D01*
X0228344Y0216870D01*
X0228306Y0216916D01*
X0228270Y0216965D01*
X0228237Y0217016D01*
X0228208Y0217068D01*
X0228181Y0217123D01*
X0228158Y0217178D01*
X0228138Y0217235D01*
X0228122Y0217294D01*
X0228109Y0217353D01*
X0228100Y0217412D01*
X0228095Y0217473D01*
X0228093Y0217533D01*
X0228093Y0225533D01*
X0228095Y0225593D01*
X0228100Y0225654D01*
X0228109Y0225713D01*
X0228122Y0225772D01*
X0228138Y0225831D01*
X0228158Y0225888D01*
X0228181Y0225943D01*
X0228208Y0225998D01*
X0228237Y0226050D01*
X0228270Y0226101D01*
X0228306Y0226150D01*
X0228344Y0226196D01*
X0228386Y0226240D01*
X0228430Y0226282D01*
X0228476Y0226320D01*
X0228525Y0226356D01*
X0228576Y0226389D01*
X0228628Y0226418D01*
X0228683Y0226445D01*
X0228738Y0226468D01*
X0228795Y0226488D01*
X0228854Y0226504D01*
X0228913Y0226517D01*
X0228972Y0226526D01*
X0229033Y0226531D01*
X0229093Y0226533D01*
X0256093Y0226533D01*
X0256153Y0226531D01*
X0256214Y0226526D01*
X0256273Y0226517D01*
X0256332Y0226504D01*
X0256391Y0226488D01*
X0256448Y0226468D01*
X0256503Y0226445D01*
X0256558Y0226418D01*
X0256610Y0226389D01*
X0256661Y0226356D01*
X0256710Y0226320D01*
X0256756Y0226282D01*
X0256800Y0226240D01*
X0256842Y0226196D01*
X0256880Y0226150D01*
X0256916Y0226101D01*
X0256949Y0226050D01*
X0256978Y0225998D01*
X0257005Y0225943D01*
X0257028Y0225888D01*
X0257048Y0225831D01*
X0257064Y0225772D01*
X0257077Y0225713D01*
X0257086Y0225654D01*
X0257091Y0225593D01*
X0257093Y0225533D01*
X0257093Y0217533D01*
X0257091Y0217473D01*
X0257086Y0217412D01*
X0257077Y0217353D01*
X0257064Y0217294D01*
X0257048Y0217235D01*
X0257028Y0217178D01*
X0257005Y0217123D01*
X0256978Y0217068D01*
X0256949Y0217016D01*
X0256916Y0216965D01*
X0256880Y0216916D01*
X0256842Y0216870D01*
X0256800Y0216826D01*
X0256756Y0216784D01*
X0256710Y0216746D01*
X0256661Y0216710D01*
X0256610Y0216677D01*
X0256558Y0216648D01*
X0256503Y0216621D01*
X0256448Y0216598D01*
X0256391Y0216578D01*
X0256332Y0216562D01*
X0256273Y0216549D01*
X0256214Y0216540D01*
X0256153Y0216535D01*
X0256093Y0216533D01*
X0248593Y0221533D02*
X0243893Y0221533D01*
X0241393Y0221533D02*
X0236593Y0221533D01*
X0282893Y0210033D02*
X0282893Y0207133D01*
X0286893Y0207133D01*
X0286893Y0210033D01*
X0282893Y0210033D01*
X0292893Y0210033D02*
X0292893Y0207133D01*
X0296893Y0207133D01*
X0296893Y0210033D01*
X0292893Y0210033D01*
X0302893Y0210033D02*
X0302893Y0207133D01*
X0306893Y0207133D01*
X0306893Y0210033D01*
X0302893Y0210033D01*
X0312893Y0210033D02*
X0312893Y0207133D01*
X0316893Y0207133D01*
X0316893Y0210033D01*
X0312893Y0210033D01*
X0322893Y0210033D02*
X0322893Y0207133D01*
X0326893Y0207133D01*
X0326793Y0210133D01*
X0322893Y0210033D01*
X0332893Y0210133D02*
X0332893Y0207133D01*
X0336893Y0207133D01*
X0336793Y0210133D01*
X0332893Y0210133D01*
X0338193Y0233333D02*
X0311193Y0233333D01*
X0311133Y0233335D01*
X0311072Y0233340D01*
X0311013Y0233349D01*
X0310954Y0233362D01*
X0310895Y0233378D01*
X0310838Y0233398D01*
X0310783Y0233421D01*
X0310728Y0233448D01*
X0310676Y0233477D01*
X0310625Y0233510D01*
X0310576Y0233546D01*
X0310530Y0233584D01*
X0310486Y0233626D01*
X0310444Y0233670D01*
X0310406Y0233716D01*
X0310370Y0233765D01*
X0310337Y0233816D01*
X0310308Y0233868D01*
X0310281Y0233923D01*
X0310258Y0233978D01*
X0310238Y0234035D01*
X0310222Y0234094D01*
X0310209Y0234153D01*
X0310200Y0234212D01*
X0310195Y0234273D01*
X0310193Y0234333D01*
X0310193Y0242333D01*
X0310195Y0242393D01*
X0310200Y0242454D01*
X0310209Y0242513D01*
X0310222Y0242572D01*
X0310238Y0242631D01*
X0310258Y0242688D01*
X0310281Y0242743D01*
X0310308Y0242798D01*
X0310337Y0242850D01*
X0310370Y0242901D01*
X0310406Y0242950D01*
X0310444Y0242996D01*
X0310486Y0243040D01*
X0310530Y0243082D01*
X0310576Y0243120D01*
X0310625Y0243156D01*
X0310676Y0243189D01*
X0310728Y0243218D01*
X0310783Y0243245D01*
X0310838Y0243268D01*
X0310895Y0243288D01*
X0310954Y0243304D01*
X0311013Y0243317D01*
X0311072Y0243326D01*
X0311133Y0243331D01*
X0311193Y0243333D01*
X0338193Y0243333D01*
X0338253Y0243331D01*
X0338314Y0243326D01*
X0338373Y0243317D01*
X0338432Y0243304D01*
X0338491Y0243288D01*
X0338548Y0243268D01*
X0338603Y0243245D01*
X0338658Y0243218D01*
X0338710Y0243189D01*
X0338761Y0243156D01*
X0338810Y0243120D01*
X0338856Y0243082D01*
X0338900Y0243040D01*
X0338942Y0242996D01*
X0338980Y0242950D01*
X0339016Y0242901D01*
X0339049Y0242850D01*
X0339078Y0242798D01*
X0339105Y0242743D01*
X0339128Y0242688D01*
X0339148Y0242631D01*
X0339164Y0242572D01*
X0339177Y0242513D01*
X0339186Y0242454D01*
X0339191Y0242393D01*
X0339193Y0242333D01*
X0339193Y0234333D01*
X0339191Y0234273D01*
X0339186Y0234212D01*
X0339177Y0234153D01*
X0339164Y0234094D01*
X0339148Y0234035D01*
X0339128Y0233978D01*
X0339105Y0233923D01*
X0339078Y0233868D01*
X0339049Y0233816D01*
X0339016Y0233765D01*
X0338980Y0233716D01*
X0338942Y0233670D01*
X0338900Y0233626D01*
X0338856Y0233584D01*
X0338810Y0233546D01*
X0338761Y0233510D01*
X0338710Y0233477D01*
X0338658Y0233448D01*
X0338603Y0233421D01*
X0338548Y0233398D01*
X0338491Y0233378D01*
X0338432Y0233362D01*
X0338373Y0233349D01*
X0338314Y0233340D01*
X0338253Y0233335D01*
X0338193Y0233333D01*
X0330693Y0238333D02*
X0325993Y0238333D01*
X0323493Y0238333D02*
X0318693Y0238333D01*
X0427993Y0238733D02*
X0427993Y0230733D01*
X0428993Y0229733D01*
X0427993Y0228733D01*
X0427993Y0220733D01*
X0428993Y0219733D01*
X0427993Y0218733D01*
X0427993Y0209733D01*
X0437993Y0209733D01*
X0437993Y0218733D01*
X0436993Y0219733D01*
X0437993Y0220733D01*
X0437993Y0228733D01*
X0436993Y0229733D01*
X0437993Y0230733D01*
X0437993Y0238733D01*
X0436993Y0239733D01*
X0437993Y0240733D01*
X0437993Y0248733D01*
X0436993Y0249733D01*
X0437993Y0250733D01*
X0437993Y0259733D01*
X0427993Y0259733D01*
X0427993Y0250733D01*
X0428993Y0249733D01*
X0427993Y0248733D01*
X0427993Y0240733D01*
X0428993Y0239733D01*
X0427993Y0238733D01*
D14*
X0092523Y0080433D02*
X0092523Y0050433D01*
X0102523Y0050433D01*
X0102523Y0080433D01*
X0092523Y0080433D01*
X0092897Y0104283D02*
X0092146Y0105034D01*
X0095149Y0108036D01*
X0095149Y0105034D01*
X0094398Y0104283D01*
X0092897Y0104283D01*
X0092146Y0105034D02*
X0092146Y0108036D01*
X0092897Y0108787D01*
X0094398Y0108787D01*
X0095149Y0108036D01*
X0096750Y0107286D02*
X0096750Y0105034D01*
X0097501Y0104283D01*
X0099753Y0104283D01*
X0099753Y0107286D01*
X0101354Y0106535D02*
X0102856Y0106535D01*
X0101354Y0108787D02*
X0104357Y0108787D01*
X0101354Y0108787D02*
X0101354Y0104283D01*
X0090545Y0104283D02*
X0087543Y0104283D01*
X0089044Y0104283D02*
X0089044Y0108787D01*
X0087543Y0107286D01*
X0125693Y0110133D02*
X0126193Y0121633D01*
X0127193Y0122633D01*
X0164193Y0122633D01*
X0165193Y0121633D01*
X0165693Y0110133D01*
X0162393Y0120233D02*
X0162395Y0120296D01*
X0162401Y0120358D01*
X0162411Y0120420D01*
X0162424Y0120482D01*
X0162442Y0120542D01*
X0162463Y0120601D01*
X0162488Y0120659D01*
X0162517Y0120715D01*
X0162549Y0120769D01*
X0162584Y0120821D01*
X0162622Y0120870D01*
X0162664Y0120918D01*
X0162708Y0120962D01*
X0162756Y0121004D01*
X0162805Y0121042D01*
X0162857Y0121077D01*
X0162911Y0121109D01*
X0162967Y0121138D01*
X0163025Y0121163D01*
X0163084Y0121184D01*
X0163144Y0121202D01*
X0163206Y0121215D01*
X0163268Y0121225D01*
X0163330Y0121231D01*
X0163393Y0121233D01*
X0163456Y0121231D01*
X0163518Y0121225D01*
X0163580Y0121215D01*
X0163642Y0121202D01*
X0163702Y0121184D01*
X0163761Y0121163D01*
X0163819Y0121138D01*
X0163875Y0121109D01*
X0163929Y0121077D01*
X0163981Y0121042D01*
X0164030Y0121004D01*
X0164078Y0120962D01*
X0164122Y0120918D01*
X0164164Y0120870D01*
X0164202Y0120821D01*
X0164237Y0120769D01*
X0164269Y0120715D01*
X0164298Y0120659D01*
X0164323Y0120601D01*
X0164344Y0120542D01*
X0164362Y0120482D01*
X0164375Y0120420D01*
X0164385Y0120358D01*
X0164391Y0120296D01*
X0164393Y0120233D01*
X0164391Y0120170D01*
X0164385Y0120108D01*
X0164375Y0120046D01*
X0164362Y0119984D01*
X0164344Y0119924D01*
X0164323Y0119865D01*
X0164298Y0119807D01*
X0164269Y0119751D01*
X0164237Y0119697D01*
X0164202Y0119645D01*
X0164164Y0119596D01*
X0164122Y0119548D01*
X0164078Y0119504D01*
X0164030Y0119462D01*
X0163981Y0119424D01*
X0163929Y0119389D01*
X0163875Y0119357D01*
X0163819Y0119328D01*
X0163761Y0119303D01*
X0163702Y0119282D01*
X0163642Y0119264D01*
X0163580Y0119251D01*
X0163518Y0119241D01*
X0163456Y0119235D01*
X0163393Y0119233D01*
X0163330Y0119235D01*
X0163268Y0119241D01*
X0163206Y0119251D01*
X0163144Y0119264D01*
X0163084Y0119282D01*
X0163025Y0119303D01*
X0162967Y0119328D01*
X0162911Y0119357D01*
X0162857Y0119389D01*
X0162805Y0119424D01*
X0162756Y0119462D01*
X0162708Y0119504D01*
X0162664Y0119548D01*
X0162622Y0119596D01*
X0162584Y0119645D01*
X0162549Y0119697D01*
X0162517Y0119751D01*
X0162488Y0119807D01*
X0162463Y0119865D01*
X0162442Y0119924D01*
X0162424Y0119984D01*
X0162411Y0120046D01*
X0162401Y0120108D01*
X0162395Y0120170D01*
X0162393Y0120233D01*
X0162340Y0125083D02*
X0163841Y0126584D01*
X0163841Y0129587D01*
X0160839Y0129587D02*
X0160839Y0126584D01*
X0162340Y0125083D01*
X0157736Y0125083D02*
X0157736Y0129587D01*
X0156235Y0129587D02*
X0159237Y0129587D01*
X0154633Y0129587D02*
X0151631Y0129587D01*
X0151631Y0127335D01*
X0153132Y0128086D01*
X0153883Y0128086D01*
X0154633Y0127335D01*
X0154633Y0125834D01*
X0153883Y0125083D01*
X0152381Y0125083D01*
X0151631Y0125834D01*
X0150029Y0125834D02*
X0149279Y0125083D01*
X0147777Y0125083D01*
X0147027Y0125834D01*
X0150029Y0128836D01*
X0150029Y0125834D01*
X0147027Y0125834D02*
X0147027Y0128836D01*
X0147777Y0129587D01*
X0149279Y0129587D01*
X0150029Y0128836D01*
X0145425Y0128836D02*
X0145425Y0128086D01*
X0144675Y0127335D01*
X0143173Y0127335D01*
X0142423Y0128086D01*
X0142423Y0128836D01*
X0143173Y0129587D01*
X0144675Y0129587D01*
X0145425Y0128836D01*
X0144675Y0127335D02*
X0145425Y0126584D01*
X0145425Y0125834D01*
X0144675Y0125083D01*
X0143173Y0125083D01*
X0142423Y0125834D01*
X0142423Y0126584D01*
X0143173Y0127335D01*
X0140821Y0128836D02*
X0137819Y0125834D01*
X0137819Y0125083D01*
X0137819Y0129587D02*
X0140821Y0129587D01*
X0140821Y0128836D01*
X0140083Y0159983D02*
X0140083Y0164487D01*
X0137831Y0162235D01*
X0140833Y0162235D01*
X0136229Y0164487D02*
X0133227Y0159983D01*
X0131625Y0159983D02*
X0128623Y0159983D01*
X0130124Y0159983D02*
X0130124Y0164487D01*
X0128623Y0162986D01*
X0122418Y0163736D02*
X0119415Y0160734D01*
X0120166Y0159983D01*
X0121667Y0159983D01*
X0122418Y0160734D01*
X0122418Y0163736D01*
X0121667Y0164487D01*
X0120166Y0164487D01*
X0119415Y0163736D01*
X0119415Y0160734D01*
X0117814Y0159983D02*
X0114811Y0159983D01*
X0117814Y0162986D01*
X0117814Y0163736D01*
X0117063Y0164487D01*
X0115562Y0164487D01*
X0114811Y0163736D01*
X0111708Y0164487D02*
X0111708Y0159983D01*
X0110207Y0159983D02*
X0113210Y0159983D01*
X0110207Y0162986D02*
X0111708Y0164487D01*
X0123140Y0189283D02*
X0121639Y0190784D01*
X0126143Y0190784D01*
X0126143Y0189283D02*
X0126143Y0192286D01*
X0126143Y0193887D02*
X0126143Y0194638D01*
X0125392Y0194638D01*
X0125392Y0193887D01*
X0126143Y0193887D01*
X0125392Y0196189D02*
X0124641Y0196189D01*
X0123891Y0196940D01*
X0123891Y0198441D01*
X0124641Y0199192D01*
X0125392Y0199192D01*
X0126143Y0198441D01*
X0126143Y0196940D01*
X0125392Y0196189D01*
X0123891Y0196940D02*
X0123140Y0196189D01*
X0122389Y0196189D01*
X0121639Y0196940D01*
X0121639Y0198441D01*
X0122389Y0199192D01*
X0123140Y0199192D01*
X0123891Y0198441D01*
X0124641Y0200793D02*
X0123140Y0203045D01*
X0124641Y0200793D02*
X0126143Y0203045D01*
X0126143Y0200793D02*
X0121639Y0200793D01*
X0147039Y0164487D02*
X0147039Y0159983D01*
X0148540Y0161484D01*
X0150041Y0159983D01*
X0150041Y0164487D01*
X0207039Y0163047D02*
X0209291Y0160795D01*
X0209291Y0163797D01*
X0210041Y0165399D02*
X0209291Y0166149D01*
X0209291Y0167651D01*
X0210041Y0168401D01*
X0210792Y0168401D01*
X0211543Y0167651D01*
X0211543Y0166149D01*
X0210792Y0165399D01*
X0210041Y0165399D01*
X0209291Y0166149D02*
X0208540Y0165399D01*
X0207789Y0165399D01*
X0207039Y0166149D01*
X0207039Y0167651D01*
X0207789Y0168401D01*
X0208540Y0168401D01*
X0209291Y0167651D01*
X0210041Y0170003D02*
X0209291Y0170753D01*
X0209291Y0172255D01*
X0210041Y0173005D01*
X0210792Y0173005D01*
X0211543Y0172255D01*
X0211543Y0170753D01*
X0210792Y0170003D01*
X0210041Y0170003D01*
X0209291Y0170753D02*
X0208540Y0170003D01*
X0207789Y0170003D01*
X0207039Y0170753D01*
X0207039Y0172255D01*
X0207789Y0173005D01*
X0208540Y0173005D01*
X0209291Y0172255D01*
X0211543Y0163047D02*
X0207039Y0163047D01*
X0207039Y0159193D02*
X0211543Y0156191D01*
X0211543Y0154590D02*
X0208540Y0154590D01*
X0207039Y0153088D01*
X0208540Y0151587D01*
X0211543Y0151587D01*
X0211543Y0149986D02*
X0207039Y0149986D01*
X0208540Y0148484D01*
X0207039Y0146983D01*
X0211543Y0146983D01*
X0209291Y0151587D02*
X0209291Y0154590D01*
X0207039Y0156191D02*
X0211543Y0159193D01*
X0259139Y0131946D02*
X0263643Y0131946D01*
X0262141Y0131946D02*
X0260640Y0134198D01*
X0262141Y0131946D02*
X0263643Y0134198D01*
X0262892Y0130345D02*
X0259889Y0130345D01*
X0262892Y0127343D01*
X0263643Y0128093D01*
X0263643Y0129594D01*
X0262892Y0130345D01*
X0262892Y0127343D02*
X0259889Y0127343D01*
X0259139Y0128093D01*
X0259139Y0129594D01*
X0259889Y0130345D01*
X0263643Y0125741D02*
X0263643Y0122739D01*
X0263643Y0124240D02*
X0259139Y0124240D01*
X0260640Y0122739D01*
X0287915Y0154071D02*
X0286853Y0155132D01*
X0286853Y0156194D01*
X0291100Y0156194D01*
X0288977Y0154071D01*
X0287915Y0154071D01*
X0286853Y0156194D02*
X0288977Y0158317D01*
X0290038Y0158317D01*
X0291100Y0157255D01*
X0291100Y0156194D01*
X0287844Y0159449D02*
X0283598Y0159449D01*
X0283067Y0158919D01*
X0281404Y0160582D02*
X0284589Y0163766D01*
X0281404Y0163766D01*
X0283527Y0161643D01*
X0286252Y0162103D02*
X0288375Y0159980D01*
X0287844Y0159449D01*
X0346443Y0150636D02*
X0346443Y0147634D01*
X0349445Y0150636D01*
X0349445Y0147634D01*
X0348694Y0146883D01*
X0347193Y0146883D01*
X0346443Y0147634D01*
X0346443Y0150636D02*
X0347193Y0151387D01*
X0348694Y0151387D01*
X0349445Y0150636D01*
X0351046Y0147634D02*
X0351797Y0147634D01*
X0351797Y0146883D01*
X0351046Y0146883D01*
X0351046Y0147634D01*
X0353348Y0146883D02*
X0356351Y0146883D01*
X0354850Y0146883D02*
X0354850Y0151387D01*
X0353348Y0149886D01*
X0357952Y0149886D02*
X0357952Y0147634D01*
X0358703Y0146883D01*
X0360955Y0146883D01*
X0360955Y0149886D01*
X0362556Y0149135D02*
X0364058Y0149135D01*
X0365793Y0147779D02*
X0365793Y0131287D01*
X0371293Y0130660D02*
X0371293Y0129081D01*
X0369791Y0125682D02*
X0369791Y0122679D01*
X0367539Y0124931D01*
X0372043Y0124931D01*
X0371292Y0121078D02*
X0368289Y0121078D01*
X0371292Y0118075D01*
X0372043Y0118826D01*
X0372043Y0120327D01*
X0371292Y0121078D01*
X0368289Y0121078D02*
X0367539Y0120327D01*
X0367539Y0118826D01*
X0368289Y0118075D01*
X0371292Y0118075D01*
X0371292Y0116474D02*
X0368289Y0116474D01*
X0367539Y0115723D01*
X0367539Y0114222D01*
X0368289Y0113471D01*
X0369040Y0113471D01*
X0369791Y0114222D01*
X0369791Y0116474D01*
X0371292Y0116474D02*
X0372043Y0115723D01*
X0372043Y0114222D01*
X0371292Y0113471D01*
X0371292Y0111870D02*
X0372043Y0111119D01*
X0372043Y0109618D01*
X0371292Y0108867D01*
X0372043Y0107266D02*
X0367539Y0107266D01*
X0368289Y0108867D02*
X0367539Y0109618D01*
X0367539Y0111119D01*
X0368289Y0111870D01*
X0369040Y0111870D01*
X0369791Y0111119D01*
X0370541Y0111870D01*
X0371292Y0111870D01*
X0369791Y0111119D02*
X0369791Y0110369D01*
X0372043Y0107266D02*
X0367539Y0104263D01*
X0372043Y0104263D01*
X0372043Y0102662D02*
X0372043Y0099659D01*
X0369040Y0102662D01*
X0368289Y0102662D01*
X0367539Y0101911D01*
X0367539Y0100410D01*
X0368289Y0099659D01*
X0404423Y0080433D02*
X0404423Y0050433D01*
X0414423Y0050433D01*
X0414423Y0080433D01*
X0404423Y0080433D01*
X0371293Y0138406D02*
X0371293Y0140660D01*
X0365792Y0147779D02*
X0365991Y0147932D01*
X0366193Y0148080D01*
X0366398Y0148223D01*
X0366607Y0148361D01*
X0366819Y0148494D01*
X0367034Y0148622D01*
X0367252Y0148744D01*
X0367473Y0148862D01*
X0367697Y0148974D01*
X0367923Y0149081D01*
X0368152Y0149182D01*
X0368383Y0149278D01*
X0368617Y0149369D01*
X0368852Y0149454D01*
X0369090Y0149533D01*
X0369329Y0149606D01*
X0369570Y0149674D01*
X0369812Y0149736D01*
X0370056Y0149792D01*
X0370302Y0149843D01*
X0370548Y0149887D01*
X0370795Y0149926D01*
X0371043Y0149958D01*
X0371292Y0149985D01*
X0371293Y0149985D02*
X0371293Y0148406D01*
X0365559Y0151387D02*
X0362556Y0151387D01*
X0362556Y0146883D01*
X0365792Y0131287D02*
X0365994Y0131132D01*
X0366199Y0130982D01*
X0366408Y0130836D01*
X0366621Y0130696D01*
X0366837Y0130562D01*
X0367056Y0130432D01*
X0367278Y0130308D01*
X0367503Y0130189D01*
X0367731Y0130076D01*
X0367961Y0129968D01*
X0368194Y0129866D01*
X0368430Y0129769D01*
X0368668Y0129678D01*
X0368907Y0129593D01*
X0369149Y0129514D01*
X0369393Y0129441D01*
X0369638Y0129374D01*
X0369885Y0129313D01*
X0370134Y0129257D01*
X0370384Y0129208D01*
X0370634Y0129165D01*
X0370886Y0129128D01*
X0371139Y0129097D01*
X0371392Y0129072D01*
X0371646Y0129053D01*
X0371900Y0129040D01*
X0372154Y0129034D01*
X0372409Y0129034D01*
X0372663Y0129040D01*
X0372918Y0129052D01*
X0373171Y0129070D01*
X0373425Y0129094D01*
X0373677Y0129125D01*
X0373929Y0129161D01*
X0374180Y0129204D01*
X0374430Y0129253D01*
X0374678Y0129308D01*
X0374925Y0129369D01*
X0375171Y0129435D01*
X0375415Y0129508D01*
X0375657Y0129587D01*
X0375897Y0129671D01*
X0376135Y0129762D01*
X0376371Y0129858D01*
X0376604Y0129959D01*
X0376835Y0130067D01*
X0377063Y0130179D01*
X0377288Y0130298D01*
X0377510Y0130422D01*
X0377730Y0130551D01*
X0377946Y0130685D01*
X0378159Y0130825D01*
X0378368Y0130970D01*
X0378574Y0131119D01*
X0378776Y0131274D01*
X0378974Y0131434D01*
X0379168Y0131598D01*
X0379359Y0131767D01*
X0379545Y0131940D01*
X0379727Y0132118D01*
X0379904Y0132301D01*
X0380077Y0132487D01*
X0380246Y0132678D01*
X0380410Y0132873D01*
X0380569Y0133072D01*
X0380723Y0133274D01*
X0380872Y0133480D01*
X0381016Y0133690D01*
X0381155Y0133903D01*
X0381289Y0134120D01*
X0381418Y0134339D01*
X0381541Y0134562D01*
X0381658Y0134788D01*
X0381771Y0135016D01*
X0381877Y0135247D01*
X0381979Y0135481D01*
X0382074Y0135717D01*
X0382163Y0135955D01*
X0382247Y0136195D01*
X0382325Y0136437D01*
X0382326Y0142629D02*
X0382248Y0142873D01*
X0382163Y0143115D01*
X0382073Y0143354D01*
X0381977Y0143592D01*
X0381875Y0143827D01*
X0381767Y0144060D01*
X0381654Y0144290D01*
X0381535Y0144517D01*
X0381411Y0144741D01*
X0381281Y0144962D01*
X0381146Y0145179D01*
X0381005Y0145394D01*
X0380859Y0145605D01*
X0380709Y0145812D01*
X0380553Y0146015D01*
X0380392Y0146215D01*
X0380227Y0146411D01*
X0380057Y0146602D01*
X0379882Y0146790D01*
X0379702Y0146973D01*
X0379519Y0147151D01*
X0379330Y0147326D01*
X0379138Y0147495D01*
X0378942Y0147660D01*
X0378741Y0147820D01*
X0378537Y0147974D01*
X0378329Y0148124D01*
X0378118Y0148269D01*
X0377903Y0148409D01*
X0377685Y0148543D01*
X0377463Y0148672D01*
X0377239Y0148795D01*
X0377011Y0148913D01*
X0376781Y0149026D01*
X0376548Y0149132D01*
X0376312Y0149233D01*
X0376074Y0149329D01*
X0375834Y0149418D01*
X0375592Y0149501D01*
X0375347Y0149579D01*
X0375101Y0149650D01*
X0374853Y0149716D01*
X0374604Y0149775D01*
X0374354Y0149829D01*
X0374102Y0149876D01*
X0373849Y0149917D01*
X0373595Y0149952D01*
X0373340Y0149981D01*
X0373085Y0150003D01*
X0372829Y0150019D01*
X0372573Y0150029D01*
X0372317Y0150033D01*
X0372060Y0150030D01*
X0371804Y0150022D01*
X0371548Y0150007D01*
X0371293Y0149985D01*
X0401415Y0146187D02*
X0401415Y0141683D01*
X0401415Y0143935D02*
X0402916Y0143935D01*
X0401415Y0146187D02*
X0404418Y0146187D01*
X0409021Y0146187D02*
X0406019Y0141683D01*
X0410623Y0142434D02*
X0411373Y0141683D01*
X0412875Y0141683D01*
X0413625Y0142434D01*
X0415227Y0141683D02*
X0415227Y0146187D01*
X0416728Y0144686D01*
X0418229Y0146187D01*
X0418229Y0141683D01*
X0419831Y0141683D02*
X0422833Y0141683D01*
X0421332Y0141683D02*
X0421332Y0146187D01*
X0419831Y0144686D01*
X0424435Y0145436D02*
X0425185Y0146187D01*
X0426687Y0146187D01*
X0427437Y0145436D01*
X0427437Y0144686D01*
X0424435Y0141683D01*
X0427437Y0141683D01*
X0429039Y0141683D02*
X0429039Y0146187D01*
X0431290Y0146187D01*
X0432041Y0145436D01*
X0432041Y0143935D01*
X0431290Y0143184D01*
X0429039Y0143184D01*
X0413625Y0145436D02*
X0412875Y0146187D01*
X0411373Y0146187D01*
X0410623Y0145436D01*
X0410623Y0142434D01*
X0432240Y0205483D02*
X0430739Y0206984D01*
X0435243Y0206984D01*
X0435243Y0205483D02*
X0435243Y0208486D01*
X0426243Y0234983D02*
X0421739Y0234983D01*
X0421739Y0237235D01*
X0422489Y0237986D01*
X0423991Y0237986D01*
X0424741Y0237235D01*
X0424741Y0234983D01*
X0423240Y0239587D02*
X0423240Y0240338D01*
X0426243Y0240338D01*
X0426243Y0241088D02*
X0426243Y0239587D01*
X0426243Y0242656D02*
X0423240Y0242656D01*
X0423240Y0244908D01*
X0423991Y0245659D01*
X0426243Y0245659D01*
X0425492Y0251864D02*
X0426243Y0252615D01*
X0426243Y0254116D01*
X0425492Y0254867D01*
X0424741Y0254867D01*
X0423991Y0254116D01*
X0423991Y0252615D01*
X0423240Y0251864D01*
X0422489Y0251864D01*
X0421739Y0252615D01*
X0421739Y0254116D01*
X0422489Y0254867D01*
X0423991Y0256468D02*
X0425492Y0256468D01*
X0426243Y0257219D01*
X0426243Y0258720D01*
X0425492Y0259471D01*
X0423991Y0259471D01*
X0423240Y0258720D01*
X0423240Y0257219D01*
X0423991Y0256468D01*
X0430739Y0260983D02*
X0432991Y0260983D01*
X0432240Y0262484D01*
X0432240Y0263235D01*
X0432991Y0263986D01*
X0434492Y0263986D01*
X0435243Y0263235D01*
X0435243Y0261734D01*
X0434492Y0260983D01*
X0430739Y0260983D02*
X0430739Y0263986D01*
X0426243Y0264075D02*
X0426243Y0261823D01*
X0425492Y0261072D01*
X0423991Y0261072D01*
X0423240Y0261823D01*
X0423240Y0264075D01*
X0424741Y0265676D02*
X0423240Y0267928D01*
X0423991Y0269513D02*
X0423240Y0270263D01*
X0423240Y0271764D01*
X0423991Y0272515D01*
X0424741Y0272515D01*
X0424741Y0269513D01*
X0423991Y0269513D02*
X0425492Y0269513D01*
X0426243Y0270263D01*
X0426243Y0271764D01*
X0425492Y0274867D02*
X0422489Y0274867D01*
X0423240Y0274116D02*
X0423240Y0275618D01*
X0425492Y0274867D02*
X0426243Y0275618D01*
X0426243Y0267928D02*
X0424741Y0265676D01*
X0426243Y0265676D02*
X0421739Y0265676D01*
X0421739Y0240338D02*
X0420988Y0240338D01*
X0328257Y0232087D02*
X0325254Y0232087D01*
X0325254Y0227583D01*
X0323653Y0227583D02*
X0323653Y0230586D01*
X0325254Y0229835D02*
X0326756Y0229835D01*
X0323653Y0227583D02*
X0321401Y0227583D01*
X0320650Y0228334D01*
X0320650Y0230586D01*
X0319049Y0231336D02*
X0316046Y0228334D01*
X0316797Y0227583D01*
X0318298Y0227583D01*
X0319049Y0228334D01*
X0319049Y0231336D01*
X0318298Y0232087D01*
X0316797Y0232087D01*
X0316046Y0231336D01*
X0316046Y0228334D01*
X0314445Y0227583D02*
X0311443Y0227583D01*
X0312944Y0227583D02*
X0312944Y0232087D01*
X0311443Y0230586D01*
X0248459Y0215287D02*
X0245456Y0215287D01*
X0245456Y0210783D01*
X0243855Y0210783D02*
X0243855Y0213786D01*
X0245456Y0213035D02*
X0246958Y0213035D01*
X0243855Y0210783D02*
X0241603Y0210783D01*
X0240852Y0211534D01*
X0240852Y0213786D01*
X0239251Y0210783D02*
X0236248Y0210783D01*
X0237750Y0210783D02*
X0237750Y0215287D01*
X0236248Y0213786D01*
X0234697Y0211534D02*
X0234697Y0210783D01*
X0233946Y0210783D01*
X0233946Y0211534D01*
X0234697Y0211534D01*
X0232345Y0211534D02*
X0231594Y0210783D01*
X0230093Y0210783D01*
X0229343Y0211534D01*
X0232345Y0214536D01*
X0232345Y0211534D01*
X0232345Y0214536D02*
X0231594Y0215287D01*
X0230093Y0215287D01*
X0229343Y0214536D01*
X0229343Y0211534D01*
X0192057Y0082287D02*
X0189054Y0082287D01*
X0189054Y0077783D01*
X0187453Y0077783D02*
X0187453Y0080786D01*
X0189054Y0080035D02*
X0190556Y0080035D01*
X0187453Y0077783D02*
X0185201Y0077783D01*
X0184450Y0078534D01*
X0184450Y0080786D01*
X0182849Y0081536D02*
X0182849Y0078534D01*
X0182098Y0077783D01*
X0180597Y0077783D01*
X0179846Y0078534D01*
X0182849Y0081536D01*
X0182098Y0082287D01*
X0180597Y0082287D01*
X0179846Y0081536D01*
X0179846Y0078534D01*
X0178245Y0077783D02*
X0175243Y0077783D01*
X0176744Y0077783D02*
X0176744Y0082287D01*
X0175243Y0080786D01*
X0248454Y0072559D02*
X0248454Y0042559D01*
X0258454Y0042559D01*
X0258454Y0072559D01*
X0248454Y0072559D01*
D15*
X0145693Y0107133D03*
D16*
X0162943Y0109633D03*
X0128443Y0109633D03*
D17*
X0140693Y0109633D03*
X0150693Y0109633D03*
D18*
X0151693Y0152233D03*
X0124568Y0152233D03*
G36*
X0264600Y0168122D02*
X0267003Y0165719D01*
X0265306Y0164022D01*
X0262903Y0166425D01*
X0264600Y0168122D01*
G37*
G36*
X0283780Y0148942D02*
X0286183Y0146539D01*
X0284486Y0144842D01*
X0282083Y0147245D01*
X0283780Y0148942D01*
G37*
D19*
X0271393Y0135833D03*
X0271393Y0108708D03*
X0113893Y0188733D03*
X0113893Y0215858D03*
D20*
X0010143Y0201754D02*
X0010143Y0198351D01*
X0010143Y0196754D02*
X0010143Y0193351D01*
X0006740Y0196754D01*
X0005889Y0196754D01*
X0005038Y0195903D01*
X0005038Y0194202D01*
X0005889Y0193351D01*
X0005889Y0191754D02*
X0005038Y0190903D01*
X0005038Y0189202D01*
X0005889Y0188351D01*
X0007590Y0186754D02*
X0007590Y0183351D01*
X0005038Y0185903D01*
X0010143Y0185903D01*
X0009292Y0188351D02*
X0010143Y0189202D01*
X0010143Y0190903D01*
X0009292Y0191754D01*
X0008441Y0191754D01*
X0007590Y0190903D01*
X0007590Y0190052D01*
X0007590Y0190903D02*
X0006740Y0191754D01*
X0005889Y0191754D01*
X0006740Y0198351D02*
X0005038Y0200052D01*
X0010143Y0200052D01*
X0009292Y0181754D02*
X0010143Y0180903D01*
X0010143Y0179202D01*
X0009292Y0178351D01*
X0009292Y0176754D02*
X0008441Y0176754D01*
X0007590Y0175903D01*
X0007590Y0173351D01*
X0009292Y0173351D01*
X0010143Y0174202D01*
X0010143Y0175903D01*
X0009292Y0176754D01*
X0007590Y0178351D02*
X0006740Y0180052D01*
X0006740Y0180903D01*
X0007590Y0181754D01*
X0009292Y0181754D01*
X0007590Y0178351D02*
X0005038Y0178351D01*
X0005038Y0181754D01*
X0005038Y0176754D02*
X0005889Y0175052D01*
X0007590Y0173351D01*
X0005889Y0171754D02*
X0005038Y0171754D01*
X0005038Y0168351D01*
X0005889Y0166754D02*
X0005038Y0165903D01*
X0005038Y0164202D01*
X0005889Y0163351D01*
X0006740Y0163351D01*
X0007590Y0164202D01*
X0007590Y0165903D01*
X0008441Y0166754D01*
X0009292Y0166754D01*
X0010143Y0165903D01*
X0010143Y0164202D01*
X0009292Y0163351D01*
X0008441Y0163351D01*
X0007590Y0164202D01*
X0007590Y0165903D02*
X0006740Y0166754D01*
X0005889Y0166754D01*
X0009292Y0168351D02*
X0010143Y0168351D01*
X0009292Y0168351D02*
X0005889Y0171754D01*
D21*
X0236893Y0191933D02*
X0236962Y0191935D01*
X0237030Y0191941D01*
X0237098Y0191951D01*
X0237165Y0191964D01*
X0237231Y0191982D01*
X0237296Y0192003D01*
X0237360Y0192028D01*
X0237422Y0192056D01*
X0237483Y0192088D01*
X0237542Y0192123D01*
X0237598Y0192162D01*
X0237653Y0192204D01*
X0237704Y0192249D01*
X0237754Y0192297D01*
X0237800Y0192347D01*
X0237843Y0192400D01*
X0237884Y0192456D01*
X0237921Y0192513D01*
X0237954Y0192573D01*
X0237985Y0192635D01*
X0238011Y0192698D01*
X0238034Y0192762D01*
X0238054Y0192828D01*
X0238069Y0192895D01*
X0238081Y0192962D01*
X0238089Y0193030D01*
X0238093Y0193099D01*
X0238093Y0193167D01*
X0238089Y0193236D01*
X0238081Y0193304D01*
X0238069Y0193371D01*
X0238054Y0193438D01*
X0238034Y0193504D01*
X0238011Y0193568D01*
X0237985Y0193631D01*
X0237954Y0193693D01*
X0237921Y0193753D01*
X0237884Y0193810D01*
X0237843Y0193866D01*
X0237800Y0193919D01*
X0237754Y0193969D01*
X0237704Y0194017D01*
X0237653Y0194062D01*
X0237598Y0194104D01*
X0237542Y0194143D01*
X0237483Y0194178D01*
X0237422Y0194210D01*
X0237360Y0194238D01*
X0237296Y0194263D01*
X0237231Y0194284D01*
X0237165Y0194302D01*
X0237098Y0194315D01*
X0237030Y0194325D01*
X0236962Y0194331D01*
X0236893Y0194333D01*
D22*
X0237423Y0179119D02*
X0240559Y0175983D01*
X0240559Y0177551D02*
X0237423Y0177551D01*
X0237423Y0175983D02*
X0240559Y0179119D01*
X0238991Y0179119D02*
X0238991Y0175983D01*
D23*
X0398393Y0119433D02*
X0403393Y0119433D01*
X0400893Y0116933D02*
X0400893Y0121933D01*
M02*
