%
M48
M72
T01C0.02205
T02C0.02756
T03C0.03200
T04C0.03500
T05C0.03543
T06C0.03900
T07C0.03937
T08C0.04000
T09C0.12598
T10C0.15748
%
T01
X66250Y164815
X56250Y169815
X66250Y174815
X56250Y179815
X56250Y189815
X66250Y194815
X56250Y199815
X66250Y184815
T02
X113893Y184983
X120993Y152233
X155443Y152233
X169093Y158833
X226793Y183133
X235293Y170433
X262425Y168600
X294793Y166533
X286785Y144241
X271393Y139583
X271393Y105133
X273993Y67433
X282093Y58333
X291293Y48233
X334893Y91733
X334993Y91633
X360093Y106133
X347993Y115233
X372293Y131533
X372293Y139533
X372293Y147533
X369693Y157633
X387593Y165833
X349693Y157633
X407793Y191533
X428793Y163533
X316193Y222133
X294793Y234433
X284993Y243833
X275393Y234633
X265093Y221333
X252593Y221533
X232593Y221533
X314693Y238333
X334693Y238333
X342293Y258133
X381593Y298233
X113893Y219433
X110793Y115033
X90793Y115033
X178493Y88533
X198493Y88533
T03
X194293Y140833
X194293Y150833
X194293Y160833
X194293Y170833
X224293Y170833
X224293Y160833
X224293Y150833
X224293Y140833
T04
X97523Y55433
X97523Y65433
X97523Y75433
X253454Y67559
X253454Y57559
X253454Y47559
X409423Y55433
X409423Y65433
X409423Y75433
T05
X401393Y320333
X391393Y320333
X381393Y320333
X371393Y320333
X361393Y320333
X351393Y320333
X341393Y320333
X331393Y320333
X321393Y320333
X311393Y320333
X301393Y320333
X291393Y320333
X281393Y320333
X271393Y320333
X261393Y320333
X251393Y320333
T06
X254893Y208133
X264893Y208133
X274893Y208133
X284893Y208133
X294893Y208133
X304893Y208133
X314893Y208133
X324893Y208133
X334893Y208133
X334893Y178133
X324893Y178133
X314893Y178133
X304893Y178133
X294893Y178133
X284893Y178133
X274893Y178133
X264893Y178133
X254893Y178133
X244893Y178133
X244893Y208133
T07
X432993Y214733
X432993Y224733
X432993Y234733
X432993Y244733
X432993Y254733
T08
X430893Y131433
X400893Y131433
X155693Y115633
X145693Y115633
X135693Y115633
T09
X31250Y159815
X31250Y204815
T10
X42614Y263633
X42614Y106233
X463874Y106233
X463874Y263633
M30
