G75*
%MOIN*%
%OFA0B0*%
%FSLAX25Y25*%
%IPPOS*%
%LPD*%
%AMOC8*
5,1,8,0,0,1.08239X$1,22.5*
%
%ADD10C,0.06600*%
%ADD11C,0.05200*%
%ADD12C,0.06000*%
%ADD13C,0.05937*%
%ADD14C,0.05600*%
%ADD15R,0.05600X0.05600*%
%ADD16C,0.08000*%
%ADD17R,0.07600X0.07600*%
%ADD18C,0.07600*%
%ADD19C,0.10000*%
%ADD20C,0.05543*%
%ADD21C,0.03000*%
%ADD22OC8,0.06600*%
D10*
X0090793Y0115033D03*
X0110793Y0115033D03*
X0120993Y0152233D03*
X0155443Y0152233D03*
X0113893Y0184983D03*
X0113893Y0219433D03*
X0232593Y0221533D03*
X0252593Y0221533D03*
X0314693Y0238333D03*
X0334693Y0238333D03*
X0262425Y0168600D03*
X0286785Y0144241D03*
X0271393Y0139583D03*
X0271393Y0105133D03*
X0198493Y0088533D03*
X0178493Y0088533D03*
X0349693Y0157633D03*
X0369693Y0157633D03*
X0372293Y0147533D03*
X0372293Y0139533D03*
X0372293Y0131533D03*
D11*
X0226893Y0140833D02*
X0221693Y0140833D01*
X0221693Y0150833D02*
X0226893Y0150833D01*
X0226893Y0160833D02*
X0221693Y0160833D01*
X0221693Y0170833D02*
X0226893Y0170833D01*
X0196893Y0170833D02*
X0191693Y0170833D01*
X0191693Y0160833D02*
X0196893Y0160833D01*
X0196893Y0150833D02*
X0191693Y0150833D01*
X0191693Y0140833D02*
X0196893Y0140833D01*
D12*
X0155693Y0118633D02*
X0155693Y0112633D01*
X0145693Y0112633D02*
X0145693Y0118633D01*
X0135693Y0118633D02*
X0135693Y0112633D01*
D13*
X0430024Y0214733D02*
X0435961Y0214733D01*
X0435961Y0224733D02*
X0430024Y0224733D01*
X0430024Y0234733D02*
X0435961Y0234733D01*
X0435961Y0244733D02*
X0430024Y0244733D01*
X0430024Y0254733D02*
X0435961Y0254733D01*
D14*
X0066250Y0194815D03*
X0056250Y0189815D03*
X0056250Y0179815D03*
X0066250Y0184815D03*
X0066250Y0174815D03*
X0056250Y0169815D03*
X0066250Y0164815D03*
D15*
X0056250Y0199815D03*
D16*
X0097523Y0055433D03*
X0097523Y0065433D03*
X0097523Y0075433D03*
X0253454Y0067559D03*
X0253454Y0057559D03*
X0253454Y0047559D03*
X0409423Y0055433D03*
X0409423Y0065433D03*
X0409423Y0075433D03*
D17*
X0244893Y0178133D03*
D18*
X0254893Y0178133D03*
X0264893Y0178133D03*
X0274893Y0178133D03*
X0284893Y0178133D03*
X0294893Y0178133D03*
X0304893Y0178133D03*
X0314893Y0178133D03*
X0324893Y0178133D03*
X0334893Y0178133D03*
X0334893Y0208133D03*
X0324893Y0208133D03*
X0314893Y0208133D03*
X0304893Y0208133D03*
X0294893Y0208133D03*
X0284893Y0208133D03*
X0274893Y0208133D03*
X0264893Y0208133D03*
X0254893Y0208133D03*
X0244893Y0208133D03*
D19*
X0400893Y0131433D03*
X0430893Y0131433D03*
D20*
X0401393Y0317561D02*
X0401393Y0323105D01*
X0391393Y0323105D02*
X0391393Y0317561D01*
X0381393Y0317561D02*
X0381393Y0323105D01*
X0371393Y0323105D02*
X0371393Y0317561D01*
X0361393Y0317561D02*
X0361393Y0323105D01*
X0351393Y0323105D02*
X0351393Y0317561D01*
X0341393Y0317561D02*
X0341393Y0323105D01*
X0331393Y0323105D02*
X0331393Y0317561D01*
X0321393Y0317561D02*
X0321393Y0323105D01*
X0311393Y0323105D02*
X0311393Y0317561D01*
X0301393Y0317561D02*
X0301393Y0323105D01*
X0291393Y0323105D02*
X0291393Y0317561D01*
X0281393Y0317561D02*
X0281393Y0323105D01*
X0271393Y0323105D02*
X0271393Y0317561D01*
X0261393Y0317561D02*
X0261393Y0323105D01*
X0251393Y0323105D02*
X0251393Y0317561D01*
D21*
X0242893Y0284733D02*
X0402993Y0284733D01*
X0432993Y0254733D01*
X0432993Y0244733D02*
X0432193Y0243933D01*
X0423693Y0243933D01*
X0395793Y0271833D01*
X0248293Y0271833D01*
X0222493Y0246033D01*
X0222493Y0204833D01*
X0228193Y0199133D01*
X0260693Y0199133D01*
X0264893Y0194933D01*
X0264893Y0178133D01*
X0274893Y0178133D02*
X0274893Y0165933D01*
X0269793Y0160833D01*
X0224293Y0160833D01*
X0224693Y0170433D02*
X0235293Y0170433D01*
X0244893Y0173033D02*
X0244893Y0178133D01*
X0244893Y0173033D02*
X0248593Y0169333D01*
X0261693Y0169333D01*
X0262425Y0168600D01*
X0254893Y0178133D02*
X0254893Y0186233D01*
X0252393Y0188733D01*
X0252193Y0188533D01*
X0249093Y0191633D01*
X0218593Y0191633D01*
X0208793Y0201433D01*
X0208793Y0258233D01*
X0235293Y0284733D01*
X0242393Y0284733D01*
X0242893Y0284733D01*
X0185493Y0298533D02*
X0381293Y0298533D01*
X0381593Y0298233D01*
X0342293Y0258133D02*
X0339193Y0258133D01*
X0324893Y0243833D01*
X0324893Y0208133D01*
X0334893Y0208133D02*
X0334993Y0208033D01*
X0368993Y0208033D01*
X0407793Y0169233D01*
X0407793Y0152333D01*
X0400893Y0145433D01*
X0400893Y0131433D01*
X0389093Y0129433D02*
X0388893Y0129233D01*
X0388893Y0119633D01*
X0390693Y0117833D01*
X0426193Y0117833D01*
X0430693Y0122333D01*
X0430693Y0131233D01*
X0430893Y0131433D01*
X0430593Y0131133D01*
X0430893Y0131433D02*
X0416593Y0145733D01*
X0416593Y0175933D01*
X0407793Y0184733D01*
X0407793Y0191533D01*
X0407093Y0191533D01*
X0407093Y0210233D01*
X0378993Y0238333D01*
X0413593Y0238333D01*
X0418093Y0233833D01*
X0432093Y0233833D01*
X0432993Y0234733D01*
X0433793Y0225533D02*
X0432993Y0224733D01*
X0433793Y0225533D02*
X0441793Y0225533D01*
X0447093Y0220233D01*
X0447093Y0101933D01*
X0432293Y0087133D01*
X0394293Y0087133D01*
X0372293Y0109133D01*
X0372293Y0131533D01*
X0371993Y0131233D01*
X0363693Y0131233D01*
X0360093Y0127633D01*
X0360093Y0106133D01*
X0347993Y0115233D02*
X0347993Y0139333D01*
X0356193Y0147533D01*
X0372293Y0147533D01*
X0372293Y0139533D02*
X0377593Y0139533D01*
X0381593Y0143533D01*
X0381593Y0151933D01*
X0387593Y0157933D01*
X0387593Y0165833D01*
X0387193Y0165433D01*
X0392193Y0173933D02*
X0397993Y0168133D01*
X0397993Y0155433D01*
X0389093Y0146533D01*
X0389093Y0129433D01*
X0369693Y0157633D02*
X0369693Y0172033D01*
X0371593Y0173933D01*
X0392193Y0173933D01*
X0416593Y0175933D02*
X0416593Y0177233D01*
X0428793Y0163533D02*
X0432993Y0167733D01*
X0432993Y0214733D01*
X0407793Y0191533D02*
X0407493Y0191833D01*
X0378993Y0238333D02*
X0334693Y0238333D01*
X0314693Y0238333D02*
X0304893Y0228533D01*
X0304893Y0208133D01*
X0294893Y0208133D02*
X0294593Y0208133D01*
X0294793Y0234433D01*
X0284993Y0243833D02*
X0284893Y0243733D01*
X0284893Y0208133D01*
X0275193Y0208133D02*
X0274893Y0208133D01*
X0274893Y0234133D01*
X0275393Y0234633D01*
X0265093Y0221333D02*
X0264793Y0221033D01*
X0264793Y0208233D01*
X0264893Y0208133D01*
X0264793Y0208133D01*
X0254893Y0208133D02*
X0254893Y0219233D01*
X0252593Y0221533D01*
X0244893Y0216533D02*
X0240093Y0221333D01*
X0232793Y0221333D01*
X0232593Y0221533D01*
X0244893Y0216533D02*
X0244893Y0208133D01*
X0231593Y0199133D02*
X0231493Y0199033D01*
X0226793Y0183133D02*
X0226193Y0182533D01*
X0219693Y0182533D01*
X0214593Y0177433D01*
X0214593Y0141233D01*
X0204293Y0125933D01*
X0214393Y0125933D01*
X0224293Y0135833D01*
X0224293Y0140833D01*
X0224293Y0150833D02*
X0276193Y0150833D01*
X0285093Y0159733D01*
X0285093Y0177933D01*
X0284893Y0178133D01*
X0294893Y0178133D02*
X0294893Y0169833D01*
X0294793Y0166533D01*
X0304893Y0178133D02*
X0304893Y0098933D01*
X0273993Y0068033D01*
X0273993Y0067433D01*
X0282093Y0058333D02*
X0314893Y0091133D01*
X0314893Y0094433D01*
X0314893Y0097033D01*
X0314893Y0178133D01*
X0324893Y0178133D02*
X0324893Y0081633D01*
X0291293Y0048233D01*
X0334893Y0091733D02*
X0334993Y0091633D01*
X0334993Y0091833D01*
X0335093Y0091933D01*
X0334893Y0091733D02*
X0334893Y0178133D01*
X0334893Y0208133D02*
X0335093Y0208333D01*
X0314893Y0208133D02*
X0314893Y0220833D01*
X0316193Y0222133D01*
X0224693Y0170433D02*
X0224293Y0170833D01*
X0205893Y0186633D02*
X0183893Y0208633D01*
X0099293Y0208633D01*
X0085093Y0222833D01*
X0052493Y0222833D01*
X0042593Y0212933D01*
X0042593Y0185633D01*
X0048411Y0179815D01*
X0056250Y0179815D01*
X0055968Y0189533D02*
X0050793Y0189533D01*
X0048193Y0192133D01*
X0048193Y0208633D01*
X0049693Y0210133D01*
X0077493Y0210133D01*
X0088193Y0199433D01*
X0119293Y0199433D01*
X0126793Y0191933D01*
X0173193Y0191933D01*
X0194293Y0170833D01*
X0194293Y0160833D02*
X0182393Y0160833D01*
X0174693Y0168533D01*
X0154193Y0168533D01*
X0128393Y0142733D01*
X0093893Y0142733D01*
X0081493Y0155133D01*
X0081493Y0169133D01*
X0076193Y0174433D01*
X0066632Y0174433D01*
X0066250Y0174815D01*
X0056250Y0169815D02*
X0061250Y0164815D01*
X0066250Y0164815D01*
X0074993Y0156072D01*
X0074993Y0143233D01*
X0079593Y0138633D01*
X0079593Y0096533D01*
X0087693Y0088433D01*
X0178393Y0088433D01*
X0178493Y0088533D01*
X0178493Y0109233D01*
X0172393Y0115333D01*
X0155993Y0115333D01*
X0155693Y0115633D01*
X0145893Y0115833D02*
X0145693Y0115633D01*
X0145693Y0106333D01*
X0138093Y0098733D01*
X0095393Y0098733D01*
X0090693Y0103433D01*
X0090693Y0114933D01*
X0090793Y0115033D01*
X0110793Y0115033D02*
X0135093Y0115033D01*
X0135693Y0115633D01*
X0136193Y0116133D01*
X0136193Y0123333D01*
X0138693Y0125833D01*
X0203893Y0125833D01*
X0203993Y0125933D01*
X0224793Y0105133D01*
X0271393Y0105133D01*
X0271393Y0139583D02*
X0282128Y0139583D01*
X0286785Y0144241D01*
X0205893Y0145133D02*
X0201593Y0140833D01*
X0194293Y0140833D01*
X0166843Y0140833D01*
X0155443Y0152233D01*
X0169093Y0158833D02*
X0177093Y0150833D01*
X0194293Y0150833D01*
X0205893Y0145133D02*
X0205893Y0186633D01*
X0120993Y0152233D02*
X0105593Y0152233D01*
X0094593Y0163233D01*
X0094593Y0171933D01*
X0081693Y0184833D01*
X0066268Y0184833D01*
X0066250Y0184815D01*
X0056250Y0189815D02*
X0055968Y0189533D01*
X0061250Y0199815D02*
X0066250Y0194815D01*
X0066932Y0194133D01*
X0085993Y0194133D01*
X0095143Y0184983D01*
X0113893Y0184983D01*
X0113893Y0219433D02*
X0113893Y0226933D01*
X0185493Y0298533D01*
X0061250Y0199815D02*
X0056250Y0199815D01*
X0203993Y0125933D02*
X0204293Y0125933D01*
D22*
X0169093Y0158833D03*
X0226793Y0183133D03*
X0235293Y0170433D03*
X0294793Y0166533D03*
X0316193Y0222133D03*
X0294793Y0234433D03*
X0284993Y0243833D03*
X0275393Y0234633D03*
X0265093Y0221333D03*
X0342293Y0258133D03*
X0381593Y0298233D03*
X0407793Y0191533D03*
X0387593Y0165833D03*
X0428793Y0163533D03*
X0347993Y0115233D03*
X0360093Y0106133D03*
X0334993Y0091633D03*
X0334893Y0091733D03*
X0282093Y0058333D03*
X0273993Y0067433D03*
X0291293Y0048233D03*
M02*
