G75*
%MOIN*%
%OFA0B0*%
%FSLAX25Y25*%
%IPPOS*%
%LPD*%
%AMOC8*
5,1,8,0,0,1.08239X$1,22.5*
%
%ADD10C,0.00500*%
%ADD11C,0.00600*%
D10*
X0001250Y0152197D02*
X0001250Y0212433D01*
X0071093Y0212433D01*
X0071093Y0152197D01*
X0001250Y0152197D01*
X0011093Y0157433D02*
X0011093Y0207433D01*
X0026093Y0207433D01*
X0026093Y0201183D02*
X0016093Y0201183D01*
X0016093Y0198683D01*
X0053593Y0198683D01*
X0053593Y0201183D02*
X0036093Y0201183D01*
X0036093Y0207433D02*
X0056093Y0207433D01*
X0056093Y0202433D01*
X0056093Y0207433D02*
X0066093Y0207433D01*
X0063593Y0196183D02*
X0016093Y0196183D01*
X0016093Y0193683D01*
X0063593Y0193683D01*
X0053593Y0191183D02*
X0016093Y0191183D01*
X0016093Y0188683D01*
X0053593Y0188683D01*
X0063593Y0186183D02*
X0016093Y0186183D01*
X0016093Y0183683D01*
X0063593Y0183683D01*
X0053593Y0181183D02*
X0016093Y0181183D01*
X0016093Y0178683D01*
X0053593Y0178683D01*
X0063593Y0176183D02*
X0016093Y0176183D01*
X0016093Y0173683D01*
X0063593Y0173683D01*
X0053593Y0171183D02*
X0016093Y0171183D01*
X0016093Y0168683D01*
X0053593Y0168683D01*
X0056093Y0164933D02*
X0056093Y0157433D01*
X0036093Y0157433D01*
X0034843Y0163683D02*
X0063593Y0163683D01*
X0063593Y0166183D02*
X0016093Y0166183D01*
X0016093Y0163683D01*
X0027343Y0163683D01*
X0026093Y0157433D02*
X0011093Y0157433D01*
X0056093Y0157433D02*
X0066093Y0157433D01*
X0243036Y0332334D02*
X0243787Y0331583D01*
X0245288Y0331583D01*
X0246039Y0332334D01*
X0246039Y0333835D01*
X0243787Y0333835D01*
X0243036Y0333084D01*
X0243036Y0332334D01*
X0244537Y0335336D02*
X0246039Y0333835D01*
X0244537Y0335336D02*
X0243036Y0336087D01*
X0249141Y0336087D02*
X0250643Y0334586D01*
X0249141Y0336087D02*
X0249141Y0331583D01*
X0247640Y0331583D02*
X0250643Y0331583D01*
X0389328Y0313587D02*
X0390829Y0312836D01*
X0392331Y0311335D01*
X0390079Y0311335D01*
X0389328Y0310584D01*
X0389328Y0309834D01*
X0390079Y0309083D01*
X0391580Y0309083D01*
X0392331Y0309834D01*
X0392331Y0311335D01*
X0393932Y0309083D02*
X0396935Y0309083D01*
X0395433Y0309083D02*
X0395433Y0313587D01*
X0396935Y0312086D01*
X0398536Y0313587D02*
X0401539Y0313587D01*
X0401539Y0309083D01*
X0398536Y0309083D01*
X0400037Y0311335D02*
X0401539Y0311335D01*
X0403140Y0313587D02*
X0406143Y0313587D01*
X0406143Y0309083D01*
X0406143Y0311335D02*
X0404641Y0311335D01*
X0403143Y0326583D02*
X0400140Y0326583D01*
X0401641Y0326583D02*
X0401641Y0331087D01*
X0403143Y0329586D01*
D11*
X0406393Y0325333D02*
X0397393Y0325333D01*
X0396393Y0324333D01*
X0395393Y0325333D01*
X0387393Y0325333D01*
X0386393Y0324333D01*
X0385393Y0325333D01*
X0377393Y0325333D01*
X0376393Y0324333D01*
X0375393Y0325333D01*
X0367393Y0325333D01*
X0366393Y0324333D01*
X0365393Y0325333D01*
X0357393Y0325333D01*
X0356393Y0324333D01*
X0355393Y0325333D01*
X0347393Y0325333D01*
X0346393Y0324333D01*
X0345393Y0325333D01*
X0337393Y0325333D01*
X0336393Y0324333D01*
X0335393Y0325333D01*
X0327393Y0325333D01*
X0326393Y0324333D01*
X0325393Y0325333D01*
X0317393Y0325333D01*
X0316393Y0324333D01*
X0315393Y0325333D01*
X0307393Y0325333D01*
X0306393Y0324333D01*
X0305393Y0325333D01*
X0297393Y0325333D01*
X0296393Y0324333D01*
X0295393Y0325333D01*
X0287393Y0325333D01*
X0286393Y0324333D01*
X0285393Y0325333D01*
X0277393Y0325333D01*
X0276393Y0324333D01*
X0275393Y0325333D01*
X0267393Y0325333D01*
X0266393Y0324333D01*
X0265393Y0325333D01*
X0257393Y0325333D01*
X0256393Y0324333D01*
X0255393Y0325333D01*
X0246393Y0325333D01*
X0246393Y0315333D01*
X0255393Y0315333D01*
X0256393Y0316333D01*
X0257393Y0315333D01*
X0265393Y0315333D01*
X0266393Y0316333D01*
X0267393Y0315333D01*
X0275393Y0315333D01*
X0276393Y0316333D01*
X0277393Y0315333D01*
X0285393Y0315333D01*
X0286393Y0316333D01*
X0287393Y0315333D01*
X0295393Y0315333D01*
X0296393Y0316333D01*
X0297393Y0315333D01*
X0305393Y0315333D01*
X0306393Y0316333D01*
X0307393Y0315333D01*
X0315393Y0315333D01*
X0316393Y0316333D01*
X0317393Y0315333D01*
X0325393Y0315333D01*
X0326393Y0316333D01*
X0327393Y0315333D01*
X0335393Y0315333D01*
X0336393Y0316333D01*
X0337393Y0315333D01*
X0345393Y0315333D01*
X0346393Y0316333D01*
X0347393Y0315333D01*
X0355393Y0315333D01*
X0356393Y0316333D01*
X0357393Y0315333D01*
X0365393Y0315333D01*
X0366393Y0316333D01*
X0367393Y0315333D01*
X0375393Y0315333D01*
X0376393Y0316333D01*
X0377393Y0315333D01*
X0385393Y0315333D01*
X0386393Y0316333D01*
X0387393Y0315333D01*
X0395393Y0315333D01*
X0396393Y0316333D01*
X0397393Y0315333D01*
X0406393Y0315333D01*
X0406393Y0325333D01*
M02*
