G75*
%MOIN*%
%OFA0B0*%
%FSLAX25Y25*%
%IPPOS*%
%LPD*%
%AMOC8*
5,1,8,0,0,1.08239X$1,22.5*
%
%ADD10C,0.16548*%
%ADD11C,0.07400*%
%ADD12C,0.06000*%
%ADD13C,0.06800*%
%ADD14C,0.06737*%
%ADD15C,0.06400*%
%ADD16R,0.06400X0.06400*%
%ADD17C,0.13398*%
%ADD18C,0.08800*%
%ADD19R,0.08400X0.08400*%
%ADD20C,0.08400*%
%ADD21C,0.10800*%
%ADD22C,0.06343*%
%ADD23OC8,0.07400*%
D10*
X0042614Y0106233D03*
X0042614Y0263633D03*
X0463874Y0263633D03*
X0463874Y0106233D03*
D11*
X0372293Y0131533D03*
X0372293Y0139533D03*
X0372293Y0147533D03*
X0369693Y0157633D03*
X0349693Y0157633D03*
X0286785Y0144241D03*
X0271393Y0139583D03*
X0262425Y0168600D03*
X0252593Y0221533D03*
X0232593Y0221533D03*
X0314693Y0238333D03*
X0334693Y0238333D03*
X0155443Y0152233D03*
X0120993Y0152233D03*
X0113893Y0184983D03*
X0113893Y0219433D03*
X0110793Y0115033D03*
X0090793Y0115033D03*
X0178493Y0088533D03*
X0198493Y0088533D03*
X0271393Y0105133D03*
D12*
X0226893Y0140833D02*
X0221693Y0140833D01*
X0221693Y0150833D02*
X0226893Y0150833D01*
X0226893Y0160833D02*
X0221693Y0160833D01*
X0221693Y0170833D02*
X0226893Y0170833D01*
X0196893Y0170833D02*
X0191693Y0170833D01*
X0191693Y0160833D02*
X0196893Y0160833D01*
X0196893Y0150833D02*
X0191693Y0150833D01*
X0191693Y0140833D02*
X0196893Y0140833D01*
D13*
X0155693Y0118633D02*
X0155693Y0112633D01*
X0145693Y0112633D02*
X0145693Y0118633D01*
X0135693Y0118633D02*
X0135693Y0112633D01*
D14*
X0430024Y0214733D02*
X0435961Y0214733D01*
X0435961Y0224733D02*
X0430024Y0224733D01*
X0430024Y0234733D02*
X0435961Y0234733D01*
X0435961Y0244733D02*
X0430024Y0244733D01*
X0430024Y0254733D02*
X0435961Y0254733D01*
D15*
X0066250Y0194815D03*
X0056250Y0189815D03*
X0056250Y0179815D03*
X0066250Y0184815D03*
X0066250Y0174815D03*
X0056250Y0169815D03*
X0066250Y0164815D03*
D16*
X0056250Y0199815D03*
D17*
X0031250Y0204815D03*
X0031250Y0159815D03*
D18*
X0097523Y0055433D03*
X0097523Y0065433D03*
X0097523Y0075433D03*
X0253454Y0067559D03*
X0253454Y0057559D03*
X0253454Y0047559D03*
X0409423Y0055433D03*
X0409423Y0065433D03*
X0409423Y0075433D03*
D19*
X0244893Y0178133D03*
D20*
X0254893Y0178133D03*
X0264893Y0178133D03*
X0274893Y0178133D03*
X0284893Y0178133D03*
X0294893Y0178133D03*
X0304893Y0178133D03*
X0314893Y0178133D03*
X0324893Y0178133D03*
X0334893Y0178133D03*
X0334893Y0208133D03*
X0324893Y0208133D03*
X0314893Y0208133D03*
X0304893Y0208133D03*
X0294893Y0208133D03*
X0284893Y0208133D03*
X0274893Y0208133D03*
X0264893Y0208133D03*
X0254893Y0208133D03*
X0244893Y0208133D03*
D21*
X0400893Y0131433D03*
X0430893Y0131433D03*
D22*
X0401393Y0317561D02*
X0401393Y0323105D01*
X0391393Y0323105D02*
X0391393Y0317561D01*
X0381393Y0317561D02*
X0381393Y0323105D01*
X0371393Y0323105D02*
X0371393Y0317561D01*
X0361393Y0317561D02*
X0361393Y0323105D01*
X0351393Y0323105D02*
X0351393Y0317561D01*
X0341393Y0317561D02*
X0341393Y0323105D01*
X0331393Y0323105D02*
X0331393Y0317561D01*
X0321393Y0317561D02*
X0321393Y0323105D01*
X0311393Y0323105D02*
X0311393Y0317561D01*
X0301393Y0317561D02*
X0301393Y0323105D01*
X0291393Y0323105D02*
X0291393Y0317561D01*
X0281393Y0317561D02*
X0281393Y0323105D01*
X0271393Y0323105D02*
X0271393Y0317561D01*
X0261393Y0317561D02*
X0261393Y0323105D01*
X0251393Y0323105D02*
X0251393Y0317561D01*
D23*
X0342293Y0258133D03*
X0294793Y0234433D03*
X0284993Y0243833D03*
X0275393Y0234633D03*
X0265093Y0221333D03*
X0316193Y0222133D03*
X0294793Y0166533D03*
X0235293Y0170433D03*
X0226793Y0183133D03*
X0169093Y0158833D03*
X0273993Y0067433D03*
X0282093Y0058333D03*
X0291293Y0048233D03*
X0334893Y0091733D03*
X0334993Y0091633D03*
X0360093Y0106133D03*
X0347993Y0115233D03*
X0387593Y0165833D03*
X0407793Y0191533D03*
X0428793Y0163533D03*
X0381593Y0298233D03*
M02*
