G75*
%MOIN*%
%OFA0B0*%
%FSLAX25Y25*%
%IPPOS*%
%LPD*%
%AMOC8*
5,1,8,0,0,1.08239X$1,22.5*
%
%ADD10C,0.07050*%
%ADD11C,0.08000*%
%ADD12C,0.03200*%
%ADD13C,0.03000*%
D10*
X0017741Y0020474D02*
X0024791Y0020474D01*
X0066941Y0020474D02*
X0073991Y0020474D01*
X0097739Y0020474D02*
X0104789Y0020474D01*
X0146939Y0020474D02*
X0153989Y0020474D01*
X0177736Y0020474D02*
X0184786Y0020474D01*
X0226936Y0020474D02*
X0233986Y0020474D01*
X0257741Y0020474D02*
X0264791Y0020474D01*
X0306941Y0020474D02*
X0313991Y0020474D01*
X0313991Y0040074D02*
X0306941Y0040074D01*
X0264791Y0040074D02*
X0257741Y0040074D01*
X0233986Y0040074D02*
X0226936Y0040074D01*
X0184786Y0040074D02*
X0177736Y0040074D01*
X0153989Y0040074D02*
X0146939Y0040074D01*
X0104789Y0040074D02*
X0097739Y0040074D01*
X0073991Y0040074D02*
X0066941Y0040074D01*
X0024791Y0040074D02*
X0017741Y0040074D01*
D11*
X0009888Y0040112D03*
X0009888Y0030112D03*
X0009888Y0020112D03*
X0165888Y0022202D03*
X0165888Y0012202D03*
X0165888Y0032202D03*
X0321889Y0030083D03*
X0321889Y0020083D03*
X0321889Y0040083D03*
D12*
X0321844Y0040083D01*
X0310472Y0028711D01*
X0310472Y0020481D01*
X0310466Y0020474D01*
X0261266Y0020474D01*
X0230461Y0020474D02*
X0181261Y0020474D01*
X0172989Y0012202D01*
X0165888Y0012202D01*
X0164160Y0020474D02*
X0150464Y0020474D01*
X0101264Y0020474D01*
X0090478Y0029787D02*
X0081166Y0020474D01*
X0070466Y0020474D01*
X0021266Y0020474D01*
X0090478Y0029787D02*
X0155829Y0029787D01*
X0158108Y0032065D01*
X0165751Y0032065D01*
X0165888Y0032202D01*
X0165888Y0022202D02*
X0164160Y0020474D01*
D13*
X0005500Y0015590D02*
X0005500Y0005500D01*
X0325500Y0005500D01*
X0325500Y0014663D01*
X0324770Y0014241D01*
X0323982Y0013915D01*
X0323159Y0013694D01*
X0322315Y0013583D01*
X0321889Y0013583D01*
X0321889Y0020083D01*
X0321889Y0020083D01*
X0321889Y0013583D01*
X0321463Y0013583D01*
X0320618Y0013694D01*
X0319795Y0013915D01*
X0319008Y0014241D01*
X0318270Y0014667D01*
X0317594Y0015186D01*
X0317257Y0015522D01*
X0315149Y0014649D01*
X0305782Y0014649D01*
X0303641Y0015536D01*
X0302603Y0016574D01*
X0291119Y0016574D01*
X0291413Y0016281D01*
X0292409Y0013876D01*
X0292409Y0011273D01*
X0291413Y0008868D01*
X0289572Y0007027D01*
X0287167Y0006031D01*
X0284564Y0006031D01*
X0282159Y0007027D01*
X0280319Y0008868D01*
X0279322Y0011273D01*
X0279322Y0013876D01*
X0280319Y0016281D01*
X0280612Y0016574D01*
X0269129Y0016574D01*
X0268090Y0015536D01*
X0265949Y0014649D01*
X0256582Y0014649D01*
X0254441Y0015536D01*
X0252803Y0017175D01*
X0251916Y0019316D01*
X0251916Y0021633D01*
X0252803Y0023774D01*
X0254441Y0025413D01*
X0256582Y0026299D01*
X0265949Y0026299D01*
X0268090Y0025413D01*
X0269129Y0024374D01*
X0302603Y0024374D01*
X0303641Y0025413D01*
X0305782Y0026299D01*
X0306572Y0026299D01*
X0306572Y0029486D01*
X0307166Y0030920D01*
X0308263Y0032017D01*
X0310295Y0034049D01*
X0306467Y0034049D01*
X0305530Y0034198D01*
X0304628Y0034491D01*
X0303783Y0034921D01*
X0303016Y0035479D01*
X0302345Y0036149D01*
X0301788Y0036917D01*
X0301357Y0037762D01*
X0301064Y0038664D01*
X0300916Y0039600D01*
X0300916Y0040074D01*
X0310466Y0040074D01*
X0310466Y0040074D01*
X0310466Y0040075D02*
X0310466Y0040075D01*
X0310466Y0046099D01*
X0314465Y0046099D01*
X0315402Y0045951D01*
X0316304Y0045658D01*
X0317149Y0045227D01*
X0317713Y0044817D01*
X0318320Y0045424D01*
X0320635Y0046383D01*
X0323142Y0046383D01*
X0325457Y0045424D01*
X0325500Y0045381D01*
X0325500Y0053500D01*
X0289603Y0053500D01*
X0291419Y0051685D01*
X0292416Y0049277D01*
X0292416Y0046672D01*
X0291419Y0044264D01*
X0289576Y0042422D01*
X0287169Y0041424D01*
X0284563Y0041424D01*
X0282155Y0042422D01*
X0280313Y0044264D01*
X0279316Y0046672D01*
X0279316Y0049277D01*
X0280313Y0051685D01*
X0282128Y0053500D01*
X0209599Y0053500D01*
X0211414Y0051685D01*
X0212411Y0049277D01*
X0212411Y0046672D01*
X0211414Y0044264D01*
X0209571Y0042422D01*
X0207164Y0041424D01*
X0204558Y0041424D01*
X0202151Y0042422D01*
X0200308Y0044264D01*
X0199311Y0046672D01*
X0199311Y0049277D01*
X0200308Y0051685D01*
X0202124Y0053500D01*
X0129601Y0053500D01*
X0131417Y0051685D01*
X0132414Y0049277D01*
X0132414Y0046672D01*
X0131417Y0044264D01*
X0129574Y0042422D01*
X0127167Y0041424D01*
X0124561Y0041424D01*
X0122153Y0042422D01*
X0120311Y0044264D01*
X0119314Y0046672D01*
X0119314Y0049277D01*
X0120311Y0051685D01*
X0122126Y0053500D01*
X0049603Y0053500D01*
X0051419Y0051685D01*
X0052416Y0049277D01*
X0052416Y0046672D01*
X0051419Y0044264D01*
X0049576Y0042422D01*
X0047169Y0041424D01*
X0044563Y0041424D01*
X0042155Y0042422D01*
X0040313Y0044264D01*
X0039316Y0046672D01*
X0039316Y0049277D01*
X0040313Y0051685D01*
X0042128Y0053500D01*
X0005500Y0053500D01*
X0005500Y0044634D01*
X0006319Y0045453D01*
X0008635Y0046412D01*
X0011141Y0046412D01*
X0013456Y0045453D01*
X0014061Y0044848D01*
X0014583Y0045227D01*
X0015428Y0045658D01*
X0016330Y0045951D01*
X0017267Y0046099D01*
X0021266Y0046099D01*
X0021266Y0040075D01*
X0021266Y0040075D01*
X0021266Y0040074D02*
X0030816Y0040074D01*
X0021266Y0040074D01*
X0021266Y0034049D01*
X0025265Y0034049D01*
X0026202Y0034198D01*
X0027104Y0034491D01*
X0027949Y0034921D01*
X0028716Y0035479D01*
X0029386Y0036149D01*
X0029944Y0036917D01*
X0030374Y0037762D01*
X0030667Y0038664D01*
X0030816Y0039600D01*
X0030816Y0040074D01*
X0030816Y0040549D01*
X0030667Y0041485D01*
X0030374Y0042387D01*
X0029944Y0043232D01*
X0029386Y0043999D01*
X0028716Y0044670D01*
X0027949Y0045227D01*
X0027104Y0045658D01*
X0026202Y0045951D01*
X0025265Y0046099D01*
X0021266Y0046099D01*
X0021266Y0040075D01*
X0021266Y0040074D02*
X0021266Y0040074D01*
X0021266Y0040074D01*
X0021266Y0034049D01*
X0017267Y0034049D01*
X0016330Y0034198D01*
X0015428Y0034491D01*
X0014583Y0034921D01*
X0014017Y0035332D01*
X0013797Y0035112D01*
X0015229Y0033681D01*
X0016188Y0031365D01*
X0016188Y0028859D01*
X0015229Y0026544D01*
X0013797Y0025112D01*
X0013969Y0024940D01*
X0014441Y0025413D01*
X0016582Y0026299D01*
X0025949Y0026299D01*
X0028090Y0025413D01*
X0029129Y0024374D01*
X0062603Y0024374D01*
X0063641Y0025413D01*
X0065782Y0026299D01*
X0075149Y0026299D01*
X0077290Y0025413D01*
X0078329Y0024374D01*
X0079550Y0024374D01*
X0087172Y0031996D01*
X0088269Y0033093D01*
X0089702Y0033687D01*
X0154214Y0033687D01*
X0154598Y0034071D01*
X0154463Y0034049D01*
X0150464Y0034049D01*
X0150464Y0040074D01*
X0150464Y0040074D01*
X0150464Y0040074D01*
X0160014Y0040074D01*
X0160014Y0039600D01*
X0159865Y0038664D01*
X0159572Y0037762D01*
X0159142Y0036917D01*
X0158584Y0036149D01*
X0158400Y0035965D01*
X0160742Y0035965D01*
X0162320Y0037543D01*
X0164635Y0038502D01*
X0167141Y0038502D01*
X0169457Y0037543D01*
X0171229Y0035771D01*
X0172188Y0033455D01*
X0172188Y0030949D01*
X0171229Y0028633D01*
X0169798Y0027202D01*
X0171229Y0025771D01*
X0172188Y0023455D01*
X0172188Y0022302D01*
X0172798Y0023774D01*
X0174436Y0025413D01*
X0176577Y0026299D01*
X0185945Y0026299D01*
X0188086Y0025413D01*
X0189124Y0024374D01*
X0222598Y0024374D01*
X0223636Y0025413D01*
X0225777Y0026299D01*
X0235145Y0026299D01*
X0237286Y0025413D01*
X0238924Y0023774D01*
X0239811Y0021633D01*
X0239811Y0019316D01*
X0238924Y0017175D01*
X0237286Y0015536D01*
X0235145Y0014649D01*
X0225777Y0014649D01*
X0223636Y0015536D01*
X0222598Y0016574D01*
X0211115Y0016574D01*
X0211408Y0016281D01*
X0212404Y0013876D01*
X0212404Y0011273D01*
X0211408Y0008868D01*
X0209568Y0007027D01*
X0207163Y0006031D01*
X0204559Y0006031D01*
X0202155Y0007027D01*
X0200314Y0008868D01*
X0199318Y0011273D01*
X0199318Y0013876D01*
X0200314Y0016281D01*
X0200607Y0016574D01*
X0189124Y0016574D01*
X0188086Y0015536D01*
X0185945Y0014649D01*
X0180951Y0014649D01*
X0175198Y0008896D01*
X0173764Y0008302D01*
X0170898Y0008302D01*
X0169457Y0006861D01*
X0167141Y0005902D01*
X0164635Y0005902D01*
X0162320Y0006861D01*
X0160547Y0008633D01*
X0159588Y0010949D01*
X0159588Y0013455D01*
X0160547Y0015771D01*
X0161351Y0016574D01*
X0158327Y0016574D01*
X0157288Y0015536D01*
X0155147Y0014649D01*
X0145780Y0014649D01*
X0143639Y0015536D01*
X0142601Y0016574D01*
X0131117Y0016574D01*
X0131411Y0016281D01*
X0132407Y0013876D01*
X0132407Y0011273D01*
X0131411Y0008868D01*
X0129570Y0007027D01*
X0127165Y0006031D01*
X0124562Y0006031D01*
X0122157Y0007027D01*
X0120317Y0008868D01*
X0119320Y0011273D01*
X0119320Y0013876D01*
X0120317Y0016281D01*
X0120610Y0016574D01*
X0109127Y0016574D01*
X0108088Y0015536D01*
X0105947Y0014649D01*
X0096580Y0014649D01*
X0094439Y0015536D01*
X0092801Y0017175D01*
X0091914Y0019316D01*
X0091914Y0021633D01*
X0092801Y0023774D01*
X0094439Y0025413D01*
X0095584Y0025887D01*
X0092093Y0025887D01*
X0083375Y0017168D01*
X0081941Y0016574D01*
X0078329Y0016574D01*
X0077290Y0015536D01*
X0075149Y0014649D01*
X0065782Y0014649D01*
X0063641Y0015536D01*
X0062603Y0016574D01*
X0051119Y0016574D01*
X0051413Y0016281D01*
X0052409Y0013876D01*
X0052409Y0011273D01*
X0051413Y0008868D01*
X0049572Y0007027D01*
X0047167Y0006031D01*
X0044564Y0006031D01*
X0042159Y0007027D01*
X0040319Y0008868D01*
X0039322Y0011273D01*
X0039322Y0013876D01*
X0040319Y0016281D01*
X0040612Y0016574D01*
X0029129Y0016574D01*
X0028090Y0015536D01*
X0025949Y0014649D01*
X0016582Y0014649D01*
X0014441Y0015536D01*
X0014331Y0015646D01*
X0013456Y0014771D01*
X0011141Y0013812D01*
X0008635Y0013812D01*
X0006319Y0014771D01*
X0005500Y0015590D01*
X0005500Y0015494D02*
X0005596Y0015494D01*
X0014179Y0015494D02*
X0014543Y0015494D01*
X0027989Y0015494D02*
X0039993Y0015494D01*
X0051739Y0015494D02*
X0063743Y0015494D01*
X0077189Y0015494D02*
X0094541Y0015494D01*
X0107987Y0015494D02*
X0119991Y0015494D01*
X0131737Y0015494D02*
X0143741Y0015494D01*
X0157187Y0015494D02*
X0160433Y0015494D01*
X0159588Y0012496D02*
X0132407Y0012496D01*
X0119320Y0012496D02*
X0052409Y0012496D01*
X0039322Y0012496D02*
X0005500Y0012496D01*
X0005500Y0009497D02*
X0040058Y0009497D01*
X0051673Y0009497D02*
X0120056Y0009497D01*
X0131671Y0009497D02*
X0160190Y0009497D01*
X0163195Y0006499D02*
X0128294Y0006499D01*
X0123434Y0006499D02*
X0048296Y0006499D01*
X0043436Y0006499D02*
X0005500Y0006499D01*
X0084699Y0018493D02*
X0092255Y0018493D01*
X0091914Y0021491D02*
X0087698Y0021491D01*
X0090696Y0024490D02*
X0093516Y0024490D01*
X0079665Y0024490D02*
X0078213Y0024490D01*
X0082664Y0027488D02*
X0015620Y0027488D01*
X0016188Y0030487D02*
X0085663Y0030487D01*
X0089216Y0033485D02*
X0015310Y0033485D01*
X0021266Y0036484D02*
X0021266Y0036484D01*
X0029629Y0036484D02*
X0062102Y0036484D01*
X0062345Y0036149D02*
X0063016Y0035479D01*
X0063783Y0034921D01*
X0064628Y0034491D01*
X0065530Y0034198D01*
X0066467Y0034049D01*
X0070466Y0034049D01*
X0074465Y0034049D01*
X0075402Y0034198D01*
X0076304Y0034491D01*
X0077149Y0034921D01*
X0077916Y0035479D01*
X0078586Y0036149D01*
X0079144Y0036917D01*
X0079574Y0037762D01*
X0079867Y0038664D01*
X0080016Y0039600D01*
X0080016Y0040074D01*
X0070466Y0040074D01*
X0070466Y0034049D01*
X0070466Y0040074D01*
X0070466Y0040074D01*
X0070466Y0040074D01*
X0080016Y0040074D01*
X0080016Y0040549D01*
X0079867Y0041485D01*
X0079574Y0042387D01*
X0079144Y0043232D01*
X0078586Y0043999D01*
X0077916Y0044670D01*
X0077149Y0045227D01*
X0076304Y0045658D01*
X0075402Y0045951D01*
X0074465Y0046099D01*
X0070466Y0046099D01*
X0070466Y0040075D01*
X0070466Y0040075D01*
X0070466Y0046099D01*
X0066467Y0046099D01*
X0065530Y0045951D01*
X0064628Y0045658D01*
X0063783Y0045227D01*
X0063016Y0044670D01*
X0062345Y0043999D01*
X0061788Y0043232D01*
X0061357Y0042387D01*
X0061064Y0041485D01*
X0060916Y0040549D01*
X0060916Y0040074D01*
X0060916Y0039600D01*
X0061064Y0038664D01*
X0061357Y0037762D01*
X0061788Y0036917D01*
X0062345Y0036149D01*
X0070466Y0036484D02*
X0070466Y0036484D01*
X0078829Y0036484D02*
X0092900Y0036484D01*
X0093143Y0036149D02*
X0093814Y0035479D01*
X0094581Y0034921D01*
X0095426Y0034491D01*
X0096328Y0034198D01*
X0097265Y0034049D01*
X0101264Y0034049D01*
X0105263Y0034049D01*
X0106200Y0034198D01*
X0107102Y0034491D01*
X0107947Y0034921D01*
X0108714Y0035479D01*
X0109384Y0036149D01*
X0109942Y0036917D01*
X0110372Y0037762D01*
X0110665Y0038664D01*
X0110814Y0039600D01*
X0110814Y0040074D01*
X0101264Y0040074D01*
X0101264Y0034049D01*
X0101264Y0040074D01*
X0101264Y0040074D01*
X0101264Y0040074D01*
X0110814Y0040074D01*
X0110814Y0040549D01*
X0110665Y0041485D01*
X0110372Y0042387D01*
X0109942Y0043232D01*
X0109384Y0043999D01*
X0108714Y0044670D01*
X0107947Y0045227D01*
X0107102Y0045658D01*
X0106200Y0045951D01*
X0105263Y0046099D01*
X0101264Y0046099D01*
X0101264Y0040075D01*
X0101264Y0040075D01*
X0101264Y0046099D01*
X0097265Y0046099D01*
X0096328Y0045951D01*
X0095426Y0045658D01*
X0094581Y0045227D01*
X0093814Y0044670D01*
X0093143Y0043999D01*
X0092586Y0043232D01*
X0092155Y0042387D01*
X0091862Y0041485D01*
X0091714Y0040549D01*
X0091714Y0040074D01*
X0091714Y0039600D01*
X0091862Y0038664D01*
X0092155Y0037762D01*
X0092586Y0036917D01*
X0093143Y0036149D01*
X0101264Y0036484D02*
X0101264Y0036484D01*
X0109627Y0036484D02*
X0142100Y0036484D01*
X0142343Y0036149D02*
X0141786Y0036917D01*
X0141355Y0037762D01*
X0141062Y0038664D01*
X0140914Y0039600D01*
X0140914Y0040074D01*
X0150464Y0040074D01*
X0150464Y0034049D01*
X0146465Y0034049D01*
X0145528Y0034198D01*
X0144626Y0034491D01*
X0143781Y0034921D01*
X0143014Y0035479D01*
X0142343Y0036149D01*
X0150464Y0036484D02*
X0150464Y0036484D01*
X0158827Y0036484D02*
X0161260Y0036484D01*
X0170516Y0036484D02*
X0172898Y0036484D01*
X0173140Y0036149D02*
X0173811Y0035479D01*
X0174578Y0034921D01*
X0175423Y0034491D01*
X0176325Y0034198D01*
X0177262Y0034049D01*
X0181261Y0034049D01*
X0185260Y0034049D01*
X0186197Y0034198D01*
X0187099Y0034491D01*
X0187944Y0034921D01*
X0188711Y0035479D01*
X0189382Y0036149D01*
X0189939Y0036917D01*
X0190370Y0037762D01*
X0190663Y0038664D01*
X0190811Y0039600D01*
X0190811Y0040074D01*
X0181261Y0040074D01*
X0181261Y0034049D01*
X0181261Y0040074D01*
X0181261Y0040074D01*
X0171711Y0040074D01*
X0171711Y0039600D01*
X0171859Y0038664D01*
X0172152Y0037762D01*
X0172583Y0036917D01*
X0173140Y0036149D01*
X0181261Y0036484D02*
X0181261Y0036484D01*
X0189624Y0036484D02*
X0222098Y0036484D01*
X0222340Y0036149D02*
X0223011Y0035479D01*
X0223778Y0034921D01*
X0224623Y0034491D01*
X0225525Y0034198D01*
X0226462Y0034049D01*
X0230461Y0034049D01*
X0234460Y0034049D01*
X0235397Y0034198D01*
X0236299Y0034491D01*
X0237144Y0034921D01*
X0237911Y0035479D01*
X0238582Y0036149D01*
X0239139Y0036917D01*
X0239570Y0037762D01*
X0239863Y0038664D01*
X0240011Y0039600D01*
X0240011Y0040074D01*
X0230461Y0040074D01*
X0230461Y0034049D01*
X0230461Y0040074D01*
X0230461Y0040074D01*
X0220911Y0040074D01*
X0220911Y0039600D01*
X0221059Y0038664D01*
X0221352Y0037762D01*
X0221783Y0036917D01*
X0222340Y0036149D01*
X0230461Y0036484D02*
X0230461Y0036484D01*
X0238824Y0036484D02*
X0252902Y0036484D01*
X0253145Y0036149D02*
X0253816Y0035479D01*
X0254583Y0034921D01*
X0255428Y0034491D01*
X0256330Y0034198D01*
X0257267Y0034049D01*
X0261266Y0034049D01*
X0265265Y0034049D01*
X0266202Y0034198D01*
X0267104Y0034491D01*
X0267949Y0034921D01*
X0268716Y0035479D01*
X0269386Y0036149D01*
X0269944Y0036917D01*
X0270374Y0037762D01*
X0270667Y0038664D01*
X0270816Y0039600D01*
X0270816Y0040074D01*
X0261266Y0040074D01*
X0261266Y0034049D01*
X0261266Y0040074D01*
X0261266Y0040074D01*
X0261266Y0040074D01*
X0270816Y0040074D01*
X0270816Y0040549D01*
X0270667Y0041485D01*
X0270374Y0042387D01*
X0269944Y0043232D01*
X0269386Y0043999D01*
X0268716Y0044670D01*
X0267949Y0045227D01*
X0267104Y0045658D01*
X0266202Y0045951D01*
X0265265Y0046099D01*
X0261266Y0046099D01*
X0261266Y0040075D01*
X0261266Y0040075D01*
X0261266Y0046099D01*
X0257267Y0046099D01*
X0256330Y0045951D01*
X0255428Y0045658D01*
X0254583Y0045227D01*
X0253816Y0044670D01*
X0253145Y0043999D01*
X0252588Y0043232D01*
X0252157Y0042387D01*
X0251864Y0041485D01*
X0251716Y0040549D01*
X0251716Y0040074D01*
X0251716Y0039600D01*
X0251864Y0038664D01*
X0252157Y0037762D01*
X0252588Y0036917D01*
X0253145Y0036149D01*
X0261266Y0036484D02*
X0261266Y0036484D01*
X0269629Y0036484D02*
X0302102Y0036484D01*
X0300934Y0039482D02*
X0270797Y0039482D01*
X0261266Y0039482D02*
X0261266Y0039482D01*
X0261266Y0040074D02*
X0251716Y0040074D01*
X0261266Y0040074D01*
X0261266Y0040074D01*
X0251734Y0039482D02*
X0239992Y0039482D01*
X0240011Y0040074D02*
X0240011Y0040549D01*
X0239863Y0041485D01*
X0239570Y0042387D01*
X0239139Y0043232D01*
X0238582Y0043999D01*
X0237911Y0044670D01*
X0237144Y0045227D01*
X0236299Y0045658D01*
X0235397Y0045951D01*
X0234460Y0046099D01*
X0230461Y0046099D01*
X0226462Y0046099D01*
X0225525Y0045951D01*
X0224623Y0045658D01*
X0223778Y0045227D01*
X0223011Y0044670D01*
X0222340Y0043999D01*
X0221783Y0043232D01*
X0221352Y0042387D01*
X0221059Y0041485D01*
X0220911Y0040549D01*
X0220911Y0040074D01*
X0230461Y0040074D01*
X0230461Y0040074D01*
X0230461Y0040074D01*
X0240011Y0040074D01*
X0230461Y0040075D02*
X0230461Y0040075D01*
X0230461Y0046099D01*
X0230461Y0040075D01*
X0230461Y0039482D02*
X0230461Y0039482D01*
X0220930Y0039482D02*
X0190792Y0039482D01*
X0190811Y0040074D02*
X0190811Y0040549D01*
X0190663Y0041485D01*
X0190370Y0042387D01*
X0189939Y0043232D01*
X0189382Y0043999D01*
X0188711Y0044670D01*
X0187944Y0045227D01*
X0187099Y0045658D01*
X0186197Y0045951D01*
X0185260Y0046099D01*
X0181261Y0046099D01*
X0177262Y0046099D01*
X0176325Y0045951D01*
X0175423Y0045658D01*
X0174578Y0045227D01*
X0173811Y0044670D01*
X0173140Y0043999D01*
X0172583Y0043232D01*
X0172152Y0042387D01*
X0171859Y0041485D01*
X0171711Y0040549D01*
X0171711Y0040074D01*
X0181261Y0040074D01*
X0181261Y0040074D01*
X0181261Y0040074D01*
X0190811Y0040074D01*
X0181261Y0040075D02*
X0181261Y0040075D01*
X0181261Y0046099D01*
X0181261Y0040075D01*
X0181261Y0039482D02*
X0181261Y0039482D01*
X0171730Y0039482D02*
X0159995Y0039482D01*
X0160014Y0040074D02*
X0160014Y0040549D01*
X0159865Y0041485D01*
X0159572Y0042387D01*
X0159142Y0043232D01*
X0158584Y0043999D01*
X0157914Y0044670D01*
X0157147Y0045227D01*
X0156302Y0045658D01*
X0155400Y0045951D01*
X0154463Y0046099D01*
X0150464Y0046099D01*
X0150464Y0040075D01*
X0150464Y0040075D01*
X0150464Y0046099D01*
X0146465Y0046099D01*
X0145528Y0045951D01*
X0144626Y0045658D01*
X0143781Y0045227D01*
X0143014Y0044670D01*
X0142343Y0043999D01*
X0141786Y0043232D01*
X0141355Y0042387D01*
X0141062Y0041485D01*
X0140914Y0040549D01*
X0140914Y0040074D01*
X0150464Y0040074D01*
X0160014Y0040074D01*
X0150464Y0040074D02*
X0150464Y0040074D01*
X0150464Y0039482D02*
X0150464Y0039482D01*
X0140932Y0039482D02*
X0110795Y0039482D01*
X0101264Y0039482D02*
X0101264Y0039482D01*
X0101264Y0040074D02*
X0091714Y0040074D01*
X0101264Y0040074D01*
X0101264Y0040074D01*
X0091732Y0039482D02*
X0079997Y0039482D01*
X0070466Y0039482D02*
X0070466Y0039482D01*
X0070466Y0040074D02*
X0060916Y0040074D01*
X0070466Y0040074D01*
X0070466Y0040074D01*
X0060934Y0039482D02*
X0030797Y0039482D01*
X0021266Y0039482D02*
X0021266Y0039482D01*
X0021266Y0042481D02*
X0021266Y0042481D01*
X0030327Y0042481D02*
X0042096Y0042481D01*
X0049635Y0042481D02*
X0061405Y0042481D01*
X0070466Y0042481D02*
X0070466Y0042481D01*
X0079527Y0042481D02*
X0092203Y0042481D01*
X0101264Y0042481D02*
X0101264Y0042481D01*
X0110325Y0042481D02*
X0122094Y0042481D01*
X0129633Y0042481D02*
X0141403Y0042481D01*
X0150464Y0042481D02*
X0150464Y0042481D01*
X0159525Y0042481D02*
X0172200Y0042481D01*
X0181261Y0042481D02*
X0181261Y0042481D01*
X0190322Y0042481D02*
X0202092Y0042481D01*
X0209630Y0042481D02*
X0221400Y0042481D01*
X0230461Y0042481D02*
X0230461Y0042481D01*
X0239522Y0042481D02*
X0252205Y0042481D01*
X0261266Y0042481D02*
X0261266Y0042481D01*
X0270327Y0042481D02*
X0282096Y0042481D01*
X0289635Y0042481D02*
X0301405Y0042481D01*
X0301357Y0042387D02*
X0301064Y0041485D01*
X0300916Y0040549D01*
X0300916Y0040074D01*
X0310466Y0040074D01*
X0310466Y0040075D02*
X0310466Y0046099D01*
X0306467Y0046099D01*
X0305530Y0045951D01*
X0304628Y0045658D01*
X0303783Y0045227D01*
X0303016Y0044670D01*
X0302345Y0043999D01*
X0301788Y0043232D01*
X0301357Y0042387D01*
X0310466Y0042481D02*
X0310466Y0042481D01*
X0310466Y0045479D02*
X0310466Y0045479D01*
X0316655Y0045479D02*
X0318453Y0045479D01*
X0325324Y0045479D02*
X0325500Y0045479D01*
X0325500Y0048478D02*
X0292416Y0048478D01*
X0279316Y0048478D02*
X0212411Y0048478D01*
X0199311Y0048478D02*
X0132414Y0048478D01*
X0119314Y0048478D02*
X0052416Y0048478D01*
X0039316Y0048478D02*
X0005500Y0048478D01*
X0005500Y0051476D02*
X0040227Y0051476D01*
X0051505Y0051476D02*
X0120225Y0051476D01*
X0131503Y0051476D02*
X0200222Y0051476D01*
X0211500Y0051476D02*
X0280227Y0051476D01*
X0291505Y0051476D02*
X0325500Y0051476D01*
X0304277Y0045479D02*
X0291922Y0045479D01*
X0279810Y0045479D02*
X0267455Y0045479D01*
X0261266Y0045479D02*
X0261266Y0045479D01*
X0255077Y0045479D02*
X0236650Y0045479D01*
X0230461Y0045479D02*
X0230461Y0045479D01*
X0224272Y0045479D02*
X0211917Y0045479D01*
X0199805Y0045479D02*
X0187450Y0045479D01*
X0181261Y0045479D02*
X0181261Y0045479D01*
X0175072Y0045479D02*
X0156653Y0045479D01*
X0150464Y0045479D02*
X0150464Y0045479D01*
X0144275Y0045479D02*
X0131920Y0045479D01*
X0119808Y0045479D02*
X0107453Y0045479D01*
X0101264Y0045479D02*
X0101264Y0045479D01*
X0095075Y0045479D02*
X0076655Y0045479D01*
X0070466Y0045479D02*
X0070466Y0045479D01*
X0064277Y0045479D02*
X0051922Y0045479D01*
X0039810Y0045479D02*
X0027455Y0045479D01*
X0021266Y0045479D02*
X0021266Y0045479D01*
X0015077Y0045479D02*
X0013393Y0045479D01*
X0006382Y0045479D02*
X0005500Y0045479D01*
X0029013Y0024490D02*
X0062718Y0024490D01*
X0168581Y0006499D02*
X0203431Y0006499D01*
X0208291Y0006499D02*
X0283436Y0006499D01*
X0288296Y0006499D02*
X0325500Y0006499D01*
X0325500Y0009497D02*
X0291673Y0009497D01*
X0280058Y0009497D02*
X0211669Y0009497D01*
X0200053Y0009497D02*
X0175799Y0009497D01*
X0178798Y0012496D02*
X0199318Y0012496D01*
X0212404Y0012496D02*
X0279322Y0012496D01*
X0292409Y0012496D02*
X0325500Y0012496D01*
X0321889Y0015494D02*
X0321889Y0015494D01*
X0317285Y0015494D02*
X0317189Y0015494D01*
X0303743Y0015494D02*
X0291739Y0015494D01*
X0279993Y0015494D02*
X0267989Y0015494D01*
X0254543Y0015494D02*
X0237184Y0015494D01*
X0223738Y0015494D02*
X0211734Y0015494D01*
X0199988Y0015494D02*
X0187984Y0015494D01*
X0189009Y0024490D02*
X0222713Y0024490D01*
X0238209Y0024490D02*
X0253518Y0024490D01*
X0251916Y0021491D02*
X0239811Y0021491D01*
X0239470Y0018493D02*
X0252257Y0018493D01*
X0269013Y0024490D02*
X0302718Y0024490D01*
X0306572Y0027488D02*
X0170084Y0027488D01*
X0171760Y0024490D02*
X0173513Y0024490D01*
X0171997Y0030487D02*
X0306986Y0030487D01*
X0309731Y0033485D02*
X0172176Y0033485D01*
X0321889Y0018493D02*
X0321889Y0018493D01*
M02*
