G75*
%MOIN*%
%OFA0B0*%
%FSLAX25Y25*%
%IPPOS*%
%LPD*%
%AMOC8*
5,1,8,0,0,1.08239X$1,22.5*
%
%ADD10C,0.00000*%
D10*
X0005500Y0002500D02*
X0325500Y0002500D01*
X0325607Y0002502D01*
X0325714Y0002508D01*
X0325821Y0002517D01*
X0325927Y0002531D01*
X0326033Y0002548D01*
X0326138Y0002569D01*
X0326242Y0002593D01*
X0326345Y0002622D01*
X0326447Y0002654D01*
X0326548Y0002689D01*
X0326648Y0002728D01*
X0326746Y0002771D01*
X0326843Y0002817D01*
X0326938Y0002867D01*
X0327031Y0002920D01*
X0327122Y0002976D01*
X0327211Y0003036D01*
X0327298Y0003098D01*
X0327382Y0003164D01*
X0327465Y0003233D01*
X0327544Y0003304D01*
X0327621Y0003379D01*
X0327696Y0003456D01*
X0327767Y0003535D01*
X0327836Y0003618D01*
X0327902Y0003702D01*
X0327964Y0003789D01*
X0328024Y0003878D01*
X0328080Y0003969D01*
X0328133Y0004062D01*
X0328183Y0004157D01*
X0328229Y0004254D01*
X0328272Y0004352D01*
X0328311Y0004452D01*
X0328346Y0004553D01*
X0328378Y0004655D01*
X0328407Y0004758D01*
X0328431Y0004862D01*
X0328452Y0004967D01*
X0328469Y0005073D01*
X0328483Y0005179D01*
X0328492Y0005286D01*
X0328498Y0005393D01*
X0328500Y0005500D01*
X0328500Y0053500D01*
X0328498Y0053607D01*
X0328492Y0053714D01*
X0328483Y0053821D01*
X0328469Y0053927D01*
X0328452Y0054033D01*
X0328431Y0054138D01*
X0328407Y0054242D01*
X0328378Y0054345D01*
X0328346Y0054447D01*
X0328311Y0054548D01*
X0328272Y0054648D01*
X0328229Y0054746D01*
X0328183Y0054843D01*
X0328133Y0054938D01*
X0328080Y0055031D01*
X0328024Y0055122D01*
X0327964Y0055211D01*
X0327902Y0055298D01*
X0327836Y0055382D01*
X0327767Y0055465D01*
X0327696Y0055544D01*
X0327621Y0055621D01*
X0327544Y0055696D01*
X0327465Y0055767D01*
X0327382Y0055836D01*
X0327298Y0055902D01*
X0327211Y0055964D01*
X0327122Y0056024D01*
X0327031Y0056080D01*
X0326938Y0056133D01*
X0326843Y0056183D01*
X0326746Y0056229D01*
X0326648Y0056272D01*
X0326548Y0056311D01*
X0326447Y0056346D01*
X0326345Y0056378D01*
X0326242Y0056407D01*
X0326138Y0056431D01*
X0326033Y0056452D01*
X0325927Y0056469D01*
X0325821Y0056483D01*
X0325714Y0056492D01*
X0325607Y0056498D01*
X0325500Y0056500D01*
X0005500Y0056500D01*
X0005393Y0056498D01*
X0005286Y0056492D01*
X0005179Y0056483D01*
X0005073Y0056469D01*
X0004967Y0056452D01*
X0004862Y0056431D01*
X0004758Y0056407D01*
X0004655Y0056378D01*
X0004553Y0056346D01*
X0004452Y0056311D01*
X0004352Y0056272D01*
X0004254Y0056229D01*
X0004157Y0056183D01*
X0004062Y0056133D01*
X0003969Y0056080D01*
X0003878Y0056024D01*
X0003789Y0055964D01*
X0003702Y0055902D01*
X0003618Y0055836D01*
X0003535Y0055767D01*
X0003456Y0055696D01*
X0003379Y0055621D01*
X0003304Y0055544D01*
X0003233Y0055465D01*
X0003164Y0055382D01*
X0003098Y0055298D01*
X0003036Y0055211D01*
X0002976Y0055122D01*
X0002920Y0055031D01*
X0002867Y0054938D01*
X0002817Y0054843D01*
X0002771Y0054746D01*
X0002728Y0054648D01*
X0002689Y0054548D01*
X0002654Y0054447D01*
X0002622Y0054345D01*
X0002593Y0054242D01*
X0002569Y0054138D01*
X0002548Y0054033D01*
X0002531Y0053927D01*
X0002517Y0053821D01*
X0002508Y0053714D01*
X0002502Y0053607D01*
X0002500Y0053500D01*
X0002500Y0005500D01*
X0002502Y0005393D01*
X0002508Y0005286D01*
X0002517Y0005179D01*
X0002531Y0005073D01*
X0002548Y0004967D01*
X0002569Y0004862D01*
X0002593Y0004758D01*
X0002622Y0004655D01*
X0002654Y0004553D01*
X0002689Y0004452D01*
X0002728Y0004352D01*
X0002771Y0004254D01*
X0002817Y0004157D01*
X0002867Y0004062D01*
X0002920Y0003969D01*
X0002976Y0003878D01*
X0003036Y0003789D01*
X0003098Y0003702D01*
X0003164Y0003618D01*
X0003233Y0003535D01*
X0003304Y0003456D01*
X0003379Y0003379D01*
X0003456Y0003304D01*
X0003535Y0003233D01*
X0003618Y0003164D01*
X0003702Y0003098D01*
X0003789Y0003036D01*
X0003878Y0002976D01*
X0003969Y0002920D01*
X0004062Y0002867D01*
X0004157Y0002817D01*
X0004254Y0002771D01*
X0004352Y0002728D01*
X0004452Y0002689D01*
X0004553Y0002654D01*
X0004655Y0002622D01*
X0004758Y0002593D01*
X0004862Y0002569D01*
X0004967Y0002548D01*
X0005073Y0002531D01*
X0005179Y0002517D01*
X0005286Y0002508D01*
X0005393Y0002502D01*
X0005500Y0002500D01*
X0042323Y0012574D02*
X0042325Y0012692D01*
X0042331Y0012811D01*
X0042341Y0012929D01*
X0042355Y0013046D01*
X0042372Y0013163D01*
X0042394Y0013280D01*
X0042420Y0013395D01*
X0042449Y0013510D01*
X0042482Y0013624D01*
X0042519Y0013736D01*
X0042560Y0013847D01*
X0042604Y0013957D01*
X0042652Y0014065D01*
X0042704Y0014172D01*
X0042759Y0014277D01*
X0042818Y0014380D01*
X0042880Y0014480D01*
X0042945Y0014579D01*
X0043014Y0014676D01*
X0043085Y0014770D01*
X0043160Y0014861D01*
X0043238Y0014951D01*
X0043319Y0015037D01*
X0043403Y0015121D01*
X0043489Y0015202D01*
X0043579Y0015280D01*
X0043670Y0015355D01*
X0043764Y0015426D01*
X0043861Y0015495D01*
X0043960Y0015560D01*
X0044060Y0015622D01*
X0044163Y0015681D01*
X0044268Y0015736D01*
X0044375Y0015788D01*
X0044483Y0015836D01*
X0044593Y0015880D01*
X0044704Y0015921D01*
X0044816Y0015958D01*
X0044930Y0015991D01*
X0045045Y0016020D01*
X0045160Y0016046D01*
X0045277Y0016068D01*
X0045394Y0016085D01*
X0045511Y0016099D01*
X0045629Y0016109D01*
X0045748Y0016115D01*
X0045866Y0016117D01*
X0045984Y0016115D01*
X0046103Y0016109D01*
X0046221Y0016099D01*
X0046338Y0016085D01*
X0046455Y0016068D01*
X0046572Y0016046D01*
X0046687Y0016020D01*
X0046802Y0015991D01*
X0046916Y0015958D01*
X0047028Y0015921D01*
X0047139Y0015880D01*
X0047249Y0015836D01*
X0047357Y0015788D01*
X0047464Y0015736D01*
X0047569Y0015681D01*
X0047672Y0015622D01*
X0047772Y0015560D01*
X0047871Y0015495D01*
X0047968Y0015426D01*
X0048062Y0015355D01*
X0048153Y0015280D01*
X0048243Y0015202D01*
X0048329Y0015121D01*
X0048413Y0015037D01*
X0048494Y0014951D01*
X0048572Y0014861D01*
X0048647Y0014770D01*
X0048718Y0014676D01*
X0048787Y0014579D01*
X0048852Y0014480D01*
X0048914Y0014380D01*
X0048973Y0014277D01*
X0049028Y0014172D01*
X0049080Y0014065D01*
X0049128Y0013957D01*
X0049172Y0013847D01*
X0049213Y0013736D01*
X0049250Y0013624D01*
X0049283Y0013510D01*
X0049312Y0013395D01*
X0049338Y0013280D01*
X0049360Y0013163D01*
X0049377Y0013046D01*
X0049391Y0012929D01*
X0049401Y0012811D01*
X0049407Y0012692D01*
X0049409Y0012574D01*
X0049407Y0012456D01*
X0049401Y0012337D01*
X0049391Y0012219D01*
X0049377Y0012102D01*
X0049360Y0011985D01*
X0049338Y0011868D01*
X0049312Y0011753D01*
X0049283Y0011638D01*
X0049250Y0011524D01*
X0049213Y0011412D01*
X0049172Y0011301D01*
X0049128Y0011191D01*
X0049080Y0011083D01*
X0049028Y0010976D01*
X0048973Y0010871D01*
X0048914Y0010768D01*
X0048852Y0010668D01*
X0048787Y0010569D01*
X0048718Y0010472D01*
X0048647Y0010378D01*
X0048572Y0010287D01*
X0048494Y0010197D01*
X0048413Y0010111D01*
X0048329Y0010027D01*
X0048243Y0009946D01*
X0048153Y0009868D01*
X0048062Y0009793D01*
X0047968Y0009722D01*
X0047871Y0009653D01*
X0047772Y0009588D01*
X0047672Y0009526D01*
X0047569Y0009467D01*
X0047464Y0009412D01*
X0047357Y0009360D01*
X0047249Y0009312D01*
X0047139Y0009268D01*
X0047028Y0009227D01*
X0046916Y0009190D01*
X0046802Y0009157D01*
X0046687Y0009128D01*
X0046572Y0009102D01*
X0046455Y0009080D01*
X0046338Y0009063D01*
X0046221Y0009049D01*
X0046103Y0009039D01*
X0045984Y0009033D01*
X0045866Y0009031D01*
X0045748Y0009033D01*
X0045629Y0009039D01*
X0045511Y0009049D01*
X0045394Y0009063D01*
X0045277Y0009080D01*
X0045160Y0009102D01*
X0045045Y0009128D01*
X0044930Y0009157D01*
X0044816Y0009190D01*
X0044704Y0009227D01*
X0044593Y0009268D01*
X0044483Y0009312D01*
X0044375Y0009360D01*
X0044268Y0009412D01*
X0044163Y0009467D01*
X0044060Y0009526D01*
X0043960Y0009588D01*
X0043861Y0009653D01*
X0043764Y0009722D01*
X0043670Y0009793D01*
X0043579Y0009868D01*
X0043489Y0009946D01*
X0043403Y0010027D01*
X0043319Y0010111D01*
X0043238Y0010197D01*
X0043160Y0010287D01*
X0043085Y0010378D01*
X0043014Y0010472D01*
X0042945Y0010569D01*
X0042880Y0010668D01*
X0042818Y0010768D01*
X0042759Y0010871D01*
X0042704Y0010976D01*
X0042652Y0011083D01*
X0042604Y0011191D01*
X0042560Y0011301D01*
X0042519Y0011412D01*
X0042482Y0011524D01*
X0042449Y0011638D01*
X0042420Y0011753D01*
X0042394Y0011868D01*
X0042372Y0011985D01*
X0042355Y0012102D01*
X0042341Y0012219D01*
X0042331Y0012337D01*
X0042325Y0012456D01*
X0042323Y0012574D01*
X0122321Y0012574D02*
X0122323Y0012692D01*
X0122329Y0012811D01*
X0122339Y0012929D01*
X0122353Y0013046D01*
X0122370Y0013163D01*
X0122392Y0013280D01*
X0122418Y0013395D01*
X0122447Y0013510D01*
X0122480Y0013624D01*
X0122517Y0013736D01*
X0122558Y0013847D01*
X0122602Y0013957D01*
X0122650Y0014065D01*
X0122702Y0014172D01*
X0122757Y0014277D01*
X0122816Y0014380D01*
X0122878Y0014480D01*
X0122943Y0014579D01*
X0123012Y0014676D01*
X0123083Y0014770D01*
X0123158Y0014861D01*
X0123236Y0014951D01*
X0123317Y0015037D01*
X0123401Y0015121D01*
X0123487Y0015202D01*
X0123577Y0015280D01*
X0123668Y0015355D01*
X0123762Y0015426D01*
X0123859Y0015495D01*
X0123958Y0015560D01*
X0124058Y0015622D01*
X0124161Y0015681D01*
X0124266Y0015736D01*
X0124373Y0015788D01*
X0124481Y0015836D01*
X0124591Y0015880D01*
X0124702Y0015921D01*
X0124814Y0015958D01*
X0124928Y0015991D01*
X0125043Y0016020D01*
X0125158Y0016046D01*
X0125275Y0016068D01*
X0125392Y0016085D01*
X0125509Y0016099D01*
X0125627Y0016109D01*
X0125746Y0016115D01*
X0125864Y0016117D01*
X0125982Y0016115D01*
X0126101Y0016109D01*
X0126219Y0016099D01*
X0126336Y0016085D01*
X0126453Y0016068D01*
X0126570Y0016046D01*
X0126685Y0016020D01*
X0126800Y0015991D01*
X0126914Y0015958D01*
X0127026Y0015921D01*
X0127137Y0015880D01*
X0127247Y0015836D01*
X0127355Y0015788D01*
X0127462Y0015736D01*
X0127567Y0015681D01*
X0127670Y0015622D01*
X0127770Y0015560D01*
X0127869Y0015495D01*
X0127966Y0015426D01*
X0128060Y0015355D01*
X0128151Y0015280D01*
X0128241Y0015202D01*
X0128327Y0015121D01*
X0128411Y0015037D01*
X0128492Y0014951D01*
X0128570Y0014861D01*
X0128645Y0014770D01*
X0128716Y0014676D01*
X0128785Y0014579D01*
X0128850Y0014480D01*
X0128912Y0014380D01*
X0128971Y0014277D01*
X0129026Y0014172D01*
X0129078Y0014065D01*
X0129126Y0013957D01*
X0129170Y0013847D01*
X0129211Y0013736D01*
X0129248Y0013624D01*
X0129281Y0013510D01*
X0129310Y0013395D01*
X0129336Y0013280D01*
X0129358Y0013163D01*
X0129375Y0013046D01*
X0129389Y0012929D01*
X0129399Y0012811D01*
X0129405Y0012692D01*
X0129407Y0012574D01*
X0129405Y0012456D01*
X0129399Y0012337D01*
X0129389Y0012219D01*
X0129375Y0012102D01*
X0129358Y0011985D01*
X0129336Y0011868D01*
X0129310Y0011753D01*
X0129281Y0011638D01*
X0129248Y0011524D01*
X0129211Y0011412D01*
X0129170Y0011301D01*
X0129126Y0011191D01*
X0129078Y0011083D01*
X0129026Y0010976D01*
X0128971Y0010871D01*
X0128912Y0010768D01*
X0128850Y0010668D01*
X0128785Y0010569D01*
X0128716Y0010472D01*
X0128645Y0010378D01*
X0128570Y0010287D01*
X0128492Y0010197D01*
X0128411Y0010111D01*
X0128327Y0010027D01*
X0128241Y0009946D01*
X0128151Y0009868D01*
X0128060Y0009793D01*
X0127966Y0009722D01*
X0127869Y0009653D01*
X0127770Y0009588D01*
X0127670Y0009526D01*
X0127567Y0009467D01*
X0127462Y0009412D01*
X0127355Y0009360D01*
X0127247Y0009312D01*
X0127137Y0009268D01*
X0127026Y0009227D01*
X0126914Y0009190D01*
X0126800Y0009157D01*
X0126685Y0009128D01*
X0126570Y0009102D01*
X0126453Y0009080D01*
X0126336Y0009063D01*
X0126219Y0009049D01*
X0126101Y0009039D01*
X0125982Y0009033D01*
X0125864Y0009031D01*
X0125746Y0009033D01*
X0125627Y0009039D01*
X0125509Y0009049D01*
X0125392Y0009063D01*
X0125275Y0009080D01*
X0125158Y0009102D01*
X0125043Y0009128D01*
X0124928Y0009157D01*
X0124814Y0009190D01*
X0124702Y0009227D01*
X0124591Y0009268D01*
X0124481Y0009312D01*
X0124373Y0009360D01*
X0124266Y0009412D01*
X0124161Y0009467D01*
X0124058Y0009526D01*
X0123958Y0009588D01*
X0123859Y0009653D01*
X0123762Y0009722D01*
X0123668Y0009793D01*
X0123577Y0009868D01*
X0123487Y0009946D01*
X0123401Y0010027D01*
X0123317Y0010111D01*
X0123236Y0010197D01*
X0123158Y0010287D01*
X0123083Y0010378D01*
X0123012Y0010472D01*
X0122943Y0010569D01*
X0122878Y0010668D01*
X0122816Y0010768D01*
X0122757Y0010871D01*
X0122702Y0010976D01*
X0122650Y0011083D01*
X0122602Y0011191D01*
X0122558Y0011301D01*
X0122517Y0011412D01*
X0122480Y0011524D01*
X0122447Y0011638D01*
X0122418Y0011753D01*
X0122392Y0011868D01*
X0122370Y0011985D01*
X0122353Y0012102D01*
X0122339Y0012219D01*
X0122329Y0012337D01*
X0122323Y0012456D01*
X0122321Y0012574D01*
X0202318Y0012574D02*
X0202320Y0012692D01*
X0202326Y0012811D01*
X0202336Y0012929D01*
X0202350Y0013046D01*
X0202367Y0013163D01*
X0202389Y0013280D01*
X0202415Y0013395D01*
X0202444Y0013510D01*
X0202477Y0013624D01*
X0202514Y0013736D01*
X0202555Y0013847D01*
X0202599Y0013957D01*
X0202647Y0014065D01*
X0202699Y0014172D01*
X0202754Y0014277D01*
X0202813Y0014380D01*
X0202875Y0014480D01*
X0202940Y0014579D01*
X0203009Y0014676D01*
X0203080Y0014770D01*
X0203155Y0014861D01*
X0203233Y0014951D01*
X0203314Y0015037D01*
X0203398Y0015121D01*
X0203484Y0015202D01*
X0203574Y0015280D01*
X0203665Y0015355D01*
X0203759Y0015426D01*
X0203856Y0015495D01*
X0203955Y0015560D01*
X0204055Y0015622D01*
X0204158Y0015681D01*
X0204263Y0015736D01*
X0204370Y0015788D01*
X0204478Y0015836D01*
X0204588Y0015880D01*
X0204699Y0015921D01*
X0204811Y0015958D01*
X0204925Y0015991D01*
X0205040Y0016020D01*
X0205155Y0016046D01*
X0205272Y0016068D01*
X0205389Y0016085D01*
X0205506Y0016099D01*
X0205624Y0016109D01*
X0205743Y0016115D01*
X0205861Y0016117D01*
X0205979Y0016115D01*
X0206098Y0016109D01*
X0206216Y0016099D01*
X0206333Y0016085D01*
X0206450Y0016068D01*
X0206567Y0016046D01*
X0206682Y0016020D01*
X0206797Y0015991D01*
X0206911Y0015958D01*
X0207023Y0015921D01*
X0207134Y0015880D01*
X0207244Y0015836D01*
X0207352Y0015788D01*
X0207459Y0015736D01*
X0207564Y0015681D01*
X0207667Y0015622D01*
X0207767Y0015560D01*
X0207866Y0015495D01*
X0207963Y0015426D01*
X0208057Y0015355D01*
X0208148Y0015280D01*
X0208238Y0015202D01*
X0208324Y0015121D01*
X0208408Y0015037D01*
X0208489Y0014951D01*
X0208567Y0014861D01*
X0208642Y0014770D01*
X0208713Y0014676D01*
X0208782Y0014579D01*
X0208847Y0014480D01*
X0208909Y0014380D01*
X0208968Y0014277D01*
X0209023Y0014172D01*
X0209075Y0014065D01*
X0209123Y0013957D01*
X0209167Y0013847D01*
X0209208Y0013736D01*
X0209245Y0013624D01*
X0209278Y0013510D01*
X0209307Y0013395D01*
X0209333Y0013280D01*
X0209355Y0013163D01*
X0209372Y0013046D01*
X0209386Y0012929D01*
X0209396Y0012811D01*
X0209402Y0012692D01*
X0209404Y0012574D01*
X0209402Y0012456D01*
X0209396Y0012337D01*
X0209386Y0012219D01*
X0209372Y0012102D01*
X0209355Y0011985D01*
X0209333Y0011868D01*
X0209307Y0011753D01*
X0209278Y0011638D01*
X0209245Y0011524D01*
X0209208Y0011412D01*
X0209167Y0011301D01*
X0209123Y0011191D01*
X0209075Y0011083D01*
X0209023Y0010976D01*
X0208968Y0010871D01*
X0208909Y0010768D01*
X0208847Y0010668D01*
X0208782Y0010569D01*
X0208713Y0010472D01*
X0208642Y0010378D01*
X0208567Y0010287D01*
X0208489Y0010197D01*
X0208408Y0010111D01*
X0208324Y0010027D01*
X0208238Y0009946D01*
X0208148Y0009868D01*
X0208057Y0009793D01*
X0207963Y0009722D01*
X0207866Y0009653D01*
X0207767Y0009588D01*
X0207667Y0009526D01*
X0207564Y0009467D01*
X0207459Y0009412D01*
X0207352Y0009360D01*
X0207244Y0009312D01*
X0207134Y0009268D01*
X0207023Y0009227D01*
X0206911Y0009190D01*
X0206797Y0009157D01*
X0206682Y0009128D01*
X0206567Y0009102D01*
X0206450Y0009080D01*
X0206333Y0009063D01*
X0206216Y0009049D01*
X0206098Y0009039D01*
X0205979Y0009033D01*
X0205861Y0009031D01*
X0205743Y0009033D01*
X0205624Y0009039D01*
X0205506Y0009049D01*
X0205389Y0009063D01*
X0205272Y0009080D01*
X0205155Y0009102D01*
X0205040Y0009128D01*
X0204925Y0009157D01*
X0204811Y0009190D01*
X0204699Y0009227D01*
X0204588Y0009268D01*
X0204478Y0009312D01*
X0204370Y0009360D01*
X0204263Y0009412D01*
X0204158Y0009467D01*
X0204055Y0009526D01*
X0203955Y0009588D01*
X0203856Y0009653D01*
X0203759Y0009722D01*
X0203665Y0009793D01*
X0203574Y0009868D01*
X0203484Y0009946D01*
X0203398Y0010027D01*
X0203314Y0010111D01*
X0203233Y0010197D01*
X0203155Y0010287D01*
X0203080Y0010378D01*
X0203009Y0010472D01*
X0202940Y0010569D01*
X0202875Y0010668D01*
X0202813Y0010768D01*
X0202754Y0010871D01*
X0202699Y0010976D01*
X0202647Y0011083D01*
X0202599Y0011191D01*
X0202555Y0011301D01*
X0202514Y0011412D01*
X0202477Y0011524D01*
X0202444Y0011638D01*
X0202415Y0011753D01*
X0202389Y0011868D01*
X0202367Y0011985D01*
X0202350Y0012102D01*
X0202336Y0012219D01*
X0202326Y0012337D01*
X0202320Y0012456D01*
X0202318Y0012574D01*
X0282323Y0012574D02*
X0282325Y0012692D01*
X0282331Y0012811D01*
X0282341Y0012929D01*
X0282355Y0013046D01*
X0282372Y0013163D01*
X0282394Y0013280D01*
X0282420Y0013395D01*
X0282449Y0013510D01*
X0282482Y0013624D01*
X0282519Y0013736D01*
X0282560Y0013847D01*
X0282604Y0013957D01*
X0282652Y0014065D01*
X0282704Y0014172D01*
X0282759Y0014277D01*
X0282818Y0014380D01*
X0282880Y0014480D01*
X0282945Y0014579D01*
X0283014Y0014676D01*
X0283085Y0014770D01*
X0283160Y0014861D01*
X0283238Y0014951D01*
X0283319Y0015037D01*
X0283403Y0015121D01*
X0283489Y0015202D01*
X0283579Y0015280D01*
X0283670Y0015355D01*
X0283764Y0015426D01*
X0283861Y0015495D01*
X0283960Y0015560D01*
X0284060Y0015622D01*
X0284163Y0015681D01*
X0284268Y0015736D01*
X0284375Y0015788D01*
X0284483Y0015836D01*
X0284593Y0015880D01*
X0284704Y0015921D01*
X0284816Y0015958D01*
X0284930Y0015991D01*
X0285045Y0016020D01*
X0285160Y0016046D01*
X0285277Y0016068D01*
X0285394Y0016085D01*
X0285511Y0016099D01*
X0285629Y0016109D01*
X0285748Y0016115D01*
X0285866Y0016117D01*
X0285984Y0016115D01*
X0286103Y0016109D01*
X0286221Y0016099D01*
X0286338Y0016085D01*
X0286455Y0016068D01*
X0286572Y0016046D01*
X0286687Y0016020D01*
X0286802Y0015991D01*
X0286916Y0015958D01*
X0287028Y0015921D01*
X0287139Y0015880D01*
X0287249Y0015836D01*
X0287357Y0015788D01*
X0287464Y0015736D01*
X0287569Y0015681D01*
X0287672Y0015622D01*
X0287772Y0015560D01*
X0287871Y0015495D01*
X0287968Y0015426D01*
X0288062Y0015355D01*
X0288153Y0015280D01*
X0288243Y0015202D01*
X0288329Y0015121D01*
X0288413Y0015037D01*
X0288494Y0014951D01*
X0288572Y0014861D01*
X0288647Y0014770D01*
X0288718Y0014676D01*
X0288787Y0014579D01*
X0288852Y0014480D01*
X0288914Y0014380D01*
X0288973Y0014277D01*
X0289028Y0014172D01*
X0289080Y0014065D01*
X0289128Y0013957D01*
X0289172Y0013847D01*
X0289213Y0013736D01*
X0289250Y0013624D01*
X0289283Y0013510D01*
X0289312Y0013395D01*
X0289338Y0013280D01*
X0289360Y0013163D01*
X0289377Y0013046D01*
X0289391Y0012929D01*
X0289401Y0012811D01*
X0289407Y0012692D01*
X0289409Y0012574D01*
X0289407Y0012456D01*
X0289401Y0012337D01*
X0289391Y0012219D01*
X0289377Y0012102D01*
X0289360Y0011985D01*
X0289338Y0011868D01*
X0289312Y0011753D01*
X0289283Y0011638D01*
X0289250Y0011524D01*
X0289213Y0011412D01*
X0289172Y0011301D01*
X0289128Y0011191D01*
X0289080Y0011083D01*
X0289028Y0010976D01*
X0288973Y0010871D01*
X0288914Y0010768D01*
X0288852Y0010668D01*
X0288787Y0010569D01*
X0288718Y0010472D01*
X0288647Y0010378D01*
X0288572Y0010287D01*
X0288494Y0010197D01*
X0288413Y0010111D01*
X0288329Y0010027D01*
X0288243Y0009946D01*
X0288153Y0009868D01*
X0288062Y0009793D01*
X0287968Y0009722D01*
X0287871Y0009653D01*
X0287772Y0009588D01*
X0287672Y0009526D01*
X0287569Y0009467D01*
X0287464Y0009412D01*
X0287357Y0009360D01*
X0287249Y0009312D01*
X0287139Y0009268D01*
X0287028Y0009227D01*
X0286916Y0009190D01*
X0286802Y0009157D01*
X0286687Y0009128D01*
X0286572Y0009102D01*
X0286455Y0009080D01*
X0286338Y0009063D01*
X0286221Y0009049D01*
X0286103Y0009039D01*
X0285984Y0009033D01*
X0285866Y0009031D01*
X0285748Y0009033D01*
X0285629Y0009039D01*
X0285511Y0009049D01*
X0285394Y0009063D01*
X0285277Y0009080D01*
X0285160Y0009102D01*
X0285045Y0009128D01*
X0284930Y0009157D01*
X0284816Y0009190D01*
X0284704Y0009227D01*
X0284593Y0009268D01*
X0284483Y0009312D01*
X0284375Y0009360D01*
X0284268Y0009412D01*
X0284163Y0009467D01*
X0284060Y0009526D01*
X0283960Y0009588D01*
X0283861Y0009653D01*
X0283764Y0009722D01*
X0283670Y0009793D01*
X0283579Y0009868D01*
X0283489Y0009946D01*
X0283403Y0010027D01*
X0283319Y0010111D01*
X0283238Y0010197D01*
X0283160Y0010287D01*
X0283085Y0010378D01*
X0283014Y0010472D01*
X0282945Y0010569D01*
X0282880Y0010668D01*
X0282818Y0010768D01*
X0282759Y0010871D01*
X0282704Y0010976D01*
X0282652Y0011083D01*
X0282604Y0011191D01*
X0282560Y0011301D01*
X0282519Y0011412D01*
X0282482Y0011524D01*
X0282449Y0011638D01*
X0282420Y0011753D01*
X0282394Y0011868D01*
X0282372Y0011985D01*
X0282355Y0012102D01*
X0282341Y0012219D01*
X0282331Y0012337D01*
X0282325Y0012456D01*
X0282323Y0012574D01*
X0282316Y0047974D02*
X0282318Y0048093D01*
X0282324Y0048211D01*
X0282334Y0048329D01*
X0282348Y0048447D01*
X0282365Y0048564D01*
X0282387Y0048681D01*
X0282413Y0048797D01*
X0282442Y0048912D01*
X0282475Y0049026D01*
X0282512Y0049138D01*
X0282553Y0049250D01*
X0282598Y0049360D01*
X0282646Y0049468D01*
X0282698Y0049575D01*
X0282753Y0049680D01*
X0282812Y0049783D01*
X0282874Y0049884D01*
X0282939Y0049983D01*
X0283008Y0050080D01*
X0283080Y0050174D01*
X0283155Y0050266D01*
X0283233Y0050355D01*
X0283314Y0050442D01*
X0283398Y0050526D01*
X0283485Y0050607D01*
X0283574Y0050685D01*
X0283666Y0050760D01*
X0283760Y0050832D01*
X0283857Y0050901D01*
X0283956Y0050966D01*
X0284057Y0051028D01*
X0284160Y0051087D01*
X0284265Y0051142D01*
X0284372Y0051194D01*
X0284480Y0051242D01*
X0284590Y0051287D01*
X0284702Y0051328D01*
X0284814Y0051365D01*
X0284928Y0051398D01*
X0285043Y0051427D01*
X0285159Y0051453D01*
X0285276Y0051475D01*
X0285393Y0051492D01*
X0285511Y0051506D01*
X0285629Y0051516D01*
X0285747Y0051522D01*
X0285866Y0051524D01*
X0285985Y0051522D01*
X0286103Y0051516D01*
X0286221Y0051506D01*
X0286339Y0051492D01*
X0286456Y0051475D01*
X0286573Y0051453D01*
X0286689Y0051427D01*
X0286804Y0051398D01*
X0286918Y0051365D01*
X0287030Y0051328D01*
X0287142Y0051287D01*
X0287252Y0051242D01*
X0287360Y0051194D01*
X0287467Y0051142D01*
X0287572Y0051087D01*
X0287675Y0051028D01*
X0287776Y0050966D01*
X0287875Y0050901D01*
X0287972Y0050832D01*
X0288066Y0050760D01*
X0288158Y0050685D01*
X0288247Y0050607D01*
X0288334Y0050526D01*
X0288418Y0050442D01*
X0288499Y0050355D01*
X0288577Y0050266D01*
X0288652Y0050174D01*
X0288724Y0050080D01*
X0288793Y0049983D01*
X0288858Y0049884D01*
X0288920Y0049783D01*
X0288979Y0049680D01*
X0289034Y0049575D01*
X0289086Y0049468D01*
X0289134Y0049360D01*
X0289179Y0049250D01*
X0289220Y0049138D01*
X0289257Y0049026D01*
X0289290Y0048912D01*
X0289319Y0048797D01*
X0289345Y0048681D01*
X0289367Y0048564D01*
X0289384Y0048447D01*
X0289398Y0048329D01*
X0289408Y0048211D01*
X0289414Y0048093D01*
X0289416Y0047974D01*
X0289414Y0047855D01*
X0289408Y0047737D01*
X0289398Y0047619D01*
X0289384Y0047501D01*
X0289367Y0047384D01*
X0289345Y0047267D01*
X0289319Y0047151D01*
X0289290Y0047036D01*
X0289257Y0046922D01*
X0289220Y0046810D01*
X0289179Y0046698D01*
X0289134Y0046588D01*
X0289086Y0046480D01*
X0289034Y0046373D01*
X0288979Y0046268D01*
X0288920Y0046165D01*
X0288858Y0046064D01*
X0288793Y0045965D01*
X0288724Y0045868D01*
X0288652Y0045774D01*
X0288577Y0045682D01*
X0288499Y0045593D01*
X0288418Y0045506D01*
X0288334Y0045422D01*
X0288247Y0045341D01*
X0288158Y0045263D01*
X0288066Y0045188D01*
X0287972Y0045116D01*
X0287875Y0045047D01*
X0287776Y0044982D01*
X0287675Y0044920D01*
X0287572Y0044861D01*
X0287467Y0044806D01*
X0287360Y0044754D01*
X0287252Y0044706D01*
X0287142Y0044661D01*
X0287030Y0044620D01*
X0286918Y0044583D01*
X0286804Y0044550D01*
X0286689Y0044521D01*
X0286573Y0044495D01*
X0286456Y0044473D01*
X0286339Y0044456D01*
X0286221Y0044442D01*
X0286103Y0044432D01*
X0285985Y0044426D01*
X0285866Y0044424D01*
X0285747Y0044426D01*
X0285629Y0044432D01*
X0285511Y0044442D01*
X0285393Y0044456D01*
X0285276Y0044473D01*
X0285159Y0044495D01*
X0285043Y0044521D01*
X0284928Y0044550D01*
X0284814Y0044583D01*
X0284702Y0044620D01*
X0284590Y0044661D01*
X0284480Y0044706D01*
X0284372Y0044754D01*
X0284265Y0044806D01*
X0284160Y0044861D01*
X0284057Y0044920D01*
X0283956Y0044982D01*
X0283857Y0045047D01*
X0283760Y0045116D01*
X0283666Y0045188D01*
X0283574Y0045263D01*
X0283485Y0045341D01*
X0283398Y0045422D01*
X0283314Y0045506D01*
X0283233Y0045593D01*
X0283155Y0045682D01*
X0283080Y0045774D01*
X0283008Y0045868D01*
X0282939Y0045965D01*
X0282874Y0046064D01*
X0282812Y0046165D01*
X0282753Y0046268D01*
X0282698Y0046373D01*
X0282646Y0046480D01*
X0282598Y0046588D01*
X0282553Y0046698D01*
X0282512Y0046810D01*
X0282475Y0046922D01*
X0282442Y0047036D01*
X0282413Y0047151D01*
X0282387Y0047267D01*
X0282365Y0047384D01*
X0282348Y0047501D01*
X0282334Y0047619D01*
X0282324Y0047737D01*
X0282318Y0047855D01*
X0282316Y0047974D01*
X0202311Y0047974D02*
X0202313Y0048093D01*
X0202319Y0048211D01*
X0202329Y0048329D01*
X0202343Y0048447D01*
X0202360Y0048564D01*
X0202382Y0048681D01*
X0202408Y0048797D01*
X0202437Y0048912D01*
X0202470Y0049026D01*
X0202507Y0049138D01*
X0202548Y0049250D01*
X0202593Y0049360D01*
X0202641Y0049468D01*
X0202693Y0049575D01*
X0202748Y0049680D01*
X0202807Y0049783D01*
X0202869Y0049884D01*
X0202934Y0049983D01*
X0203003Y0050080D01*
X0203075Y0050174D01*
X0203150Y0050266D01*
X0203228Y0050355D01*
X0203309Y0050442D01*
X0203393Y0050526D01*
X0203480Y0050607D01*
X0203569Y0050685D01*
X0203661Y0050760D01*
X0203755Y0050832D01*
X0203852Y0050901D01*
X0203951Y0050966D01*
X0204052Y0051028D01*
X0204155Y0051087D01*
X0204260Y0051142D01*
X0204367Y0051194D01*
X0204475Y0051242D01*
X0204585Y0051287D01*
X0204697Y0051328D01*
X0204809Y0051365D01*
X0204923Y0051398D01*
X0205038Y0051427D01*
X0205154Y0051453D01*
X0205271Y0051475D01*
X0205388Y0051492D01*
X0205506Y0051506D01*
X0205624Y0051516D01*
X0205742Y0051522D01*
X0205861Y0051524D01*
X0205980Y0051522D01*
X0206098Y0051516D01*
X0206216Y0051506D01*
X0206334Y0051492D01*
X0206451Y0051475D01*
X0206568Y0051453D01*
X0206684Y0051427D01*
X0206799Y0051398D01*
X0206913Y0051365D01*
X0207025Y0051328D01*
X0207137Y0051287D01*
X0207247Y0051242D01*
X0207355Y0051194D01*
X0207462Y0051142D01*
X0207567Y0051087D01*
X0207670Y0051028D01*
X0207771Y0050966D01*
X0207870Y0050901D01*
X0207967Y0050832D01*
X0208061Y0050760D01*
X0208153Y0050685D01*
X0208242Y0050607D01*
X0208329Y0050526D01*
X0208413Y0050442D01*
X0208494Y0050355D01*
X0208572Y0050266D01*
X0208647Y0050174D01*
X0208719Y0050080D01*
X0208788Y0049983D01*
X0208853Y0049884D01*
X0208915Y0049783D01*
X0208974Y0049680D01*
X0209029Y0049575D01*
X0209081Y0049468D01*
X0209129Y0049360D01*
X0209174Y0049250D01*
X0209215Y0049138D01*
X0209252Y0049026D01*
X0209285Y0048912D01*
X0209314Y0048797D01*
X0209340Y0048681D01*
X0209362Y0048564D01*
X0209379Y0048447D01*
X0209393Y0048329D01*
X0209403Y0048211D01*
X0209409Y0048093D01*
X0209411Y0047974D01*
X0209409Y0047855D01*
X0209403Y0047737D01*
X0209393Y0047619D01*
X0209379Y0047501D01*
X0209362Y0047384D01*
X0209340Y0047267D01*
X0209314Y0047151D01*
X0209285Y0047036D01*
X0209252Y0046922D01*
X0209215Y0046810D01*
X0209174Y0046698D01*
X0209129Y0046588D01*
X0209081Y0046480D01*
X0209029Y0046373D01*
X0208974Y0046268D01*
X0208915Y0046165D01*
X0208853Y0046064D01*
X0208788Y0045965D01*
X0208719Y0045868D01*
X0208647Y0045774D01*
X0208572Y0045682D01*
X0208494Y0045593D01*
X0208413Y0045506D01*
X0208329Y0045422D01*
X0208242Y0045341D01*
X0208153Y0045263D01*
X0208061Y0045188D01*
X0207967Y0045116D01*
X0207870Y0045047D01*
X0207771Y0044982D01*
X0207670Y0044920D01*
X0207567Y0044861D01*
X0207462Y0044806D01*
X0207355Y0044754D01*
X0207247Y0044706D01*
X0207137Y0044661D01*
X0207025Y0044620D01*
X0206913Y0044583D01*
X0206799Y0044550D01*
X0206684Y0044521D01*
X0206568Y0044495D01*
X0206451Y0044473D01*
X0206334Y0044456D01*
X0206216Y0044442D01*
X0206098Y0044432D01*
X0205980Y0044426D01*
X0205861Y0044424D01*
X0205742Y0044426D01*
X0205624Y0044432D01*
X0205506Y0044442D01*
X0205388Y0044456D01*
X0205271Y0044473D01*
X0205154Y0044495D01*
X0205038Y0044521D01*
X0204923Y0044550D01*
X0204809Y0044583D01*
X0204697Y0044620D01*
X0204585Y0044661D01*
X0204475Y0044706D01*
X0204367Y0044754D01*
X0204260Y0044806D01*
X0204155Y0044861D01*
X0204052Y0044920D01*
X0203951Y0044982D01*
X0203852Y0045047D01*
X0203755Y0045116D01*
X0203661Y0045188D01*
X0203569Y0045263D01*
X0203480Y0045341D01*
X0203393Y0045422D01*
X0203309Y0045506D01*
X0203228Y0045593D01*
X0203150Y0045682D01*
X0203075Y0045774D01*
X0203003Y0045868D01*
X0202934Y0045965D01*
X0202869Y0046064D01*
X0202807Y0046165D01*
X0202748Y0046268D01*
X0202693Y0046373D01*
X0202641Y0046480D01*
X0202593Y0046588D01*
X0202548Y0046698D01*
X0202507Y0046810D01*
X0202470Y0046922D01*
X0202437Y0047036D01*
X0202408Y0047151D01*
X0202382Y0047267D01*
X0202360Y0047384D01*
X0202343Y0047501D01*
X0202329Y0047619D01*
X0202319Y0047737D01*
X0202313Y0047855D01*
X0202311Y0047974D01*
X0122314Y0047974D02*
X0122316Y0048093D01*
X0122322Y0048211D01*
X0122332Y0048329D01*
X0122346Y0048447D01*
X0122363Y0048564D01*
X0122385Y0048681D01*
X0122411Y0048797D01*
X0122440Y0048912D01*
X0122473Y0049026D01*
X0122510Y0049138D01*
X0122551Y0049250D01*
X0122596Y0049360D01*
X0122644Y0049468D01*
X0122696Y0049575D01*
X0122751Y0049680D01*
X0122810Y0049783D01*
X0122872Y0049884D01*
X0122937Y0049983D01*
X0123006Y0050080D01*
X0123078Y0050174D01*
X0123153Y0050266D01*
X0123231Y0050355D01*
X0123312Y0050442D01*
X0123396Y0050526D01*
X0123483Y0050607D01*
X0123572Y0050685D01*
X0123664Y0050760D01*
X0123758Y0050832D01*
X0123855Y0050901D01*
X0123954Y0050966D01*
X0124055Y0051028D01*
X0124158Y0051087D01*
X0124263Y0051142D01*
X0124370Y0051194D01*
X0124478Y0051242D01*
X0124588Y0051287D01*
X0124700Y0051328D01*
X0124812Y0051365D01*
X0124926Y0051398D01*
X0125041Y0051427D01*
X0125157Y0051453D01*
X0125274Y0051475D01*
X0125391Y0051492D01*
X0125509Y0051506D01*
X0125627Y0051516D01*
X0125745Y0051522D01*
X0125864Y0051524D01*
X0125983Y0051522D01*
X0126101Y0051516D01*
X0126219Y0051506D01*
X0126337Y0051492D01*
X0126454Y0051475D01*
X0126571Y0051453D01*
X0126687Y0051427D01*
X0126802Y0051398D01*
X0126916Y0051365D01*
X0127028Y0051328D01*
X0127140Y0051287D01*
X0127250Y0051242D01*
X0127358Y0051194D01*
X0127465Y0051142D01*
X0127570Y0051087D01*
X0127673Y0051028D01*
X0127774Y0050966D01*
X0127873Y0050901D01*
X0127970Y0050832D01*
X0128064Y0050760D01*
X0128156Y0050685D01*
X0128245Y0050607D01*
X0128332Y0050526D01*
X0128416Y0050442D01*
X0128497Y0050355D01*
X0128575Y0050266D01*
X0128650Y0050174D01*
X0128722Y0050080D01*
X0128791Y0049983D01*
X0128856Y0049884D01*
X0128918Y0049783D01*
X0128977Y0049680D01*
X0129032Y0049575D01*
X0129084Y0049468D01*
X0129132Y0049360D01*
X0129177Y0049250D01*
X0129218Y0049138D01*
X0129255Y0049026D01*
X0129288Y0048912D01*
X0129317Y0048797D01*
X0129343Y0048681D01*
X0129365Y0048564D01*
X0129382Y0048447D01*
X0129396Y0048329D01*
X0129406Y0048211D01*
X0129412Y0048093D01*
X0129414Y0047974D01*
X0129412Y0047855D01*
X0129406Y0047737D01*
X0129396Y0047619D01*
X0129382Y0047501D01*
X0129365Y0047384D01*
X0129343Y0047267D01*
X0129317Y0047151D01*
X0129288Y0047036D01*
X0129255Y0046922D01*
X0129218Y0046810D01*
X0129177Y0046698D01*
X0129132Y0046588D01*
X0129084Y0046480D01*
X0129032Y0046373D01*
X0128977Y0046268D01*
X0128918Y0046165D01*
X0128856Y0046064D01*
X0128791Y0045965D01*
X0128722Y0045868D01*
X0128650Y0045774D01*
X0128575Y0045682D01*
X0128497Y0045593D01*
X0128416Y0045506D01*
X0128332Y0045422D01*
X0128245Y0045341D01*
X0128156Y0045263D01*
X0128064Y0045188D01*
X0127970Y0045116D01*
X0127873Y0045047D01*
X0127774Y0044982D01*
X0127673Y0044920D01*
X0127570Y0044861D01*
X0127465Y0044806D01*
X0127358Y0044754D01*
X0127250Y0044706D01*
X0127140Y0044661D01*
X0127028Y0044620D01*
X0126916Y0044583D01*
X0126802Y0044550D01*
X0126687Y0044521D01*
X0126571Y0044495D01*
X0126454Y0044473D01*
X0126337Y0044456D01*
X0126219Y0044442D01*
X0126101Y0044432D01*
X0125983Y0044426D01*
X0125864Y0044424D01*
X0125745Y0044426D01*
X0125627Y0044432D01*
X0125509Y0044442D01*
X0125391Y0044456D01*
X0125274Y0044473D01*
X0125157Y0044495D01*
X0125041Y0044521D01*
X0124926Y0044550D01*
X0124812Y0044583D01*
X0124700Y0044620D01*
X0124588Y0044661D01*
X0124478Y0044706D01*
X0124370Y0044754D01*
X0124263Y0044806D01*
X0124158Y0044861D01*
X0124055Y0044920D01*
X0123954Y0044982D01*
X0123855Y0045047D01*
X0123758Y0045116D01*
X0123664Y0045188D01*
X0123572Y0045263D01*
X0123483Y0045341D01*
X0123396Y0045422D01*
X0123312Y0045506D01*
X0123231Y0045593D01*
X0123153Y0045682D01*
X0123078Y0045774D01*
X0123006Y0045868D01*
X0122937Y0045965D01*
X0122872Y0046064D01*
X0122810Y0046165D01*
X0122751Y0046268D01*
X0122696Y0046373D01*
X0122644Y0046480D01*
X0122596Y0046588D01*
X0122551Y0046698D01*
X0122510Y0046810D01*
X0122473Y0046922D01*
X0122440Y0047036D01*
X0122411Y0047151D01*
X0122385Y0047267D01*
X0122363Y0047384D01*
X0122346Y0047501D01*
X0122332Y0047619D01*
X0122322Y0047737D01*
X0122316Y0047855D01*
X0122314Y0047974D01*
X0042316Y0047974D02*
X0042318Y0048093D01*
X0042324Y0048211D01*
X0042334Y0048329D01*
X0042348Y0048447D01*
X0042365Y0048564D01*
X0042387Y0048681D01*
X0042413Y0048797D01*
X0042442Y0048912D01*
X0042475Y0049026D01*
X0042512Y0049138D01*
X0042553Y0049250D01*
X0042598Y0049360D01*
X0042646Y0049468D01*
X0042698Y0049575D01*
X0042753Y0049680D01*
X0042812Y0049783D01*
X0042874Y0049884D01*
X0042939Y0049983D01*
X0043008Y0050080D01*
X0043080Y0050174D01*
X0043155Y0050266D01*
X0043233Y0050355D01*
X0043314Y0050442D01*
X0043398Y0050526D01*
X0043485Y0050607D01*
X0043574Y0050685D01*
X0043666Y0050760D01*
X0043760Y0050832D01*
X0043857Y0050901D01*
X0043956Y0050966D01*
X0044057Y0051028D01*
X0044160Y0051087D01*
X0044265Y0051142D01*
X0044372Y0051194D01*
X0044480Y0051242D01*
X0044590Y0051287D01*
X0044702Y0051328D01*
X0044814Y0051365D01*
X0044928Y0051398D01*
X0045043Y0051427D01*
X0045159Y0051453D01*
X0045276Y0051475D01*
X0045393Y0051492D01*
X0045511Y0051506D01*
X0045629Y0051516D01*
X0045747Y0051522D01*
X0045866Y0051524D01*
X0045985Y0051522D01*
X0046103Y0051516D01*
X0046221Y0051506D01*
X0046339Y0051492D01*
X0046456Y0051475D01*
X0046573Y0051453D01*
X0046689Y0051427D01*
X0046804Y0051398D01*
X0046918Y0051365D01*
X0047030Y0051328D01*
X0047142Y0051287D01*
X0047252Y0051242D01*
X0047360Y0051194D01*
X0047467Y0051142D01*
X0047572Y0051087D01*
X0047675Y0051028D01*
X0047776Y0050966D01*
X0047875Y0050901D01*
X0047972Y0050832D01*
X0048066Y0050760D01*
X0048158Y0050685D01*
X0048247Y0050607D01*
X0048334Y0050526D01*
X0048418Y0050442D01*
X0048499Y0050355D01*
X0048577Y0050266D01*
X0048652Y0050174D01*
X0048724Y0050080D01*
X0048793Y0049983D01*
X0048858Y0049884D01*
X0048920Y0049783D01*
X0048979Y0049680D01*
X0049034Y0049575D01*
X0049086Y0049468D01*
X0049134Y0049360D01*
X0049179Y0049250D01*
X0049220Y0049138D01*
X0049257Y0049026D01*
X0049290Y0048912D01*
X0049319Y0048797D01*
X0049345Y0048681D01*
X0049367Y0048564D01*
X0049384Y0048447D01*
X0049398Y0048329D01*
X0049408Y0048211D01*
X0049414Y0048093D01*
X0049416Y0047974D01*
X0049414Y0047855D01*
X0049408Y0047737D01*
X0049398Y0047619D01*
X0049384Y0047501D01*
X0049367Y0047384D01*
X0049345Y0047267D01*
X0049319Y0047151D01*
X0049290Y0047036D01*
X0049257Y0046922D01*
X0049220Y0046810D01*
X0049179Y0046698D01*
X0049134Y0046588D01*
X0049086Y0046480D01*
X0049034Y0046373D01*
X0048979Y0046268D01*
X0048920Y0046165D01*
X0048858Y0046064D01*
X0048793Y0045965D01*
X0048724Y0045868D01*
X0048652Y0045774D01*
X0048577Y0045682D01*
X0048499Y0045593D01*
X0048418Y0045506D01*
X0048334Y0045422D01*
X0048247Y0045341D01*
X0048158Y0045263D01*
X0048066Y0045188D01*
X0047972Y0045116D01*
X0047875Y0045047D01*
X0047776Y0044982D01*
X0047675Y0044920D01*
X0047572Y0044861D01*
X0047467Y0044806D01*
X0047360Y0044754D01*
X0047252Y0044706D01*
X0047142Y0044661D01*
X0047030Y0044620D01*
X0046918Y0044583D01*
X0046804Y0044550D01*
X0046689Y0044521D01*
X0046573Y0044495D01*
X0046456Y0044473D01*
X0046339Y0044456D01*
X0046221Y0044442D01*
X0046103Y0044432D01*
X0045985Y0044426D01*
X0045866Y0044424D01*
X0045747Y0044426D01*
X0045629Y0044432D01*
X0045511Y0044442D01*
X0045393Y0044456D01*
X0045276Y0044473D01*
X0045159Y0044495D01*
X0045043Y0044521D01*
X0044928Y0044550D01*
X0044814Y0044583D01*
X0044702Y0044620D01*
X0044590Y0044661D01*
X0044480Y0044706D01*
X0044372Y0044754D01*
X0044265Y0044806D01*
X0044160Y0044861D01*
X0044057Y0044920D01*
X0043956Y0044982D01*
X0043857Y0045047D01*
X0043760Y0045116D01*
X0043666Y0045188D01*
X0043574Y0045263D01*
X0043485Y0045341D01*
X0043398Y0045422D01*
X0043314Y0045506D01*
X0043233Y0045593D01*
X0043155Y0045682D01*
X0043080Y0045774D01*
X0043008Y0045868D01*
X0042939Y0045965D01*
X0042874Y0046064D01*
X0042812Y0046165D01*
X0042753Y0046268D01*
X0042698Y0046373D01*
X0042646Y0046480D01*
X0042598Y0046588D01*
X0042553Y0046698D01*
X0042512Y0046810D01*
X0042475Y0046922D01*
X0042442Y0047036D01*
X0042413Y0047151D01*
X0042387Y0047267D01*
X0042365Y0047384D01*
X0042348Y0047501D01*
X0042334Y0047619D01*
X0042324Y0047737D01*
X0042318Y0047855D01*
X0042316Y0047974D01*
M02*
