G75*
%MOIN*%
%OFA0B0*%
%FSLAX25Y25*%
%IPPOS*%
%LPD*%
%AMOC8*
5,1,8,0,0,1.08239X$1,22.5*
%
%ADD10C,0.07050*%
%ADD11C,0.08000*%
%ADD12C,0.00039*%
D10*
X0017741Y0020474D02*
X0024791Y0020474D01*
X0066941Y0020474D02*
X0073991Y0020474D01*
X0097739Y0020474D02*
X0104789Y0020474D01*
X0146939Y0020474D02*
X0153989Y0020474D01*
X0177736Y0020474D02*
X0184786Y0020474D01*
X0226936Y0020474D02*
X0233986Y0020474D01*
X0257741Y0020474D02*
X0264791Y0020474D01*
X0306941Y0020474D02*
X0313991Y0020474D01*
X0313991Y0040074D02*
X0306941Y0040074D01*
X0264791Y0040074D02*
X0257741Y0040074D01*
X0233986Y0040074D02*
X0226936Y0040074D01*
X0184786Y0040074D02*
X0177736Y0040074D01*
X0153989Y0040074D02*
X0146939Y0040074D01*
X0104789Y0040074D02*
X0097739Y0040074D01*
X0073991Y0040074D02*
X0066941Y0040074D01*
X0024791Y0040074D02*
X0017741Y0040074D01*
D11*
X0009888Y0020112D03*
X0009888Y0030112D03*
X0009888Y0040112D03*
X0165888Y0032202D03*
X0165888Y0022202D03*
X0165888Y0012202D03*
X0321889Y0020083D03*
X0321889Y0030083D03*
X0321889Y0040083D03*
D12*
X0326801Y0040083D02*
X0326801Y0040032D01*
M02*
