%
M48
M72
T01C0.03500
T02C0.04700
T03C0.07087
T04C0.07100
%
T01
X9888Y20112
X9888Y30112
X9888Y40112
X165888Y32202
X165888Y22202
X165888Y12202
X321889Y20083
X321889Y30083
X321889Y40083
T02
X310466Y40074
X261266Y40074
X230461Y40074
X181261Y40074
X150464Y40074
X101264Y40074
X70466Y40074
X21266Y40074
X21266Y20474
X70466Y20474
X101264Y20474
X150464Y20474
X181261Y20474
X230461Y20474
X261266Y20474
X310466Y20474
T03
X45866Y12574
X125864Y12574
X205861Y12574
X285866Y12574
T04
X285866Y47974
X205861Y47974
X125864Y47974
X45866Y47974
M30
